<?xml version="1.0" encoding="utf-8" standalone="no"?>
<!DOCTYPE svg PUBLIC "-//W3C//DTD SVG 1.1//EN"
  "http://www.w3.org/Graphics/SVG/1.1/DTD/svg11.dtd">
<svg xmlns:xlink="http://www.w3.org/1999/xlink" width="864pt" height="864pt" viewBox="0 0 864 864" xmlns="http://www.w3.org/2000/svg" version="1.1">
 <metadata>
  <rdf:RDF xmlns:dc="http://purl.org/dc/elements/1.1/" xmlns:cc="http://creativecommons.org/ns#" xmlns:rdf="http://www.w3.org/1999/02/22-rdf-syntax-ns#">
   <cc:Work>
    <dc:type rdf:resource="http://purl.org/dc/dcmitype/StillImage"/>
    <dc:date>2025-10-02T13:25:00.073807</dc:date>
    <dc:format>image/svg+xml</dc:format>
    <dc:creator>
     <cc:Agent>
      <dc:title>Matplotlib v3.10.0, https://matplotlib.org/</dc:title>
     </cc:Agent>
    </dc:creator>
   </cc:Work>
  </rdf:RDF>
 </metadata>
 <defs>
  <style type="text/css">*{stroke-linejoin: round; stroke-linecap: butt}</style>
 </defs>
 <g id="figure_1">
  <g id="patch_1">
   <path d="M 0 864 
L 864 864 
L 864 0 
L 0 0 
L 0 864 
z
" style="fill: none"/>
  </g>
  <g id="axes_1">
   <g id="patch_2">
    <path d="M 108 768.96 
L 777.6 768.96 
L 777.6 103.68 
L 108 103.68 
L 108 768.96 
z
" style="fill: none"/>
   </g>
   <g id="matplotlib.axis_1"/>
   <g id="matplotlib.axis_2">
    <g id="ytick_1">
     <g id="line2d_1">
      <defs>
       <path id="m44b80736e5" d="M 0 0 
L -3.5 0 
" style="stroke: #000000; stroke-width: 0.8"/>
      </defs>
      <g>
       <use xlink:href="#m44b80736e5" x="108" y="684.657209" style="stroke: #000000; stroke-width: 0.8"/>
      </g>
     </g>
     <g id="text_1">
      <!-- −2 -->
      <g transform="translate(78.886719 690.356037) scale(0.15 -0.15)">
       <defs>
        <path id="DejaVuSans-2212" d="M 678 2272 
L 4684 2272 
L 4684 1741 
L 678 1741 
L 678 2272 
z
" transform="scale(0.015625)"/>
        <path id="DejaVuSans-32" d="M 1228 531 
L 3431 531 
L 3431 0 
L 469 0 
L 469 531 
Q 828 903 1448 1529 
Q 2069 2156 2228 2338 
Q 2531 2678 2651 2914 
Q 2772 3150 2772 3378 
Q 2772 3750 2511 3984 
Q 2250 4219 1831 4219 
Q 1534 4219 1204 4116 
Q 875 4013 500 3803 
L 500 4441 
Q 881 4594 1212 4672 
Q 1544 4750 1819 4750 
Q 2544 4750 2975 4387 
Q 3406 4025 3406 3419 
Q 3406 3131 3298 2873 
Q 3191 2616 2906 2266 
Q 2828 2175 2409 1742 
Q 1991 1309 1228 531 
z
" transform="scale(0.015625)"/>
       </defs>
       <use xlink:href="#DejaVuSans-2212"/>
       <use xlink:href="#DejaVuSans-32" transform="translate(83.789062 0)"/>
      </g>
     </g>
    </g>
    <g id="ytick_2">
     <g id="line2d_2">
      <g>
       <use xlink:href="#m44b80736e5" x="108" y="590.662688" style="stroke: #000000; stroke-width: 0.8"/>
      </g>
     </g>
     <g id="text_2">
      <!-- −1 -->
      <g transform="translate(78.886719 596.361517) scale(0.15 -0.15)">
       <defs>
        <path id="DejaVuSans-31" d="M 794 531 
L 1825 531 
L 1825 4091 
L 703 3866 
L 703 4441 
L 1819 4666 
L 2450 4666 
L 2450 531 
L 3481 531 
L 3481 0 
L 794 0 
L 794 531 
z
" transform="scale(0.015625)"/>
       </defs>
       <use xlink:href="#DejaVuSans-2212"/>
       <use xlink:href="#DejaVuSans-31" transform="translate(83.789062 0)"/>
      </g>
     </g>
    </g>
    <g id="ytick_3">
     <g id="line2d_3">
      <g>
       <use xlink:href="#m44b80736e5" x="108" y="496.668168" style="stroke: #000000; stroke-width: 0.8"/>
      </g>
     </g>
     <g id="text_3">
      <!-- 0 -->
      <g transform="translate(91.45625 502.366996) scale(0.15 -0.15)">
       <defs>
        <path id="DejaVuSans-30" d="M 2034 4250 
Q 1547 4250 1301 3770 
Q 1056 3291 1056 2328 
Q 1056 1369 1301 889 
Q 1547 409 2034 409 
Q 2525 409 2770 889 
Q 3016 1369 3016 2328 
Q 3016 3291 2770 3770 
Q 2525 4250 2034 4250 
z
M 2034 4750 
Q 2819 4750 3233 4129 
Q 3647 3509 3647 2328 
Q 3647 1150 3233 529 
Q 2819 -91 2034 -91 
Q 1250 -91 836 529 
Q 422 1150 422 2328 
Q 422 3509 836 4129 
Q 1250 4750 2034 4750 
z
" transform="scale(0.015625)"/>
       </defs>
       <use xlink:href="#DejaVuSans-30"/>
      </g>
     </g>
    </g>
    <g id="ytick_4">
     <g id="line2d_4">
      <g>
       <use xlink:href="#m44b80736e5" x="108" y="402.673648" style="stroke: #000000; stroke-width: 0.8"/>
      </g>
     </g>
     <g id="text_4">
      <!-- 1 -->
      <g transform="translate(91.45625 408.372476) scale(0.15 -0.15)">
       <use xlink:href="#DejaVuSans-31"/>
      </g>
     </g>
    </g>
    <g id="ytick_5">
     <g id="line2d_5">
      <g>
       <use xlink:href="#m44b80736e5" x="108" y="308.679128" style="stroke: #000000; stroke-width: 0.8"/>
      </g>
     </g>
     <g id="text_5">
      <!-- 2 -->
      <g transform="translate(91.45625 314.377956) scale(0.15 -0.15)">
       <use xlink:href="#DejaVuSans-32"/>
      </g>
     </g>
    </g>
    <g id="ytick_6">
     <g id="line2d_6">
      <g>
       <use xlink:href="#m44b80736e5" x="108" y="214.684608" style="stroke: #000000; stroke-width: 0.8"/>
      </g>
     </g>
     <g id="text_6">
      <!-- 3 -->
      <g transform="translate(91.45625 220.383436) scale(0.15 -0.15)">
       <defs>
        <path id="DejaVuSans-33" d="M 2597 2516 
Q 3050 2419 3304 2112 
Q 3559 1806 3559 1356 
Q 3559 666 3084 287 
Q 2609 -91 1734 -91 
Q 1441 -91 1130 -33 
Q 819 25 488 141 
L 488 750 
Q 750 597 1062 519 
Q 1375 441 1716 441 
Q 2309 441 2620 675 
Q 2931 909 2931 1356 
Q 2931 1769 2642 2001 
Q 2353 2234 1838 2234 
L 1294 2234 
L 1294 2753 
L 1863 2753 
Q 2328 2753 2575 2939 
Q 2822 3125 2822 3475 
Q 2822 3834 2567 4026 
Q 2313 4219 1838 4219 
Q 1578 4219 1281 4162 
Q 984 4106 628 3988 
L 628 4550 
Q 988 4650 1302 4700 
Q 1616 4750 1894 4750 
Q 2613 4750 3031 4423 
Q 3450 4097 3450 3541 
Q 3450 3153 3228 2886 
Q 3006 2619 2597 2516 
z
" transform="scale(0.015625)"/>
       </defs>
       <use xlink:href="#DejaVuSans-33"/>
      </g>
     </g>
    </g>
    <g id="ytick_7">
     <g id="line2d_7">
      <g>
       <use xlink:href="#m44b80736e5" x="108" y="120.690088" style="stroke: #000000; stroke-width: 0.8"/>
      </g>
     </g>
     <g id="text_7">
      <!-- 4 -->
      <g transform="translate(91.45625 126.388916) scale(0.15 -0.15)">
       <defs>
        <path id="DejaVuSans-34" d="M 2419 4116 
L 825 1625 
L 2419 1625 
L 2419 4116 
z
M 2253 4666 
L 3047 4666 
L 3047 1625 
L 3713 1625 
L 3713 1100 
L 3047 1100 
L 3047 0 
L 2419 0 
L 2419 1100 
L 313 1100 
L 313 1709 
L 2253 4666 
z
" transform="scale(0.015625)"/>
       </defs>
       <use xlink:href="#DejaVuSans-34"/>
      </g>
     </g>
    </g>
    <g id="text_8">
     <!-- E (eV) -->
     <g transform="translate(71.767188 459.040312) rotate(-90) scale(0.15 -0.15)">
      <defs>
       <path id="DejaVuSans-45" d="M 628 4666 
L 3578 4666 
L 3578 4134 
L 1259 4134 
L 1259 2753 
L 3481 2753 
L 3481 2222 
L 1259 2222 
L 1259 531 
L 3634 531 
L 3634 0 
L 628 0 
L 628 4666 
z
" transform="scale(0.015625)"/>
       <path id="DejaVuSans-20" transform="scale(0.015625)"/>
       <path id="DejaVuSans-28" d="M 1984 4856 
Q 1566 4138 1362 3434 
Q 1159 2731 1159 2009 
Q 1159 1288 1364 580 
Q 1569 -128 1984 -844 
L 1484 -844 
Q 1016 -109 783 600 
Q 550 1309 550 2009 
Q 550 2706 781 3412 
Q 1013 4119 1484 4856 
L 1984 4856 
z
" transform="scale(0.015625)"/>
       <path id="DejaVuSans-65" d="M 3597 1894 
L 3597 1613 
L 953 1613 
Q 991 1019 1311 708 
Q 1631 397 2203 397 
Q 2534 397 2845 478 
Q 3156 559 3463 722 
L 3463 178 
Q 3153 47 2828 -22 
Q 2503 -91 2169 -91 
Q 1331 -91 842 396 
Q 353 884 353 1716 
Q 353 2575 817 3079 
Q 1281 3584 2069 3584 
Q 2775 3584 3186 3129 
Q 3597 2675 3597 1894 
z
M 3022 2063 
Q 3016 2534 2758 2815 
Q 2500 3097 2075 3097 
Q 1594 3097 1305 2825 
Q 1016 2553 972 2059 
L 3022 2063 
z
" transform="scale(0.015625)"/>
       <path id="DejaVuSans-56" d="M 1831 0 
L 50 4666 
L 709 4666 
L 2188 738 
L 3669 4666 
L 4325 4666 
L 2547 0 
L 1831 0 
z
" transform="scale(0.015625)"/>
       <path id="DejaVuSans-29" d="M 513 4856 
L 1013 4856 
Q 1481 4119 1714 3412 
Q 1947 2706 1947 2009 
Q 1947 1309 1714 600 
Q 1481 -109 1013 -844 
L 513 -844 
Q 928 -128 1133 580 
Q 1338 1288 1338 2009 
Q 1338 2731 1133 3434 
Q 928 4138 513 4856 
z
" transform="scale(0.015625)"/>
      </defs>
      <use xlink:href="#DejaVuSans-45"/>
      <use xlink:href="#DejaVuSans-20" transform="translate(63.183594 0)"/>
      <use xlink:href="#DejaVuSans-28" transform="translate(94.970703 0)"/>
      <use xlink:href="#DejaVuSans-65" transform="translate(133.984375 0)"/>
      <use xlink:href="#DejaVuSans-56" transform="translate(195.507812 0)"/>
      <use xlink:href="#DejaVuSans-29" transform="translate(263.916016 0)"/>
     </g>
    </g>
   </g>
   <g id="LineCollection_1">
    <path d="M 123.942857 496.668168 
L 283.371429 496.668168 
" clip-path="url(#p7563d96de1)" style="fill: none; stroke: #000000; stroke-width: 2"/>
   </g>
   <g id="LineCollection_2">
    <path d="M 123.942857 397.517562 
L 283.371429 397.517562 
" clip-path="url(#p7563d96de1)" style="fill: none; stroke: #830808; stroke-width: 2"/>
   </g>
   <g id="LineCollection_3">
    <path d="M 602.228571 382.590898 
L 761.657143 382.590898 
" clip-path="url(#p7563d96de1)" style="fill: none; stroke: #ff0000; stroke-width: 2"/>
   </g>
   <g id="LineCollection_4">
    <path d="M 602.228571 225.068456 
L 761.657143 225.068456 
" clip-path="url(#p7563d96de1)" style="fill: none; stroke: #0000ff; stroke-width: 2"/>
   </g>
   <g id="LineCollection_5">
    <path d="M 363.085714 133.92 
L 522.514286 133.92 
" clip-path="url(#p7563d96de1)" style="fill: none; stroke: #b8860b; stroke-width: 2"/>
   </g>
   <g id="LineCollection_6">
    <path d="M 363.085714 673.529466 
L 522.514286 673.529466 
" clip-path="url(#p7563d96de1)" style="fill: none; stroke: #00ff00; stroke-width: 2"/>
   </g>
   <g id="line2d_8">
    <path clip-path="url(#p7563d96de1)" style="fill: none; stroke: #00ced1; stroke-width: 2; stroke-linecap: square"/>
   </g>
   <g id="line2d_9">
    <path d="M 283.371429 496.668168 
L 602.228571 225.068456 
" clip-path="url(#p7563d96de1)" style="fill: none; stroke-dasharray: 7.4,3.2; stroke-dashoffset: 0; stroke: #00ced1; stroke-width: 2"/>
   </g>
   <g id="LineCollection_7">
    <path d="M 363.085714 738.72 
L 522.514286 738.72 
" clip-path="url(#p7563d96de1)" style="fill: none; stroke: #800080; stroke-width: 2"/>
   </g>
   <g id="LineCollection_8">
    <path d="M 363.085714 551.689613 
L 522.514286 551.689613 
" clip-path="url(#p7563d96de1)" style="fill: none; stroke: #808000; stroke-width: 2"/>
   </g>
   <g id="line2d_10">
    <path d="M 283.371429 496.668168 
L 363.085714 673.529466 
" clip-path="url(#p7563d96de1)" style="fill: none; stroke-dasharray: 7.4,3.2; stroke-dashoffset: 0; stroke: #00ff00; stroke-width: 2"/>
   </g>
   <g id="line2d_11">
    <path d="M 522.514286 673.529466 
L 602.228571 382.590898 
" clip-path="url(#p7563d96de1)" style="fill: none; stroke-dasharray: 7.4,3.2; stroke-dashoffset: 0; stroke: #00ff00; stroke-width: 2"/>
   </g>
   <g id="line2d_12">
    <path d="M 283.371429 496.668168 
L 363.085714 133.92 
" clip-path="url(#p7563d96de1)" style="fill: none; stroke-dasharray: 7.4,3.2; stroke-dashoffset: 0; stroke: #b8860b; stroke-width: 2"/>
   </g>
   <g id="line2d_13">
    <path d="M 522.514286 133.92 
L 602.228571 382.590898 
" clip-path="url(#p7563d96de1)" style="fill: none; stroke-dasharray: 7.4,3.2; stroke-dashoffset: 0; stroke: #b8860b; stroke-width: 2"/>
   </g>
   <g id="line2d_14">
    <path d="M 283.371429 397.517562 
L 363.085714 738.72 
" clip-path="url(#p7563d96de1)" style="fill: none; stroke-dasharray: 7.4,3.2; stroke-dashoffset: 0; stroke: #800080; stroke-width: 2"/>
   </g>
   <g id="line2d_15">
    <path d="M 522.514286 738.72 
L 602.228571 382.590898 
" clip-path="url(#p7563d96de1)" style="fill: none; stroke-dasharray: 7.4,3.2; stroke-dashoffset: 0; stroke: #800080; stroke-width: 2"/>
   </g>
   <g id="line2d_16">
    <path d="M 283.371429 397.517562 
L 363.085714 551.689613 
" clip-path="url(#p7563d96de1)" style="fill: none; stroke-dasharray: 7.4,3.2; stroke-dashoffset: 0; stroke: #808000; stroke-width: 2"/>
   </g>
   <g id="line2d_17">
    <path d="M 522.514286 551.689613 
L 602.228571 382.590898 
" clip-path="url(#p7563d96de1)" style="fill: none; stroke-dasharray: 7.4,3.2; stroke-dashoffset: 0; stroke: #808000; stroke-width: 2"/>
   </g>
   <g id="patch_3">
    <path d="M 108 768.96 
L 108 103.68 
" style="fill: none; stroke: #000000; stroke-width: 0.8; stroke-linejoin: miter; stroke-linecap: square"/>
   </g>
   <g id="text_9">
    <!-- P$^+$ ($^3$P) + D$_2$ (X$^1\Sigma^+$) -->
    <g transform="translate(131.914286 510.767346) scale(0.12 -0.12)">
     <defs>
      <path id="DejaVuSans-50" d="M 1259 4147 
L 1259 2394 
L 2053 2394 
Q 2494 2394 2734 2622 
Q 2975 2850 2975 3272 
Q 2975 3691 2734 3919 
Q 2494 4147 2053 4147 
L 1259 4147 
z
M 628 4666 
L 2053 4666 
Q 2838 4666 3239 4311 
Q 3641 3956 3641 3272 
Q 3641 2581 3239 2228 
Q 2838 1875 2053 1875 
L 1259 1875 
L 1259 0 
L 628 0 
L 628 4666 
z
" transform="scale(0.015625)"/>
      <path id="DejaVuSans-2b" d="M 2944 4013 
L 2944 2272 
L 4684 2272 
L 4684 1741 
L 2944 1741 
L 2944 0 
L 2419 0 
L 2419 1741 
L 678 1741 
L 678 2272 
L 2419 2272 
L 2419 4013 
L 2944 4013 
z
" transform="scale(0.015625)"/>
      <path id="DejaVuSans-44" d="M 1259 4147 
L 1259 519 
L 2022 519 
Q 2988 519 3436 956 
Q 3884 1394 3884 2338 
Q 3884 3275 3436 3711 
Q 2988 4147 2022 4147 
L 1259 4147 
z
M 628 4666 
L 1925 4666 
Q 3281 4666 3915 4102 
Q 4550 3538 4550 2338 
Q 4550 1131 3912 565 
Q 3275 0 1925 0 
L 628 0 
L 628 4666 
z
" transform="scale(0.015625)"/>
      <path id="DejaVuSans-58" d="M 403 4666 
L 1081 4666 
L 2241 2931 
L 3406 4666 
L 4084 4666 
L 2584 2425 
L 4184 0 
L 3506 0 
L 2194 1984 
L 872 0 
L 191 0 
L 1856 2491 
L 403 4666 
z
" transform="scale(0.015625)"/>
      <path id="DejaVuSans-3a3" d="M 1353 531 
L 3634 531 
L 3634 0 
L 628 0 
L 628 531 
L 2125 2481 
L 628 4134 
L 628 4666 
L 3578 4666 
L 3578 4134 
L 1353 4134 
L 2850 2494 
L 1353 531 
z
" transform="scale(0.015625)"/>
     </defs>
     <use xlink:href="#DejaVuSans-50" transform="translate(0 0.765625)"/>
     <use xlink:href="#DejaVuSans-2b" transform="translate(74.897461 39.046875) scale(0.7)"/>
     <use xlink:href="#DejaVuSans-20" transform="translate(149.921875 0.765625)"/>
     <use xlink:href="#DejaVuSans-28" transform="translate(181.708984 0.765625)"/>
     <use xlink:href="#DejaVuSans-33" transform="translate(221.679688 39.046875) scale(0.7)"/>
     <use xlink:href="#DejaVuSans-50" transform="translate(268.950195 0.765625)"/>
     <use xlink:href="#DejaVuSans-29" transform="translate(329.25293 0.765625)"/>
     <use xlink:href="#DejaVuSans-20" transform="translate(368.266602 0.765625)"/>
     <use xlink:href="#DejaVuSans-2b" transform="translate(400.053711 0.765625)"/>
     <use xlink:href="#DejaVuSans-20" transform="translate(483.842773 0.765625)"/>
     <use xlink:href="#DejaVuSans-44" transform="translate(515.629883 0.765625)"/>
     <use xlink:href="#DejaVuSans-32" transform="translate(593.588867 -15.640625) scale(0.7)"/>
     <use xlink:href="#DejaVuSans-20" transform="translate(640.859375 0.765625)"/>
     <use xlink:href="#DejaVuSans-28" transform="translate(672.646484 0.765625)"/>
     <use xlink:href="#DejaVuSans-58" transform="translate(711.660156 0.765625)"/>
     <use xlink:href="#DejaVuSans-31" transform="translate(781.123047 39.046875) scale(0.7)"/>
     <use xlink:href="#DejaVuSans-3a3" transform="translate(828.393555 0.765625)"/>
     <use xlink:href="#DejaVuSans-2b" transform="translate(906.171875 39.046875) scale(0.7)"/>
     <use xlink:href="#DejaVuSans-29" transform="translate(981.196289 0.765625)"/>
    </g>
   </g>
   <g id="text_10">
    <!-- P$^+$ ($^1$D) + D$_2$ (X$^1\Sigma^+$) -->
    <g style="fill: #830808" transform="translate(131.914286 411.61674) scale(0.12 -0.12)">
     <use xlink:href="#DejaVuSans-50" transform="translate(0 0.684375)"/>
     <use xlink:href="#DejaVuSans-2b" transform="translate(74.897461 38.965625) scale(0.7)"/>
     <use xlink:href="#DejaVuSans-20" transform="translate(149.921875 0.684375)"/>
     <use xlink:href="#DejaVuSans-28" transform="translate(181.708984 0.684375)"/>
     <use xlink:href="#DejaVuSans-31" transform="translate(221.679688 38.965625) scale(0.7)"/>
     <use xlink:href="#DejaVuSans-44" transform="translate(268.950195 0.684375)"/>
     <use xlink:href="#DejaVuSans-29" transform="translate(345.952148 0.684375)"/>
     <use xlink:href="#DejaVuSans-20" transform="translate(384.96582 0.684375)"/>
     <use xlink:href="#DejaVuSans-2b" transform="translate(416.75293 0.684375)"/>
     <use xlink:href="#DejaVuSans-20" transform="translate(500.541992 0.684375)"/>
     <use xlink:href="#DejaVuSans-44" transform="translate(532.329102 0.684375)"/>
     <use xlink:href="#DejaVuSans-32" transform="translate(610.288086 -15.721875) scale(0.7)"/>
     <use xlink:href="#DejaVuSans-20" transform="translate(657.558594 0.684375)"/>
     <use xlink:href="#DejaVuSans-28" transform="translate(689.345703 0.684375)"/>
     <use xlink:href="#DejaVuSans-58" transform="translate(728.359375 0.684375)"/>
     <use xlink:href="#DejaVuSans-31" transform="translate(797.822266 38.965625) scale(0.7)"/>
     <use xlink:href="#DejaVuSans-3a3" transform="translate(845.092773 0.684375)"/>
     <use xlink:href="#DejaVuSans-2b" transform="translate(922.871094 38.965625) scale(0.7)"/>
     <use xlink:href="#DejaVuSans-29" transform="translate(997.895508 0.684375)"/>
    </g>
   </g>
   <g id="text_11">
    <!-- PD$^+$ (X$^2\Pi$) + D ($^2$S) -->
    <g style="fill: #ff0000" transform="translate(610.2 396.690076) scale(0.12 -0.12)">
     <defs>
      <path id="DejaVuSans-3a0" d="M 4184 4666 
L 4184 0 
L 3553 0 
L 3553 4134 
L 1259 4134 
L 1259 0 
L 628 0 
L 628 4666 
L 4184 4666 
z
" transform="scale(0.015625)"/>
      <path id="DejaVuSans-53" d="M 3425 4513 
L 3425 3897 
Q 3066 4069 2747 4153 
Q 2428 4238 2131 4238 
Q 1616 4238 1336 4038 
Q 1056 3838 1056 3469 
Q 1056 3159 1242 3001 
Q 1428 2844 1947 2747 
L 2328 2669 
Q 3034 2534 3370 2195 
Q 3706 1856 3706 1288 
Q 3706 609 3251 259 
Q 2797 -91 1919 -91 
Q 1588 -91 1214 -16 
Q 841 59 441 206 
L 441 856 
Q 825 641 1194 531 
Q 1563 422 1919 422 
Q 2459 422 2753 634 
Q 3047 847 3047 1241 
Q 3047 1584 2836 1778 
Q 2625 1972 2144 2069 
L 1759 2144 
Q 1053 2284 737 2584 
Q 422 2884 422 3419 
Q 422 4038 858 4394 
Q 1294 4750 2059 4750 
Q 2388 4750 2728 4690 
Q 3069 4631 3425 4513 
z
" transform="scale(0.015625)"/>
     </defs>
     <use xlink:href="#DejaVuSans-50" transform="translate(0 0.765625)"/>
     <use xlink:href="#DejaVuSans-44" transform="translate(60.302734 0.765625)"/>
     <use xlink:href="#DejaVuSans-2b" transform="translate(151.899414 39.046875) scale(0.7)"/>
     <use xlink:href="#DejaVuSans-20" transform="translate(226.923828 0.765625)"/>
     <use xlink:href="#DejaVuSans-28" transform="translate(258.710938 0.765625)"/>
     <use xlink:href="#DejaVuSans-58" transform="translate(297.724609 0.765625)"/>
     <use xlink:href="#DejaVuSans-32" transform="translate(367.1875 39.046875) scale(0.7)"/>
     <use xlink:href="#DejaVuSans-3a0" transform="translate(414.458008 0.765625)"/>
     <use xlink:href="#DejaVuSans-29" transform="translate(489.65332 0.765625)"/>
     <use xlink:href="#DejaVuSans-20" transform="translate(528.666992 0.765625)"/>
     <use xlink:href="#DejaVuSans-2b" transform="translate(560.454102 0.765625)"/>
     <use xlink:href="#DejaVuSans-20" transform="translate(644.243164 0.765625)"/>
     <use xlink:href="#DejaVuSans-44" transform="translate(676.030273 0.765625)"/>
     <use xlink:href="#DejaVuSans-20" transform="translate(753.032227 0.765625)"/>
     <use xlink:href="#DejaVuSans-28" transform="translate(784.819336 0.765625)"/>
     <use xlink:href="#DejaVuSans-32" transform="translate(824.790039 39.046875) scale(0.7)"/>
     <use xlink:href="#DejaVuSans-53" transform="translate(872.060547 0.765625)"/>
     <use xlink:href="#DejaVuSans-29" transform="translate(935.537109 0.765625)"/>
    </g>
   </g>
   <g id="text_12">
    <!-- PD$^+$ (a$^4\Sigma^-$) + D ($^2$S) -->
    <g style="fill: #0000ff" transform="translate(610.2 239.167634) scale(0.12 -0.12)">
     <defs>
      <path id="DejaVuSans-61" d="M 2194 1759 
Q 1497 1759 1228 1600 
Q 959 1441 959 1056 
Q 959 750 1161 570 
Q 1363 391 1709 391 
Q 2188 391 2477 730 
Q 2766 1069 2766 1631 
L 2766 1759 
L 2194 1759 
z
M 3341 1997 
L 3341 0 
L 2766 0 
L 2766 531 
Q 2569 213 2275 61 
Q 1981 -91 1556 -91 
Q 1019 -91 701 211 
Q 384 513 384 1019 
Q 384 1609 779 1909 
Q 1175 2209 1959 2209 
L 2766 2209 
L 2766 2266 
Q 2766 2663 2505 2880 
Q 2244 3097 1772 3097 
Q 1472 3097 1187 3025 
Q 903 2953 641 2809 
L 641 3341 
Q 956 3463 1253 3523 
Q 1550 3584 1831 3584 
Q 2591 3584 2966 3190 
Q 3341 2797 3341 1997 
z
" transform="scale(0.015625)"/>
     </defs>
     <use xlink:href="#DejaVuSans-50" transform="translate(0 0.765625)"/>
     <use xlink:href="#DejaVuSans-44" transform="translate(60.302734 0.765625)"/>
     <use xlink:href="#DejaVuSans-2b" transform="translate(151.899414 39.046875) scale(0.7)"/>
     <use xlink:href="#DejaVuSans-20" transform="translate(226.923828 0.765625)"/>
     <use xlink:href="#DejaVuSans-28" transform="translate(258.710938 0.765625)"/>
     <use xlink:href="#DejaVuSans-61" transform="translate(297.724609 0.765625)"/>
     <use xlink:href="#DejaVuSans-34" transform="translate(359.960938 39.046875) scale(0.7)"/>
     <use xlink:href="#DejaVuSans-3a3" transform="translate(407.231445 0.765625)"/>
     <use xlink:href="#DejaVuSans-2212" transform="translate(485.009766 39.046875) scale(0.7)"/>
     <use xlink:href="#DejaVuSans-29" transform="translate(560.03418 0.765625)"/>
     <use xlink:href="#DejaVuSans-20" transform="translate(599.047852 0.765625)"/>
     <use xlink:href="#DejaVuSans-2b" transform="translate(630.834961 0.765625)"/>
     <use xlink:href="#DejaVuSans-20" transform="translate(714.624023 0.765625)"/>
     <use xlink:href="#DejaVuSans-44" transform="translate(746.411133 0.765625)"/>
     <use xlink:href="#DejaVuSans-20" transform="translate(823.413086 0.765625)"/>
     <use xlink:href="#DejaVuSans-28" transform="translate(855.200195 0.765625)"/>
     <use xlink:href="#DejaVuSans-32" transform="translate(895.170898 39.046875) scale(0.7)"/>
     <use xlink:href="#DejaVuSans-53" transform="translate(942.441406 0.765625)"/>
     <use xlink:href="#DejaVuSans-29" transform="translate(1005.917969 0.765625)"/>
    </g>
   </g>
   <g id="text_13">
    <!-- PD$_2^+$ (1$^1$A') -->
    <g style="fill: #800080" transform="translate(410.914286 734.020274) scale(0.12 -0.12)">
     <defs>
      <path id="DejaVuSans-41" d="M 2188 4044 
L 1331 1722 
L 3047 1722 
L 2188 4044 
z
M 1831 4666 
L 2547 4666 
L 4325 0 
L 3669 0 
L 3244 1197 
L 1141 1197 
L 716 0 
L 50 0 
L 1831 4666 
z
" transform="scale(0.015625)"/>
      <path id="DejaVuSans-27" d="M 1147 4666 
L 1147 2931 
L 616 2931 
L 616 4666 
L 1147 4666 
z
" transform="scale(0.015625)"/>
     </defs>
     <use xlink:href="#DejaVuSans-50" transform="translate(0 0.684375)"/>
     <use xlink:href="#DejaVuSans-44" transform="translate(60.302734 0.684375)"/>
     <use xlink:href="#DejaVuSans-2b" transform="translate(151.899414 38.965625) scale(0.7)"/>
     <use xlink:href="#DejaVuSans-32" transform="translate(138.261719 -26.659375) scale(0.7)"/>
     <use xlink:href="#DejaVuSans-20" transform="translate(226.923828 0.684375)"/>
     <use xlink:href="#DejaVuSans-28" transform="translate(258.710938 0.684375)"/>
     <use xlink:href="#DejaVuSans-31" transform="translate(297.724609 0.684375)"/>
     <use xlink:href="#DejaVuSans-31" transform="translate(362.304688 38.965625) scale(0.7)"/>
     <use xlink:href="#DejaVuSans-41" transform="translate(409.575195 0.684375)"/>
     <use xlink:href="#DejaVuSans-27" transform="translate(477.983398 0.684375)"/>
     <use xlink:href="#DejaVuSans-29" transform="translate(505.473633 0.684375)"/>
    </g>
   </g>
   <g id="text_14">
    <!-- PD$_2^+$ (1$^1$A'') -->
    <g style="fill: #808000" transform="translate(410.914286 546.989887) scale(0.12 -0.12)">
     <use xlink:href="#DejaVuSans-50" transform="translate(0 0.684375)"/>
     <use xlink:href="#DejaVuSans-44" transform="translate(60.302734 0.684375)"/>
     <use xlink:href="#DejaVuSans-2b" transform="translate(151.899414 38.965625) scale(0.7)"/>
     <use xlink:href="#DejaVuSans-32" transform="translate(138.261719 -26.659375) scale(0.7)"/>
     <use xlink:href="#DejaVuSans-20" transform="translate(226.923828 0.684375)"/>
     <use xlink:href="#DejaVuSans-28" transform="translate(258.710938 0.684375)"/>
     <use xlink:href="#DejaVuSans-31" transform="translate(297.724609 0.684375)"/>
     <use xlink:href="#DejaVuSans-31" transform="translate(362.304688 38.965625) scale(0.7)"/>
     <use xlink:href="#DejaVuSans-41" transform="translate(409.575195 0.684375)"/>
     <use xlink:href="#DejaVuSans-27" transform="translate(477.983398 0.684375)"/>
     <use xlink:href="#DejaVuSans-27" transform="translate(505.473633 0.684375)"/>
     <use xlink:href="#DejaVuSans-29" transform="translate(532.963867 0.684375)"/>
    </g>
   </g>
   <g id="text_15">
    <!-- PD$_2^+$ (1$^3$A'') -->
    <g style="fill: #00ff00" transform="translate(410.914286 668.82974) scale(0.12 -0.12)">
     <use xlink:href="#DejaVuSans-50" transform="translate(0 0.765625)"/>
     <use xlink:href="#DejaVuSans-44" transform="translate(60.302734 0.765625)"/>
     <use xlink:href="#DejaVuSans-2b" transform="translate(151.899414 39.046875) scale(0.7)"/>
     <use xlink:href="#DejaVuSans-32" transform="translate(138.261719 -26.578125) scale(0.7)"/>
     <use xlink:href="#DejaVuSans-20" transform="translate(226.923828 0.765625)"/>
     <use xlink:href="#DejaVuSans-28" transform="translate(258.710938 0.765625)"/>
     <use xlink:href="#DejaVuSans-31" transform="translate(297.724609 0.765625)"/>
     <use xlink:href="#DejaVuSans-33" transform="translate(362.304688 39.046875) scale(0.7)"/>
     <use xlink:href="#DejaVuSans-41" transform="translate(409.575195 0.765625)"/>
     <use xlink:href="#DejaVuSans-27" transform="translate(477.983398 0.765625)"/>
     <use xlink:href="#DejaVuSans-27" transform="translate(505.473633 0.765625)"/>
     <use xlink:href="#DejaVuSans-29" transform="translate(532.963867 0.765625)"/>
    </g>
   </g>
   <g id="text_16">
    <!-- PD$_2^+$ (1$^3$A') -->
    <g style="fill: #b8860b" transform="translate(410.914286 129.220274) scale(0.12 -0.12)">
     <use xlink:href="#DejaVuSans-50" transform="translate(0 0.765625)"/>
     <use xlink:href="#DejaVuSans-44" transform="translate(60.302734 0.765625)"/>
     <use xlink:href="#DejaVuSans-2b" transform="translate(151.899414 39.046875) scale(0.7)"/>
     <use xlink:href="#DejaVuSans-32" transform="translate(138.261719 -26.578125) scale(0.7)"/>
     <use xlink:href="#DejaVuSans-20" transform="translate(226.923828 0.765625)"/>
     <use xlink:href="#DejaVuSans-28" transform="translate(258.710938 0.765625)"/>
     <use xlink:href="#DejaVuSans-31" transform="translate(297.724609 0.765625)"/>
     <use xlink:href="#DejaVuSans-33" transform="translate(362.304688 39.046875) scale(0.7)"/>
     <use xlink:href="#DejaVuSans-41" transform="translate(409.575195 0.765625)"/>
     <use xlink:href="#DejaVuSans-27" transform="translate(477.983398 0.765625)"/>
     <use xlink:href="#DejaVuSans-29" transform="translate(505.473633 0.765625)"/>
    </g>
   </g>
   <g id="text_17">
    <!-- PD$_2^+$ (2$^3$A'') -->
    <g style="fill: #00ced1" transform="translate(410.914286 318.07858) scale(0.12 -0.12)">
     <use xlink:href="#DejaVuSans-50" transform="translate(0 0.765625)"/>
     <use xlink:href="#DejaVuSans-44" transform="translate(60.302734 0.765625)"/>
     <use xlink:href="#DejaVuSans-2b" transform="translate(151.899414 39.046875) scale(0.7)"/>
     <use xlink:href="#DejaVuSans-32" transform="translate(138.261719 -26.578125) scale(0.7)"/>
     <use xlink:href="#DejaVuSans-20" transform="translate(226.923828 0.765625)"/>
     <use xlink:href="#DejaVuSans-28" transform="translate(258.710938 0.765625)"/>
     <use xlink:href="#DejaVuSans-32" transform="translate(297.724609 0.765625)"/>
     <use xlink:href="#DejaVuSans-33" transform="translate(362.304688 39.046875) scale(0.7)"/>
     <use xlink:href="#DejaVuSans-41" transform="translate(409.575195 0.765625)"/>
     <use xlink:href="#DejaVuSans-27" transform="translate(477.983398 0.765625)"/>
     <use xlink:href="#DejaVuSans-27" transform="translate(505.473633 0.765625)"/>
     <use xlink:href="#DejaVuSans-29" transform="translate(532.963867 0.765625)"/>
    </g>
   </g>
  </g>
 </g>
 <defs>
  <clipPath id="p7563d96de1">
   <rect x="108" y="103.68" width="669.6" height="665.28"/>
  </clipPath>
 </defs>
</svg>
