<?xml version="1.0" encoding="utf-8" standalone="no"?>
<!DOCTYPE svg PUBLIC "-//W3C//DTD SVG 1.1//EN"
  "http://www.w3.org/Graphics/SVG/1.1/DTD/svg11.dtd">
<svg xmlns:xlink="http://www.w3.org/1999/xlink" width="1080pt" height="720pt" viewBox="0 0 1080 720" xmlns="http://www.w3.org/2000/svg" version="1.1">
 <metadata>
  <rdf:RDF xmlns:dc="http://purl.org/dc/elements/1.1/" xmlns:cc="http://creativecommons.org/ns#" xmlns:rdf="http://www.w3.org/1999/02/22-rdf-syntax-ns#">
   <cc:Work>
    <dc:type rdf:resource="http://purl.org/dc/dcmitype/StillImage"/>
    <dc:date>2025-10-10T18:53:05.796365</dc:date>
    <dc:format>image/svg+xml</dc:format>
    <dc:creator>
     <cc:Agent>
      <dc:title>Matplotlib v3.10.0, https://matplotlib.org/</dc:title>
     </cc:Agent>
    </dc:creator>
   </cc:Work>
  </rdf:RDF>
 </metadata>
 <defs>
  <style type="text/css">*{stroke-linejoin: round; stroke-linecap: butt}</style>
 </defs>
 <g id="figure_1">
  <g id="patch_1">
   <path d="M 0 720 
L 1080 720 
L 1080 0 
L 0 0 
L 0 720 
z
" style="fill: none"/>
  </g>
  <g id="axes_1">
   <g id="patch_2">
    <path d="M 92.72 696.858346 
L 1060.56 696.858346 
L 1060.56 19.44 
L 92.72 19.44 
L 92.72 696.858346 
z
" style="fill: none"/>
   </g>
   <g id="matplotlib.axis_1"/>
   <g id="matplotlib.axis_2">
    <g id="ytick_1">
     <g id="line2d_1">
      <defs>
       <path id="m31fb24193c" d="M 0 0 
L -3.5 0 
" style="stroke: #000000; stroke-width: 0.8"/>
      </defs>
      <g>
       <use xlink:href="#m31fb24193c" x="92.72" y="681.146803" style="stroke: #000000; stroke-width: 0.8"/>
      </g>
     </g>
     <g id="text_1">
      <!-- −2 -->
      <g transform="translate(51.515313 691.883522) scale(0.3 -0.3)">
       <defs>
        <path id="ArialMT-2212" d="M 3381 1997 
L 356 1997 
L 356 2522 
L 3381 2522 
L 3381 1997 
z
" transform="scale(0.015625)"/>
        <path id="ArialMT-32" d="M 3222 541 
L 3222 0 
L 194 0 
Q 188 203 259 391 
Q 375 700 629 1000 
Q 884 1300 1366 1694 
Q 2113 2306 2375 2664 
Q 2638 3022 2638 3341 
Q 2638 3675 2398 3904 
Q 2159 4134 1775 4134 
Q 1369 4134 1125 3890 
Q 881 3647 878 3216 
L 300 3275 
Q 359 3922 746 4261 
Q 1134 4600 1788 4600 
Q 2447 4600 2831 4234 
Q 3216 3869 3216 3328 
Q 3216 3053 3103 2787 
Q 2991 2522 2730 2228 
Q 2469 1934 1863 1422 
Q 1356 997 1212 845 
Q 1069 694 975 541 
L 3222 541 
z
" transform="scale(0.015625)"/>
       </defs>
       <use xlink:href="#ArialMT-2212"/>
       <use xlink:href="#ArialMT-32" transform="translate(58.398438 0)"/>
      </g>
     </g>
    </g>
    <g id="ytick_2">
     <g id="line2d_2">
      <g>
       <use xlink:href="#m31fb24193c" x="92.72" y="553.766415" style="stroke: #000000; stroke-width: 0.8"/>
      </g>
     </g>
     <g id="text_2">
      <!-- −1 -->
      <g transform="translate(51.515313 564.503134) scale(0.3 -0.3)">
       <defs>
        <path id="ArialMT-31" d="M 2384 0 
L 1822 0 
L 1822 3584 
Q 1619 3391 1289 3197 
Q 959 3003 697 2906 
L 697 3450 
Q 1169 3672 1522 3987 
Q 1875 4303 2022 4600 
L 2384 4600 
L 2384 0 
z
" transform="scale(0.015625)"/>
       </defs>
       <use xlink:href="#ArialMT-2212"/>
       <use xlink:href="#ArialMT-31" transform="translate(58.398438 0)"/>
      </g>
     </g>
    </g>
    <g id="ytick_3">
     <g id="line2d_3">
      <g>
       <use xlink:href="#m31fb24193c" x="92.72" y="426.386028" style="stroke: #000000; stroke-width: 0.8"/>
      </g>
     </g>
     <g id="text_3">
      <!-- 0 -->
      <g transform="translate(69.037188 437.122746) scale(0.3 -0.3)">
       <defs>
        <path id="ArialMT-30" d="M 266 2259 
Q 266 3072 433 3567 
Q 600 4063 929 4331 
Q 1259 4600 1759 4600 
Q 2128 4600 2406 4451 
Q 2684 4303 2865 4023 
Q 3047 3744 3150 3342 
Q 3253 2941 3253 2259 
Q 3253 1453 3087 958 
Q 2922 463 2592 192 
Q 2263 -78 1759 -78 
Q 1097 -78 719 397 
Q 266 969 266 2259 
z
M 844 2259 
Q 844 1131 1108 757 
Q 1372 384 1759 384 
Q 2147 384 2411 759 
Q 2675 1134 2675 2259 
Q 2675 3391 2411 3762 
Q 2147 4134 1753 4134 
Q 1366 4134 1134 3806 
Q 844 3388 844 2259 
z
" transform="scale(0.015625)"/>
       </defs>
       <use xlink:href="#ArialMT-30"/>
      </g>
     </g>
    </g>
    <g id="ytick_4">
     <g id="line2d_4">
      <g>
       <use xlink:href="#m31fb24193c" x="92.72" y="299.00564" style="stroke: #000000; stroke-width: 0.8"/>
      </g>
     </g>
     <g id="text_4">
      <!-- 1 -->
      <g transform="translate(69.037188 309.742359) scale(0.3 -0.3)">
       <use xlink:href="#ArialMT-31"/>
      </g>
     </g>
    </g>
    <g id="ytick_5">
     <g id="line2d_5">
      <g>
       <use xlink:href="#m31fb24193c" x="92.72" y="171.625252" style="stroke: #000000; stroke-width: 0.8"/>
      </g>
     </g>
     <g id="text_5">
      <!-- 2 -->
      <g transform="translate(69.037188 182.361971) scale(0.3 -0.3)">
       <use xlink:href="#ArialMT-32"/>
      </g>
     </g>
    </g>
    <g id="ytick_6">
     <g id="line2d_6">
      <g>
       <use xlink:href="#m31fb24193c" x="92.72" y="44.244865" style="stroke: #000000; stroke-width: 0.8"/>
      </g>
     </g>
     <g id="text_6">
      <!-- 3 -->
      <g transform="translate(69.037188 54.981584) scale(0.3 -0.3)">
       <defs>
        <path id="ArialMT-33" d="M 269 1209 
L 831 1284 
Q 928 806 1161 595 
Q 1394 384 1728 384 
Q 2125 384 2398 659 
Q 2672 934 2672 1341 
Q 2672 1728 2419 1979 
Q 2166 2231 1775 2231 
Q 1616 2231 1378 2169 
L 1441 2663 
Q 1497 2656 1531 2656 
Q 1891 2656 2178 2843 
Q 2466 3031 2466 3422 
Q 2466 3731 2256 3934 
Q 2047 4138 1716 4138 
Q 1388 4138 1169 3931 
Q 950 3725 888 3313 
L 325 3413 
Q 428 3978 793 4289 
Q 1159 4600 1703 4600 
Q 2078 4600 2393 4439 
Q 2709 4278 2876 4000 
Q 3044 3722 3044 3409 
Q 3044 3113 2884 2869 
Q 2725 2625 2413 2481 
Q 2819 2388 3044 2092 
Q 3269 1797 3269 1353 
Q 3269 753 2831 336 
Q 2394 -81 1725 -81 
Q 1122 -81 723 278 
Q 325 638 269 1209 
z
" transform="scale(0.015625)"/>
       </defs>
       <use xlink:href="#ArialMT-33"/>
      </g>
     </g>
    </g>
    <g id="text_7">
     <!-- E (eV) -->
     <g transform="translate(41.20125 400.657767) rotate(-90) scale(0.3 -0.3)">
      <defs>
       <path id="ArialMT-45" d="M 506 0 
L 506 4581 
L 3819 4581 
L 3819 4041 
L 1113 4041 
L 1113 2638 
L 3647 2638 
L 3647 2100 
L 1113 2100 
L 1113 541 
L 3925 541 
L 3925 0 
L 506 0 
z
" transform="scale(0.015625)"/>
       <path id="ArialMT-20" transform="scale(0.015625)"/>
       <path id="ArialMT-28" d="M 1497 -1347 
Q 1031 -759 709 28 
Q 388 816 388 1659 
Q 388 2403 628 3084 
Q 909 3875 1497 4659 
L 1900 4659 
Q 1522 4009 1400 3731 
Q 1209 3300 1100 2831 
Q 966 2247 966 1656 
Q 966 153 1900 -1347 
L 1497 -1347 
z
" transform="scale(0.015625)"/>
       <path id="ArialMT-65" d="M 2694 1069 
L 3275 997 
Q 3138 488 2766 206 
Q 2394 -75 1816 -75 
Q 1088 -75 661 373 
Q 234 822 234 1631 
Q 234 2469 665 2931 
Q 1097 3394 1784 3394 
Q 2450 3394 2872 2941 
Q 3294 2488 3294 1666 
Q 3294 1616 3291 1516 
L 816 1516 
Q 847 969 1125 678 
Q 1403 388 1819 388 
Q 2128 388 2347 550 
Q 2566 713 2694 1069 
z
M 847 1978 
L 2700 1978 
Q 2663 2397 2488 2606 
Q 2219 2931 1791 2931 
Q 1403 2931 1139 2672 
Q 875 2413 847 1978 
z
" transform="scale(0.015625)"/>
       <path id="ArialMT-56" d="M 1803 0 
L 28 4581 
L 684 4581 
L 1875 1253 
Q 2019 853 2116 503 
Q 2222 878 2363 1253 
L 3600 4581 
L 4219 4581 
L 2425 0 
L 1803 0 
z
" transform="scale(0.015625)"/>
       <path id="ArialMT-29" d="M 791 -1347 
L 388 -1347 
Q 1322 153 1322 1656 
Q 1322 2244 1188 2822 
Q 1081 3291 891 3722 
Q 769 4003 388 4659 
L 791 4659 
Q 1378 3875 1659 3084 
Q 1900 2403 1900 1659 
Q 1900 816 1576 28 
Q 1253 -759 791 -1347 
z
" transform="scale(0.015625)"/>
      </defs>
      <use xlink:href="#ArialMT-45"/>
      <use xlink:href="#ArialMT-20" transform="translate(66.699219 0)"/>
      <use xlink:href="#ArialMT-28" transform="translate(94.482422 0)"/>
      <use xlink:href="#ArialMT-65" transform="translate(127.783203 0)"/>
      <use xlink:href="#ArialMT-56" transform="translate(183.398438 0)"/>
      <use xlink:href="#ArialMT-29" transform="translate(250.097656 0)"/>
     </g>
    </g>
   </g>
   <g id="LineCollection_1">
    <path d="M 93.309428 426.386028 
L 234.772034 426.386028 
" clip-path="url(#p16802ec25e)" style="fill: none; stroke: #000000; stroke-width: 2"/>
   </g>
   <g id="LineCollection_2">
    <path d="M 847.776663 271.540477 
L 989.239269 271.540477 
" clip-path="url(#p16802ec25e)" style="fill: none; stroke: #000000; stroke-width: 3"/>
   </g>
   <g id="LineCollection_3">
    <path d="M 847.776663 60.14385 
L 989.239269 60.14385 
" clip-path="url(#p16802ec25e)" style="fill: none; stroke: #000000; stroke-width: 3"/>
   </g>
   <g id="LineCollection_4">
    <path d="M 470.543045 266.125054 
L 612.005652 266.125054 
" clip-path="url(#p16802ec25e)" style="fill: none; stroke: #b8860b; stroke-width: 3"/>
   </g>
   <g id="line2d_7">
    <path d="M 234.772034 426.386028 
L 470.543045 266.125054 
" clip-path="url(#p16802ec25e)" style="fill: none; stroke-dasharray: 3,4.95; stroke-dashoffset: 0; stroke: #b8860b; stroke-width: 3"/>
   </g>
   <g id="line2d_8">
    <path d="M 612.005652 266.125054 
L 847.776663 271.540477 
" clip-path="url(#p16802ec25e)" style="fill: none; stroke-dasharray: 3,4.95; stroke-dashoffset: 0; stroke: #b8860b; stroke-width: 3"/>
   </g>
   <g id="LineCollection_5">
    <path d="M 281.926236 559.389974 
L 423.388843 559.389974 
" clip-path="url(#p16802ec25e)" style="fill: none; stroke: #00ff00; stroke-width: 3"/>
   </g>
   <g id="LineCollection_6">
    <path d="M 470.543045 446.152682 
L 612.005652 446.152682 
" clip-path="url(#p16802ec25e)" style="fill: none; stroke: #00ff00; stroke-width: 3"/>
   </g>
   <g id="LineCollection_7">
    <path d="M 659.159854 666.066603 
L 800.62246 666.066603 
" clip-path="url(#p16802ec25e)" style="fill: none; stroke: #00ff00; stroke-width: 3"/>
   </g>
   <g id="line2d_9">
    <path d="M 234.772034 426.386028 
L 281.926236 559.389974 
" clip-path="url(#p16802ec25e)" style="fill: none; stroke-dasharray: 3,4.95; stroke-dashoffset: 0; stroke: #00ff00; stroke-width: 3"/>
   </g>
   <g id="line2d_10">
    <path d="M 423.388843 559.389974 
L 470.543045 446.152682 
" clip-path="url(#p16802ec25e)" style="fill: none; stroke-dasharray: 3,4.95; stroke-dashoffset: 0; stroke: #00ff00; stroke-width: 3"/>
   </g>
   <g id="line2d_11">
    <path d="M 612.005652 446.152682 
L 659.159854 666.066603 
" clip-path="url(#p16802ec25e)" style="fill: none; stroke-dasharray: 3,4.95; stroke-dashoffset: 0; stroke: #00ff00; stroke-width: 3"/>
   </g>
   <g id="line2d_12">
    <path d="M 800.62246 666.066603 
L 847.776663 271.540477 
" clip-path="url(#p16802ec25e)" style="fill: none; stroke-dasharray: 3,4.95; stroke-dashoffset: 0; stroke: #00ff00; stroke-width: 3"/>
   </g>
   <g id="LineCollection_8">
    <path d="M 364.44609 53.928602 
L 505.908697 53.928602 
" clip-path="url(#p16802ec25e)" style="fill: none; stroke: #00ced1; stroke-width: 3"/>
   </g>
   <g id="LineCollection_9">
    <path d="M 553.062899 406.696831 
L 694.525505 406.696831 
" clip-path="url(#p16802ec25e)" style="fill: none; stroke: #00ced1; stroke-width: 3"/>
   </g>
   <g id="line2d_13">
    <path d="M 234.772034 426.386028 
L 364.44609 53.928602 
" clip-path="url(#p16802ec25e)" style="fill: none; stroke-dasharray: 3,4.95; stroke-dashoffset: 0; stroke: #00ced1; stroke-width: 3"/>
   </g>
   <g id="line2d_14">
    <path d="M 505.908697 53.928602 
L 553.062899 406.696831 
" clip-path="url(#p16802ec25e)" style="fill: none; stroke-dasharray: 3,4.95; stroke-dashoffset: 0; stroke: #00ced1; stroke-width: 3"/>
   </g>
   <g id="line2d_15">
    <path d="M 694.525505 406.696831 
L 847.776663 60.14385 
" clip-path="url(#p16802ec25e)" style="fill: none; stroke-dasharray: 3,4.95; stroke-dashoffset: 0; stroke: #00ced1; stroke-width: 3"/>
   </g>
   <g id="LineCollection_10">
    <path d="M 93.309428 402.056374 
L 234.772034 402.056374 
" clip-path="url(#p16802ec25e)" style="fill: none; stroke-dasharray: 7.4,3.2; stroke-dashoffset: 0; stroke: #000000; stroke-width: 2"/>
   </g>
   <g id="LineCollection_11">
    <path d="M 847.776663 258.498677 
L 989.239269 258.498677 
" clip-path="url(#p16802ec25e)" style="fill: none; stroke-dasharray: 7.4,3.2; stroke-dashoffset: 0; stroke: #000000; stroke-width: 2"/>
   </g>
   <g id="LineCollection_12">
    <path d="M 847.776663 50.231743 
L 989.239269 50.231743 
" clip-path="url(#p16802ec25e)" style="fill: none; stroke-dasharray: 7.4,3.2; stroke-dashoffset: 0; stroke: #000000; stroke-width: 2"/>
   </g>
   <g id="patch_3">
    <path d="M 92.72 696.858346 
L 92.72 19.44 
" style="fill: none; stroke: #000000; stroke-width: 0.8; stroke-linejoin: miter; stroke-linecap: square"/>
   </g>
   <g id="text_8">
    <!-- P$^+$($^3$P)+D$_2$(X$^1\Sigma^+$) -->
    <g transform="translate(93.898855 458.231125) scale(0.2 -0.2)">
     <defs>
      <path id="ArialMT-50" d="M 494 0 
L 494 4581 
L 2222 4581 
Q 2678 4581 2919 4538 
Q 3256 4481 3484 4323 
Q 3713 4166 3852 3881 
Q 3991 3597 3991 3256 
Q 3991 2672 3619 2267 
Q 3247 1863 2275 1863 
L 1100 1863 
L 1100 0 
L 494 0 
z
M 1100 2403 
L 2284 2403 
Q 2872 2403 3119 2622 
Q 3366 2841 3366 3238 
Q 3366 3525 3220 3729 
Q 3075 3934 2838 4000 
Q 2684 4041 2272 4041 
L 1100 4041 
L 1100 2403 
z
" transform="scale(0.015625)"/>
      <path id="DejaVuSans-2b" d="M 2944 4013 
L 2944 2272 
L 4684 2272 
L 4684 1741 
L 2944 1741 
L 2944 0 
L 2419 0 
L 2419 1741 
L 678 1741 
L 678 2272 
L 2419 2272 
L 2419 4013 
L 2944 4013 
z
" transform="scale(0.015625)"/>
      <path id="DejaVuSans-33" d="M 2597 2516 
Q 3050 2419 3304 2112 
Q 3559 1806 3559 1356 
Q 3559 666 3084 287 
Q 2609 -91 1734 -91 
Q 1441 -91 1130 -33 
Q 819 25 488 141 
L 488 750 
Q 750 597 1062 519 
Q 1375 441 1716 441 
Q 2309 441 2620 675 
Q 2931 909 2931 1356 
Q 2931 1769 2642 2001 
Q 2353 2234 1838 2234 
L 1294 2234 
L 1294 2753 
L 1863 2753 
Q 2328 2753 2575 2939 
Q 2822 3125 2822 3475 
Q 2822 3834 2567 4026 
Q 2313 4219 1838 4219 
Q 1578 4219 1281 4162 
Q 984 4106 628 3988 
L 628 4550 
Q 988 4650 1302 4700 
Q 1616 4750 1894 4750 
Q 2613 4750 3031 4423 
Q 3450 4097 3450 3541 
Q 3450 3153 3228 2886 
Q 3006 2619 2597 2516 
z
" transform="scale(0.015625)"/>
      <path id="ArialMT-2b" d="M 1603 741 
L 1603 1997 
L 356 1997 
L 356 2522 
L 1603 2522 
L 1603 3769 
L 2134 3769 
L 2134 2522 
L 3381 2522 
L 3381 1997 
L 2134 1997 
L 2134 741 
L 1603 741 
z
" transform="scale(0.015625)"/>
      <path id="ArialMT-44" d="M 494 0 
L 494 4581 
L 2072 4581 
Q 2606 4581 2888 4516 
Q 3281 4425 3559 4188 
Q 3922 3881 4101 3404 
Q 4281 2928 4281 2316 
Q 4281 1794 4159 1391 
Q 4038 988 3847 723 
Q 3656 459 3429 307 
Q 3203 156 2883 78 
Q 2563 0 2147 0 
L 494 0 
z
M 1100 541 
L 2078 541 
Q 2531 541 2789 625 
Q 3047 709 3200 863 
Q 3416 1078 3536 1442 
Q 3656 1806 3656 2325 
Q 3656 3044 3420 3430 
Q 3184 3816 2847 3947 
Q 2603 4041 2063 4041 
L 1100 4041 
L 1100 541 
z
" transform="scale(0.015625)"/>
      <path id="DejaVuSans-32" d="M 1228 531 
L 3431 531 
L 3431 0 
L 469 0 
L 469 531 
Q 828 903 1448 1529 
Q 2069 2156 2228 2338 
Q 2531 2678 2651 2914 
Q 2772 3150 2772 3378 
Q 2772 3750 2511 3984 
Q 2250 4219 1831 4219 
Q 1534 4219 1204 4116 
Q 875 4013 500 3803 
L 500 4441 
Q 881 4594 1212 4672 
Q 1544 4750 1819 4750 
Q 2544 4750 2975 4387 
Q 3406 4025 3406 3419 
Q 3406 3131 3298 2873 
Q 3191 2616 2906 2266 
Q 2828 2175 2409 1742 
Q 1991 1309 1228 531 
z
" transform="scale(0.015625)"/>
      <path id="ArialMT-58" d="M 28 0 
L 1800 2388 
L 238 4581 
L 959 4581 
L 1791 3406 
Q 2050 3041 2159 2844 
Q 2313 3094 2522 3366 
L 3444 4581 
L 4103 4581 
L 2494 2422 
L 4228 0 
L 3478 0 
L 2325 1634 
Q 2228 1775 2125 1941 
Q 1972 1691 1906 1597 
L 756 0 
L 28 0 
z
" transform="scale(0.015625)"/>
      <path id="DejaVuSans-31" d="M 794 531 
L 1825 531 
L 1825 4091 
L 703 3866 
L 703 4441 
L 1819 4666 
L 2450 4666 
L 2450 531 
L 3481 531 
L 3481 0 
L 794 0 
L 794 531 
z
" transform="scale(0.015625)"/>
      <path id="DejaVuSans-3a3" d="M 1353 531 
L 3634 531 
L 3634 0 
L 628 0 
L 628 531 
L 2125 2481 
L 628 4134 
L 628 4666 
L 3578 4666 
L 3578 4134 
L 1353 4134 
L 2850 2494 
L 1353 531 
z
" transform="scale(0.015625)"/>
     </defs>
     <use xlink:href="#ArialMT-50" transform="translate(0 0.765625)"/>
     <use xlink:href="#DejaVuSans-2b" transform="translate(81.293945 39.046875) scale(0.7)"/>
     <use xlink:href="#ArialMT-28" transform="translate(156.318359 0.765625)"/>
     <use xlink:href="#DejaVuSans-33" transform="translate(190.576172 39.046875) scale(0.7)"/>
     <use xlink:href="#ArialMT-50" transform="translate(237.84668 0.765625)"/>
     <use xlink:href="#ArialMT-29" transform="translate(304.545898 0.765625)"/>
     <use xlink:href="#ArialMT-2b" transform="translate(337.84668 0.765625)"/>
     <use xlink:href="#ArialMT-44" transform="translate(396.245117 0.765625)"/>
     <use xlink:href="#DejaVuSans-32" transform="translate(469.418945 -15.640625) scale(0.7)"/>
     <use xlink:href="#ArialMT-28" transform="translate(516.689453 0.765625)"/>
     <use xlink:href="#ArialMT-58" transform="translate(549.990234 0.765625)"/>
     <use xlink:href="#DejaVuSans-31" transform="translate(617.646484 39.046875) scale(0.7)"/>
     <use xlink:href="#DejaVuSans-3a3" transform="translate(664.916992 0.765625)"/>
     <use xlink:href="#DejaVuSans-2b" transform="translate(742.695312 39.046875) scale(0.7)"/>
     <use xlink:href="#ArialMT-29" transform="translate(817.719727 0.765625)"/>
    </g>
   </g>
   <g id="text_9">
    <!-- PD$^+$(X$^2\Pi$)+D($^2$S) -->
    <g transform="translate(847.776663 303.385574) scale(0.2 -0.2)">
     <defs>
      <path id="DejaVuSans-3a0" d="M 4184 4666 
L 4184 0 
L 3553 0 
L 3553 4134 
L 1259 4134 
L 1259 0 
L 628 0 
L 628 4666 
L 4184 4666 
z
" transform="scale(0.015625)"/>
      <path id="ArialMT-53" d="M 288 1472 
L 859 1522 
Q 900 1178 1048 958 
Q 1197 738 1509 602 
Q 1822 466 2213 466 
Q 2559 466 2825 569 
Q 3091 672 3220 851 
Q 3350 1031 3350 1244 
Q 3350 1459 3225 1620 
Q 3100 1781 2813 1891 
Q 2628 1963 1997 2114 
Q 1366 2266 1113 2400 
Q 784 2572 623 2826 
Q 463 3081 463 3397 
Q 463 3744 659 4045 
Q 856 4347 1234 4503 
Q 1613 4659 2075 4659 
Q 2584 4659 2973 4495 
Q 3363 4331 3572 4012 
Q 3781 3694 3797 3291 
L 3216 3247 
Q 3169 3681 2898 3903 
Q 2628 4125 2100 4125 
Q 1550 4125 1298 3923 
Q 1047 3722 1047 3438 
Q 1047 3191 1225 3031 
Q 1400 2872 2139 2705 
Q 2878 2538 3153 2413 
Q 3553 2228 3743 1945 
Q 3934 1663 3934 1294 
Q 3934 928 3725 604 
Q 3516 281 3123 101 
Q 2731 -78 2241 -78 
Q 1619 -78 1198 103 
Q 778 284 539 648 
Q 300 1013 288 1472 
z
" transform="scale(0.015625)"/>
     </defs>
     <use xlink:href="#ArialMT-50" transform="translate(0 0.765625)"/>
     <use xlink:href="#ArialMT-44" transform="translate(66.699219 0.765625)"/>
     <use xlink:href="#DejaVuSans-2b" transform="translate(153.510742 39.046875) scale(0.7)"/>
     <use xlink:href="#ArialMT-28" transform="translate(228.535156 0.765625)"/>
     <use xlink:href="#ArialMT-58" transform="translate(261.835938 0.765625)"/>
     <use xlink:href="#DejaVuSans-32" transform="translate(329.492188 39.046875) scale(0.7)"/>
     <use xlink:href="#DejaVuSans-3a0" transform="translate(376.762695 0.765625)"/>
     <use xlink:href="#ArialMT-29" transform="translate(451.958008 0.765625)"/>
     <use xlink:href="#ArialMT-2b" transform="translate(485.258789 0.765625)"/>
     <use xlink:href="#ArialMT-44" transform="translate(543.657227 0.765625)"/>
     <use xlink:href="#ArialMT-28" transform="translate(615.874023 0.765625)"/>
     <use xlink:href="#DejaVuSans-32" transform="translate(650.131836 39.046875) scale(0.7)"/>
     <use xlink:href="#ArialMT-53" transform="translate(697.402344 0.765625)"/>
     <use xlink:href="#ArialMT-29" transform="translate(764.101562 0.765625)"/>
    </g>
   </g>
   <g id="text_10">
    <!-- PD$^+$(a$^4\Sigma^-$)+D($^2$S) -->
    <g transform="translate(847.776663 91.988947) scale(0.2 -0.2)">
     <defs>
      <path id="ArialMT-61" d="M 2588 409 
Q 2275 144 1986 34 
Q 1697 -75 1366 -75 
Q 819 -75 525 192 
Q 231 459 231 875 
Q 231 1119 342 1320 
Q 453 1522 633 1644 
Q 813 1766 1038 1828 
Q 1203 1872 1538 1913 
Q 2219 1994 2541 2106 
Q 2544 2222 2544 2253 
Q 2544 2597 2384 2738 
Q 2169 2928 1744 2928 
Q 1347 2928 1158 2789 
Q 969 2650 878 2297 
L 328 2372 
Q 403 2725 575 2942 
Q 747 3159 1072 3276 
Q 1397 3394 1825 3394 
Q 2250 3394 2515 3294 
Q 2781 3194 2906 3042 
Q 3031 2891 3081 2659 
Q 3109 2516 3109 2141 
L 3109 1391 
Q 3109 606 3145 398 
Q 3181 191 3288 0 
L 2700 0 
Q 2613 175 2588 409 
z
M 2541 1666 
Q 2234 1541 1622 1453 
Q 1275 1403 1131 1340 
Q 988 1278 909 1158 
Q 831 1038 831 891 
Q 831 666 1001 516 
Q 1172 366 1500 366 
Q 1825 366 2078 508 
Q 2331 650 2450 897 
Q 2541 1088 2541 1459 
L 2541 1666 
z
" transform="scale(0.015625)"/>
      <path id="DejaVuSans-34" d="M 2419 4116 
L 825 1625 
L 2419 1625 
L 2419 4116 
z
M 2253 4666 
L 3047 4666 
L 3047 1625 
L 3713 1625 
L 3713 1100 
L 3047 1100 
L 3047 0 
L 2419 0 
L 2419 1100 
L 313 1100 
L 313 1709 
L 2253 4666 
z
" transform="scale(0.015625)"/>
      <path id="DejaVuSans-2212" d="M 678 2272 
L 4684 2272 
L 4684 1741 
L 678 1741 
L 678 2272 
z
" transform="scale(0.015625)"/>
     </defs>
     <use xlink:href="#ArialMT-50" transform="translate(0 0.765625)"/>
     <use xlink:href="#ArialMT-44" transform="translate(66.699219 0.765625)"/>
     <use xlink:href="#DejaVuSans-2b" transform="translate(153.510742 39.046875) scale(0.7)"/>
     <use xlink:href="#ArialMT-28" transform="translate(228.535156 0.765625)"/>
     <use xlink:href="#ArialMT-61" transform="translate(261.835938 0.765625)"/>
     <use xlink:href="#DejaVuSans-34" transform="translate(318.408203 39.046875) scale(0.7)"/>
     <use xlink:href="#DejaVuSans-3a3" transform="translate(365.678711 0.765625)"/>
     <use xlink:href="#DejaVuSans-2212" transform="translate(443.457031 39.046875) scale(0.7)"/>
     <use xlink:href="#ArialMT-29" transform="translate(518.481445 0.765625)"/>
     <use xlink:href="#ArialMT-2b" transform="translate(551.782227 0.765625)"/>
     <use xlink:href="#ArialMT-44" transform="translate(610.180664 0.765625)"/>
     <use xlink:href="#ArialMT-28" transform="translate(682.397461 0.765625)"/>
     <use xlink:href="#DejaVuSans-32" transform="translate(716.655273 39.046875) scale(0.7)"/>
     <use xlink:href="#ArialMT-53" transform="translate(763.925781 0.765625)"/>
     <use xlink:href="#ArialMT-29" transform="translate(830.625 0.765625)"/>
    </g>
   </g>
   <g id="text_11">
    <!-- -1.044 -->
    <g transform="translate(317.291888 581.04464) scale(0.2 -0.2)">
     <defs>
      <path id="ArialMT-2d" d="M 203 1375 
L 203 1941 
L 1931 1941 
L 1931 1375 
L 203 1375 
z
" transform="scale(0.015625)"/>
      <path id="ArialMT-2e" d="M 581 0 
L 581 641 
L 1222 641 
L 1222 0 
L 581 0 
z
" transform="scale(0.015625)"/>
      <path id="ArialMT-34" d="M 2069 0 
L 2069 1097 
L 81 1097 
L 81 1613 
L 2172 4581 
L 2631 4581 
L 2631 1613 
L 3250 1613 
L 3250 1097 
L 2631 1097 
L 2631 0 
L 2069 0 
z
M 2069 1613 
L 2069 3678 
L 634 1613 
L 2069 1613 
z
" transform="scale(0.015625)"/>
     </defs>
     <use xlink:href="#ArialMT-2d"/>
     <use xlink:href="#ArialMT-31" transform="translate(33.300781 0)"/>
     <use xlink:href="#ArialMT-2e" transform="translate(88.916016 0)"/>
     <use xlink:href="#ArialMT-30" transform="translate(116.699219 0)"/>
     <use xlink:href="#ArialMT-34" transform="translate(172.314453 0)"/>
     <use xlink:href="#ArialMT-34" transform="translate(227.929688 0)"/>
    </g>
   </g>
   <g id="text_12">
    <!-- -0.155 -->
    <g transform="translate(505.908697 467.807348) scale(0.2 -0.2)">
     <defs>
      <path id="ArialMT-35" d="M 266 1200 
L 856 1250 
Q 922 819 1161 601 
Q 1400 384 1738 384 
Q 2144 384 2425 690 
Q 2706 997 2706 1503 
Q 2706 1984 2436 2262 
Q 2166 2541 1728 2541 
Q 1456 2541 1237 2417 
Q 1019 2294 894 2097 
L 366 2166 
L 809 4519 
L 3088 4519 
L 3088 3981 
L 1259 3981 
L 1013 2750 
Q 1425 3038 1878 3038 
Q 2478 3038 2890 2622 
Q 3303 2206 3303 1553 
Q 3303 931 2941 478 
Q 2500 -78 1738 -78 
Q 1113 -78 717 272 
Q 322 622 266 1200 
z
" transform="scale(0.015625)"/>
     </defs>
     <use xlink:href="#ArialMT-2d"/>
     <use xlink:href="#ArialMT-30" transform="translate(33.300781 0)"/>
     <use xlink:href="#ArialMT-2e" transform="translate(88.916016 0)"/>
     <use xlink:href="#ArialMT-31" transform="translate(116.699219 0)"/>
     <use xlink:href="#ArialMT-35" transform="translate(172.314453 0)"/>
     <use xlink:href="#ArialMT-35" transform="translate(227.929688 0)"/>
    </g>
   </g>
   <g id="text_13">
    <!-- -1.882 -->
    <g transform="translate(694.525505 687.721269) scale(0.2 -0.2)">
     <defs>
      <path id="ArialMT-38" d="M 1131 2484 
Q 781 2613 612 2850 
Q 444 3088 444 3419 
Q 444 3919 803 4259 
Q 1163 4600 1759 4600 
Q 2359 4600 2725 4251 
Q 3091 3903 3091 3403 
Q 3091 3084 2923 2848 
Q 2756 2613 2416 2484 
Q 2838 2347 3058 2040 
Q 3278 1734 3278 1309 
Q 3278 722 2862 322 
Q 2447 -78 1769 -78 
Q 1091 -78 675 323 
Q 259 725 259 1325 
Q 259 1772 486 2073 
Q 713 2375 1131 2484 
z
M 1019 3438 
Q 1019 3113 1228 2906 
Q 1438 2700 1772 2700 
Q 2097 2700 2305 2904 
Q 2513 3109 2513 3406 
Q 2513 3716 2298 3927 
Q 2084 4138 1766 4138 
Q 1444 4138 1231 3931 
Q 1019 3725 1019 3438 
z
M 838 1322 
Q 838 1081 952 856 
Q 1066 631 1291 507 
Q 1516 384 1775 384 
Q 2178 384 2440 643 
Q 2703 903 2703 1303 
Q 2703 1709 2433 1975 
Q 2163 2241 1756 2241 
Q 1359 2241 1098 1978 
Q 838 1716 838 1322 
z
" transform="scale(0.015625)"/>
     </defs>
     <use xlink:href="#ArialMT-2d"/>
     <use xlink:href="#ArialMT-31" transform="translate(33.300781 0)"/>
     <use xlink:href="#ArialMT-2e" transform="translate(88.916016 0)"/>
     <use xlink:href="#ArialMT-38" transform="translate(116.699219 0)"/>
     <use xlink:href="#ArialMT-38" transform="translate(172.314453 0)"/>
     <use xlink:href="#ArialMT-32" transform="translate(227.929688 0)"/>
    </g>
   </g>
   <g id="text_14">
    <!-- 0.155 -->
    <g transform="translate(588.428551 428.351497) scale(0.2 -0.2)">
     <use xlink:href="#ArialMT-30"/>
     <use xlink:href="#ArialMT-2e" transform="translate(55.615234 0)"/>
     <use xlink:href="#ArialMT-31" transform="translate(83.398438 0)"/>
     <use xlink:href="#ArialMT-35" transform="translate(139.013672 0)"/>
     <use xlink:href="#ArialMT-35" transform="translate(194.628906 0)"/>
    </g>
   </g>
   <g id="text_15">
    <!-- 2.924 -->
    <g transform="translate(400.106456 75.583268) scale(0.2 -0.2)">
     <defs>
      <path id="ArialMT-39" d="M 350 1059 
L 891 1109 
Q 959 728 1153 556 
Q 1347 384 1650 384 
Q 1909 384 2104 503 
Q 2300 622 2425 820 
Q 2550 1019 2634 1356 
Q 2719 1694 2719 2044 
Q 2719 2081 2716 2156 
Q 2547 1888 2255 1720 
Q 1963 1553 1622 1553 
Q 1053 1553 659 1965 
Q 266 2378 266 3053 
Q 266 3750 677 4175 
Q 1088 4600 1706 4600 
Q 2153 4600 2523 4359 
Q 2894 4119 3086 3673 
Q 3278 3228 3278 2384 
Q 3278 1506 3087 986 
Q 2897 466 2520 194 
Q 2144 -78 1638 -78 
Q 1100 -78 759 220 
Q 419 519 350 1059 
z
M 2653 3081 
Q 2653 3566 2395 3850 
Q 2138 4134 1775 4134 
Q 1400 4134 1122 3828 
Q 844 3522 844 3034 
Q 844 2597 1108 2323 
Q 1372 2050 1759 2050 
Q 2150 2050 2401 2323 
Q 2653 2597 2653 3081 
z
" transform="scale(0.015625)"/>
     </defs>
     <use xlink:href="#ArialMT-32"/>
     <use xlink:href="#ArialMT-2e" transform="translate(55.615234 0)"/>
     <use xlink:href="#ArialMT-39" transform="translate(83.398438 0)"/>
     <use xlink:href="#ArialMT-32" transform="translate(139.013672 0)"/>
     <use xlink:href="#ArialMT-34" transform="translate(194.628906 0)"/>
    </g>
   </g>
   <g id="text_16">
    <!-- 1.258 -->
    <g transform="translate(506.498124 287.77972) scale(0.2 -0.2)">
     <use xlink:href="#ArialMT-31"/>
     <use xlink:href="#ArialMT-2e" transform="translate(55.615234 0)"/>
     <use xlink:href="#ArialMT-32" transform="translate(83.398438 0)"/>
     <use xlink:href="#ArialMT-35" transform="translate(139.013672 0)"/>
     <use xlink:href="#ArialMT-38" transform="translate(194.628906 0)"/>
    </g>
   </g>
   <g id="text_17">
    <!-- 0.0 (0.191) -->
    <g transform="translate(93.898855 394.540931) scale(0.2 -0.2)">
     <use xlink:href="#ArialMT-30"/>
     <use xlink:href="#ArialMT-2e" transform="translate(55.615234 0)"/>
     <use xlink:href="#ArialMT-30" transform="translate(83.398438 0)"/>
     <use xlink:href="#ArialMT-20" transform="translate(139.013672 0)"/>
     <use xlink:href="#ArialMT-28" transform="translate(166.796875 0)"/>
     <use xlink:href="#ArialMT-30" transform="translate(200.097656 0)"/>
     <use xlink:href="#ArialMT-2e" transform="translate(255.712891 0)"/>
     <use xlink:href="#ArialMT-31" transform="translate(283.496094 0)"/>
     <use xlink:href="#ArialMT-39" transform="translate(339.111328 0)"/>
     <use xlink:href="#ArialMT-31" transform="translate(394.726562 0)"/>
     <use xlink:href="#ArialMT-29" transform="translate(450.341797 0)"/>
    </g>
   </g>
   <g id="text_18">
    <!-- 1.216 (1.318) -->
    <g transform="translate(848.955518 248.945148) scale(0.2 -0.2)">
     <defs>
      <path id="ArialMT-36" d="M 3184 3459 
L 2625 3416 
Q 2550 3747 2413 3897 
Q 2184 4138 1850 4138 
Q 1581 4138 1378 3988 
Q 1113 3794 959 3422 
Q 806 3050 800 2363 
Q 1003 2672 1297 2822 
Q 1591 2972 1913 2972 
Q 2475 2972 2870 2558 
Q 3266 2144 3266 1488 
Q 3266 1056 3080 686 
Q 2894 316 2569 119 
Q 2244 -78 1831 -78 
Q 1128 -78 684 439 
Q 241 956 241 2144 
Q 241 3472 731 4075 
Q 1159 4600 1884 4600 
Q 2425 4600 2770 4297 
Q 3116 3994 3184 3459 
z
M 888 1484 
Q 888 1194 1011 928 
Q 1134 663 1356 523 
Q 1578 384 1822 384 
Q 2178 384 2434 671 
Q 2691 959 2691 1453 
Q 2691 1928 2437 2201 
Q 2184 2475 1800 2475 
Q 1419 2475 1153 2201 
Q 888 1928 888 1484 
z
" transform="scale(0.015625)"/>
     </defs>
     <use xlink:href="#ArialMT-31"/>
     <use xlink:href="#ArialMT-2e" transform="translate(55.615234 0)"/>
     <use xlink:href="#ArialMT-32" transform="translate(83.398438 0)"/>
     <use xlink:href="#ArialMT-31" transform="translate(139.013672 0)"/>
     <use xlink:href="#ArialMT-36" transform="translate(194.628906 0)"/>
     <use xlink:href="#ArialMT-20" transform="translate(250.244141 0)"/>
     <use xlink:href="#ArialMT-28" transform="translate(278.027344 0)"/>
     <use xlink:href="#ArialMT-31" transform="translate(311.328125 0)"/>
     <use xlink:href="#ArialMT-2e" transform="translate(366.943359 0)"/>
     <use xlink:href="#ArialMT-33" transform="translate(394.726562 0)"/>
     <use xlink:href="#ArialMT-31" transform="translate(450.341797 0)"/>
     <use xlink:href="#ArialMT-38" transform="translate(505.957031 0)"/>
     <use xlink:href="#ArialMT-29" transform="translate(561.572266 0)"/>
    </g>
   </g>
   <g id="text_19">
    <!-- 2.875 (2.953) -->
    <g transform="translate(848.36609 40.678214) scale(0.2 -0.2)">
     <defs>
      <path id="ArialMT-37" d="M 303 3981 
L 303 4522 
L 3269 4522 
L 3269 4084 
Q 2831 3619 2401 2847 
Q 1972 2075 1738 1259 
Q 1569 684 1522 0 
L 944 0 
Q 953 541 1156 1306 
Q 1359 2072 1739 2783 
Q 2119 3494 2547 3981 
L 303 3981 
z
" transform="scale(0.015625)"/>
     </defs>
     <use xlink:href="#ArialMT-32"/>
     <use xlink:href="#ArialMT-2e" transform="translate(55.615234 0)"/>
     <use xlink:href="#ArialMT-38" transform="translate(83.398438 0)"/>
     <use xlink:href="#ArialMT-37" transform="translate(139.013672 0)"/>
     <use xlink:href="#ArialMT-35" transform="translate(194.628906 0)"/>
     <use xlink:href="#ArialMT-20" transform="translate(250.244141 0)"/>
     <use xlink:href="#ArialMT-28" transform="translate(278.027344 0)"/>
     <use xlink:href="#ArialMT-32" transform="translate(311.328125 0)"/>
     <use xlink:href="#ArialMT-2e" transform="translate(366.943359 0)"/>
     <use xlink:href="#ArialMT-39" transform="translate(394.726562 0)"/>
     <use xlink:href="#ArialMT-35" transform="translate(450.341797 0)"/>
     <use xlink:href="#ArialMT-33" transform="translate(505.957031 0)"/>
     <use xlink:href="#ArialMT-29" transform="translate(561.572266 0)"/>
    </g>
   </g>
   <g id="legend_1">
    <g id="line2d_16">
     <path d="M 110.72 48.64 
L 150.72 48.64 
" style="fill: none; stroke: #b8860b; stroke-width: 3"/>
    </g>
    <g id="text_20">
     <!-- PD$_2^+$ (1$^3$A') -->
     <g transform="translate(166.72 55.64) scale(0.2 -0.2)">
      <defs>
       <path id="ArialMT-41" d="M -9 0 
L 1750 4581 
L 2403 4581 
L 4278 0 
L 3588 0 
L 3053 1388 
L 1138 1388 
L 634 0 
L -9 0 
z
M 1313 1881 
L 2866 1881 
L 2388 3150 
Q 2169 3728 2063 4100 
Q 1975 3659 1816 3225 
L 1313 1881 
z
" transform="scale(0.015625)"/>
       <path id="ArialMT-27" d="M 425 2959 
L 281 3816 
L 281 4581 
L 922 4581 
L 922 3816 
L 772 2959 
L 425 2959 
z
" transform="scale(0.015625)"/>
      </defs>
      <use xlink:href="#ArialMT-50" transform="translate(0 0.765625)"/>
      <use xlink:href="#ArialMT-44" transform="translate(66.699219 0.765625)"/>
      <use xlink:href="#DejaVuSans-2b" transform="translate(153.510742 39.046875) scale(0.7)"/>
      <use xlink:href="#DejaVuSans-32" transform="translate(139.873047 -26.578125) scale(0.7)"/>
      <use xlink:href="#ArialMT-20" transform="translate(228.535156 0.765625)"/>
      <use xlink:href="#ArialMT-28" transform="translate(256.318359 0.765625)"/>
      <use xlink:href="#ArialMT-31" transform="translate(289.619141 0.765625)"/>
      <use xlink:href="#DejaVuSans-33" transform="translate(346.191406 39.046875) scale(0.7)"/>
      <use xlink:href="#ArialMT-41" transform="translate(393.461914 0.765625)"/>
      <use xlink:href="#ArialMT-27" transform="translate(460.161133 0.765625)"/>
      <use xlink:href="#ArialMT-29" transform="translate(479.25293 0.765625)"/>
     </g>
    </g>
    <g id="line2d_17">
     <path d="M 110.72 82.44 
L 150.72 82.44 
" style="fill: none; stroke: #00ff00; stroke-width: 3"/>
    </g>
    <g id="text_21">
     <!-- PD$_2^+$ (1$^3$A'') -->
     <g transform="translate(166.72 89.44) scale(0.2 -0.2)">
      <use xlink:href="#ArialMT-50" transform="translate(0 0.765625)"/>
      <use xlink:href="#ArialMT-44" transform="translate(66.699219 0.765625)"/>
      <use xlink:href="#DejaVuSans-2b" transform="translate(153.510742 39.046875) scale(0.7)"/>
      <use xlink:href="#DejaVuSans-32" transform="translate(139.873047 -26.578125) scale(0.7)"/>
      <use xlink:href="#ArialMT-20" transform="translate(228.535156 0.765625)"/>
      <use xlink:href="#ArialMT-28" transform="translate(256.318359 0.765625)"/>
      <use xlink:href="#ArialMT-31" transform="translate(289.619141 0.765625)"/>
      <use xlink:href="#DejaVuSans-33" transform="translate(346.191406 39.046875) scale(0.7)"/>
      <use xlink:href="#ArialMT-41" transform="translate(393.461914 0.765625)"/>
      <use xlink:href="#ArialMT-27" transform="translate(460.161133 0.765625)"/>
      <use xlink:href="#ArialMT-27" transform="translate(479.25293 0.765625)"/>
      <use xlink:href="#ArialMT-29" transform="translate(498.344727 0.765625)"/>
     </g>
    </g>
    <g id="line2d_18">
     <path d="M 110.72 116.24 
L 150.72 116.24 
" style="fill: none; stroke: #00ced1; stroke-width: 3"/>
    </g>
    <g id="text_22">
     <!-- PD$_2^+$ (2$^3$A'') -->
     <g transform="translate(166.72 123.24) scale(0.2 -0.2)">
      <use xlink:href="#ArialMT-50" transform="translate(0 0.765625)"/>
      <use xlink:href="#ArialMT-44" transform="translate(66.699219 0.765625)"/>
      <use xlink:href="#DejaVuSans-2b" transform="translate(153.510742 39.046875) scale(0.7)"/>
      <use xlink:href="#DejaVuSans-32" transform="translate(139.873047 -26.578125) scale(0.7)"/>
      <use xlink:href="#ArialMT-20" transform="translate(228.535156 0.765625)"/>
      <use xlink:href="#ArialMT-28" transform="translate(256.318359 0.765625)"/>
      <use xlink:href="#ArialMT-32" transform="translate(289.619141 0.765625)"/>
      <use xlink:href="#DejaVuSans-33" transform="translate(346.191406 39.046875) scale(0.7)"/>
      <use xlink:href="#ArialMT-41" transform="translate(393.461914 0.765625)"/>
      <use xlink:href="#ArialMT-27" transform="translate(460.161133 0.765625)"/>
      <use xlink:href="#ArialMT-27" transform="translate(479.25293 0.765625)"/>
      <use xlink:href="#ArialMT-29" transform="translate(498.344727 0.765625)"/>
     </g>
    </g>
   </g>
  </g>
 </g>
 <defs>
  <clipPath id="p16802ec25e">
   <rect x="92.72" y="19.44" width="967.84" height="677.418346"/>
  </clipPath>
 </defs>
</svg>
