<?xml version="1.0" encoding="utf-8" standalone="no"?>
<!DOCTYPE svg PUBLIC "-//W3C//DTD SVG 1.1//EN"
  "http://www.w3.org/Graphics/SVG/1.1/DTD/svg11.dtd">
<svg xmlns:xlink="http://www.w3.org/1999/xlink" width="720pt" height="720pt" viewBox="0 0 720 720" xmlns="http://www.w3.org/2000/svg" version="1.1">
 <metadata>
  <rdf:RDF xmlns:dc="http://purl.org/dc/elements/1.1/" xmlns:cc="http://creativecommons.org/ns#" xmlns:rdf="http://www.w3.org/1999/02/22-rdf-syntax-ns#">
   <cc:Work>
    <dc:type rdf:resource="http://purl.org/dc/dcmitype/StillImage"/>
    <dc:date>2025-10-03T12:52:51.610390</dc:date>
    <dc:format>image/svg+xml</dc:format>
    <dc:creator>
     <cc:Agent>
      <dc:title>Matplotlib v3.10.0, https://matplotlib.org/</dc:title>
     </cc:Agent>
    </dc:creator>
   </cc:Work>
  </rdf:RDF>
 </metadata>
 <defs>
  <style type="text/css">*{stroke-linejoin: round; stroke-linecap: butt}</style>
 </defs>
 <g id="figure_1">
  <g id="patch_1">
   <path d="M 0 720 
L 720 720 
L 720 0 
L 0 0 
L 0 720 
z
" style="fill: none"/>
  </g>
  <g id="axes_1">
   <g id="patch_2">
    <path d="M 58.34 709.2 
L 689.74808 709.2 
L 689.74808 10.8 
L 58.34 10.8 
L 58.34 709.2 
z
" style="fill: none"/>
   </g>
   <g id="matplotlib.axis_1"/>
   <g id="matplotlib.axis_2">
    <g id="ytick_1">
     <g id="line2d_1">
      <defs>
       <path id="m5975ca34a6" d="M 0 0 
L -3.5 0 
" style="stroke: #000000; stroke-width: 0.8"/>
      </defs>
      <g>
       <use xlink:href="#m5975ca34a6" x="58.34" y="690.547542" style="stroke: #000000; stroke-width: 0.8"/>
      </g>
     </g>
     <g id="text_1">
      <!-- −2 -->
      <g transform="translate(29.226719 696.24637) scale(0.15 -0.15)">
       <defs>
        <path id="DejaVuSans-2212" d="M 678 2272 
L 4684 2272 
L 4684 1741 
L 678 1741 
L 678 2272 
z
" transform="scale(0.015625)"/>
        <path id="DejaVuSans-32" d="M 1228 531 
L 3431 531 
L 3431 0 
L 469 0 
L 469 531 
Q 828 903 1448 1529 
Q 2069 2156 2228 2338 
Q 2531 2678 2651 2914 
Q 2772 3150 2772 3378 
Q 2772 3750 2511 3984 
Q 2250 4219 1831 4219 
Q 1534 4219 1204 4116 
Q 875 4013 500 3803 
L 500 4441 
Q 881 4594 1212 4672 
Q 1544 4750 1819 4750 
Q 2544 4750 2975 4387 
Q 3406 4025 3406 3419 
Q 3406 3131 3298 2873 
Q 3191 2616 2906 2266 
Q 2828 2175 2409 1742 
Q 1991 1309 1228 531 
z
" transform="scale(0.015625)"/>
       </defs>
       <use xlink:href="#DejaVuSans-2212"/>
       <use xlink:href="#DejaVuSans-32" transform="translate(83.789062 0)"/>
      </g>
     </g>
    </g>
    <g id="ytick_2">
     <g id="line2d_2">
      <g>
       <use xlink:href="#m5975ca34a6" x="58.34" y="579.952789" style="stroke: #000000; stroke-width: 0.8"/>
      </g>
     </g>
     <g id="text_2">
      <!-- −1 -->
      <g transform="translate(29.226719 585.651618) scale(0.15 -0.15)">
       <defs>
        <path id="DejaVuSans-31" d="M 794 531 
L 1825 531 
L 1825 4091 
L 703 3866 
L 703 4441 
L 1819 4666 
L 2450 4666 
L 2450 531 
L 3481 531 
L 3481 0 
L 794 0 
L 794 531 
z
" transform="scale(0.015625)"/>
       </defs>
       <use xlink:href="#DejaVuSans-2212"/>
       <use xlink:href="#DejaVuSans-31" transform="translate(83.789062 0)"/>
      </g>
     </g>
    </g>
    <g id="ytick_3">
     <g id="line2d_3">
      <g>
       <use xlink:href="#m5975ca34a6" x="58.34" y="469.358037" style="stroke: #000000; stroke-width: 0.8"/>
      </g>
     </g>
     <g id="text_3">
      <!-- 0 -->
      <g transform="translate(41.79625 475.056865) scale(0.15 -0.15)">
       <defs>
        <path id="DejaVuSans-30" d="M 2034 4250 
Q 1547 4250 1301 3770 
Q 1056 3291 1056 2328 
Q 1056 1369 1301 889 
Q 1547 409 2034 409 
Q 2525 409 2770 889 
Q 3016 1369 3016 2328 
Q 3016 3291 2770 3770 
Q 2525 4250 2034 4250 
z
M 2034 4750 
Q 2819 4750 3233 4129 
Q 3647 3509 3647 2328 
Q 3647 1150 3233 529 
Q 2819 -91 2034 -91 
Q 1250 -91 836 529 
Q 422 1150 422 2328 
Q 422 3509 836 4129 
Q 1250 4750 2034 4750 
z
" transform="scale(0.015625)"/>
       </defs>
       <use xlink:href="#DejaVuSans-30"/>
      </g>
     </g>
    </g>
    <g id="ytick_4">
     <g id="line2d_4">
      <g>
       <use xlink:href="#m5975ca34a6" x="58.34" y="358.763285" style="stroke: #000000; stroke-width: 0.8"/>
      </g>
     </g>
     <g id="text_4">
      <!-- 1 -->
      <g transform="translate(41.79625 364.462113) scale(0.15 -0.15)">
       <use xlink:href="#DejaVuSans-31"/>
      </g>
     </g>
    </g>
    <g id="ytick_5">
     <g id="line2d_5">
      <g>
       <use xlink:href="#m5975ca34a6" x="58.34" y="248.168532" style="stroke: #000000; stroke-width: 0.8"/>
      </g>
     </g>
     <g id="text_5">
      <!-- 2 -->
      <g transform="translate(41.79625 253.86736) scale(0.15 -0.15)">
       <use xlink:href="#DejaVuSans-32"/>
      </g>
     </g>
    </g>
    <g id="ytick_6">
     <g id="line2d_6">
      <g>
       <use xlink:href="#m5975ca34a6" x="58.34" y="137.57378" style="stroke: #000000; stroke-width: 0.8"/>
      </g>
     </g>
     <g id="text_6">
      <!-- 3 -->
      <g transform="translate(41.79625 143.272608) scale(0.15 -0.15)">
       <defs>
        <path id="DejaVuSans-33" d="M 2597 2516 
Q 3050 2419 3304 2112 
Q 3559 1806 3559 1356 
Q 3559 666 3084 287 
Q 2609 -91 1734 -91 
Q 1441 -91 1130 -33 
Q 819 25 488 141 
L 488 750 
Q 750 597 1062 519 
Q 1375 441 1716 441 
Q 2309 441 2620 675 
Q 2931 909 2931 1356 
Q 2931 1769 2642 2001 
Q 2353 2234 1838 2234 
L 1294 2234 
L 1294 2753 
L 1863 2753 
Q 2328 2753 2575 2939 
Q 2822 3125 2822 3475 
Q 2822 3834 2567 4026 
Q 2313 4219 1838 4219 
Q 1578 4219 1281 4162 
Q 984 4106 628 3988 
L 628 4550 
Q 988 4650 1302 4700 
Q 1616 4750 1894 4750 
Q 2613 4750 3031 4423 
Q 3450 4097 3450 3541 
Q 3450 3153 3228 2886 
Q 3006 2619 2597 2516 
z
" transform="scale(0.015625)"/>
       </defs>
       <use xlink:href="#DejaVuSans-33"/>
      </g>
     </g>
    </g>
    <g id="ytick_7">
     <g id="line2d_7">
      <g>
       <use xlink:href="#m5975ca34a6" x="58.34" y="26.979027" style="stroke: #000000; stroke-width: 0.8"/>
      </g>
     </g>
     <g id="text_7">
      <!-- 4 -->
      <g transform="translate(41.79625 32.677855) scale(0.15 -0.15)">
       <defs>
        <path id="DejaVuSans-34" d="M 2419 4116 
L 825 1625 
L 2419 1625 
L 2419 4116 
z
M 2253 4666 
L 3047 4666 
L 3047 1625 
L 3713 1625 
L 3713 1100 
L 3047 1100 
L 3047 0 
L 2419 0 
L 2419 1100 
L 313 1100 
L 313 1709 
L 2253 4666 
z
" transform="scale(0.015625)"/>
       </defs>
       <use xlink:href="#DejaVuSans-34"/>
      </g>
     </g>
    </g>
    <g id="text_8">
     <!-- E (eV) -->
     <g transform="translate(22.107188 382.720312) rotate(-90) scale(0.15 -0.15)">
      <defs>
       <path id="DejaVuSans-45" d="M 628 4666 
L 3578 4666 
L 3578 4134 
L 1259 4134 
L 1259 2753 
L 3481 2753 
L 3481 2222 
L 1259 2222 
L 1259 531 
L 3634 531 
L 3634 0 
L 628 0 
L 628 4666 
z
" transform="scale(0.015625)"/>
       <path id="DejaVuSans-20" transform="scale(0.015625)"/>
       <path id="DejaVuSans-28" d="M 1984 4856 
Q 1566 4138 1362 3434 
Q 1159 2731 1159 2009 
Q 1159 1288 1364 580 
Q 1569 -128 1984 -844 
L 1484 -844 
Q 1016 -109 783 600 
Q 550 1309 550 2009 
Q 550 2706 781 3412 
Q 1013 4119 1484 4856 
L 1984 4856 
z
" transform="scale(0.015625)"/>
       <path id="DejaVuSans-65" d="M 3597 1894 
L 3597 1613 
L 953 1613 
Q 991 1019 1311 708 
Q 1631 397 2203 397 
Q 2534 397 2845 478 
Q 3156 559 3463 722 
L 3463 178 
Q 3153 47 2828 -22 
Q 2503 -91 2169 -91 
Q 1331 -91 842 396 
Q 353 884 353 1716 
Q 353 2575 817 3079 
Q 1281 3584 2069 3584 
Q 2775 3584 3186 3129 
Q 3597 2675 3597 1894 
z
M 3022 2063 
Q 3016 2534 2758 2815 
Q 2500 3097 2075 3097 
Q 1594 3097 1305 2825 
Q 1016 2553 972 2059 
L 3022 2063 
z
" transform="scale(0.015625)"/>
       <path id="DejaVuSans-56" d="M 1831 0 
L 50 4666 
L 709 4666 
L 2188 738 
L 3669 4666 
L 4325 4666 
L 2547 0 
L 1831 0 
z
" transform="scale(0.015625)"/>
       <path id="DejaVuSans-29" d="M 513 4856 
L 1013 4856 
Q 1481 4119 1714 3412 
Q 1947 2706 1947 2009 
Q 1947 1309 1714 600 
Q 1481 -109 1013 -844 
L 513 -844 
Q 928 -128 1133 580 
Q 1338 1288 1338 2009 
Q 1338 2731 1133 3434 
Q 928 4138 513 4856 
z
" transform="scale(0.015625)"/>
      </defs>
      <use xlink:href="#DejaVuSans-45"/>
      <use xlink:href="#DejaVuSans-20" transform="translate(63.183594 0)"/>
      <use xlink:href="#DejaVuSans-28" transform="translate(94.970703 0)"/>
      <use xlink:href="#DejaVuSans-65" transform="translate(133.984375 0)"/>
      <use xlink:href="#DejaVuSans-56" transform="translate(195.507812 0)"/>
      <use xlink:href="#DejaVuSans-29" transform="translate(263.916016 0)"/>
     </g>
    </g>
   </g>
   <g id="LineCollection_1">
    <path d="M 80.253575 469.358037 
L 169.393539 469.358037 
" clip-path="url(#p789671e153)" style="fill: none; stroke: #000000; stroke-width: 2"/>
   </g>
   <g id="LineCollection_2">
    <path d="M 555.666717 335.034126 
L 644.806681 335.034126 
" clip-path="url(#p789671e153)" style="fill: none; stroke: #ff0000; stroke-width: 3"/>
   </g>
   <g id="LineCollection_3">
    <path d="M 555.666717 149.547816 
L 644.806681 149.547816 
" clip-path="url(#p789671e153)" style="fill: none; stroke: #0000ff; stroke-width: 3"/>
   </g>
   <g id="LineCollection_4">
    <path d="M 317.960146 42.545455 
L 407.10011 42.545455 
" clip-path="url(#p789671e153)" style="fill: none; stroke: #b8860b; stroke-width: 3"/>
   </g>
   <g id="line2d_8">
    <path d="M 169.393539 469.358037 
L 317.960146 42.545455 
" clip-path="url(#p789671e153)" style="fill: none; stroke-dasharray: 3,4.95; stroke-dashoffset: 0; stroke: #b8860b; stroke-width: 3"/>
   </g>
   <g id="line2d_9">
    <path d="M 407.10011 42.545455 
L 555.666717 335.034126 
" clip-path="url(#p789671e153)" style="fill: none; stroke-dasharray: 3,4.95; stroke-dashoffset: 0; stroke: #b8860b; stroke-width: 3"/>
   </g>
   <g id="LineCollection_5">
    <path d="M 199.10686 584.8353 
L 288.246824 584.8353 
" clip-path="url(#p789671e153)" style="fill: none; stroke: #00ff00; stroke-width: 3"/>
   </g>
   <g id="LineCollection_6">
    <path d="M 317.960146 486.522012 
L 407.10011 486.522012 
" clip-path="url(#p789671e153)" style="fill: none; stroke: #00ff00; stroke-width: 3"/>
   </g>
   <g id="LineCollection_7">
    <path d="M 436.813432 677.454545 
L 525.953396 677.454545 
" clip-path="url(#p789671e153)" style="fill: none; stroke: #00ff00; stroke-width: 3"/>
   </g>
   <g id="line2d_10">
    <path d="M 169.393539 469.358037 
L 199.10686 584.8353 
" clip-path="url(#p789671e153)" style="fill: none; stroke-dasharray: 3,4.95; stroke-dashoffset: 0; stroke: #00ff00; stroke-width: 3"/>
   </g>
   <g id="line2d_11">
    <path d="M 288.246824 584.8353 
L 317.960146 486.522012 
" clip-path="url(#p789671e153)" style="fill: none; stroke-dasharray: 3,4.95; stroke-dashoffset: 0; stroke: #00ff00; stroke-width: 3"/>
   </g>
   <g id="line2d_12">
    <path d="M 407.10011 486.522012 
L 436.813432 677.454545 
" clip-path="url(#p789671e153)" style="fill: none; stroke-dasharray: 3,4.95; stroke-dashoffset: 0; stroke: #00ff00; stroke-width: 3"/>
   </g>
   <g id="line2d_13">
    <path d="M 525.953396 677.454545 
L 555.666717 335.034126 
" clip-path="url(#p789671e153)" style="fill: none; stroke-dasharray: 3,4.95; stroke-dashoffset: 0; stroke: #00ff00; stroke-width: 3"/>
   </g>
   <g id="LineCollection_8">
    <path d="M 251.105173 145.983521 
L 340.245137 145.983521 
" clip-path="url(#p789671e153)" style="fill: none; stroke: #00ced1; stroke-width: 3"/>
   </g>
   <g id="LineCollection_9">
    <path d="M 369.958458 452.265482 
L 459.098423 452.265482 
" clip-path="url(#p789671e153)" style="fill: none; stroke: #00ced1; stroke-width: 3"/>
   </g>
   <g id="line2d_14">
    <path d="M 169.393539 469.358037 
L 251.105173 145.983521 
" clip-path="url(#p789671e153)" style="fill: none; stroke-dasharray: 3,4.95; stroke-dashoffset: 0; stroke: #00ced1; stroke-width: 3"/>
   </g>
   <g id="line2d_15">
    <path d="M 340.245137 145.983521 
L 369.958458 452.265482 
" clip-path="url(#p789671e153)" style="fill: none; stroke-dasharray: 3,4.95; stroke-dashoffset: 0; stroke: #00ced1; stroke-width: 3"/>
   </g>
   <g id="line2d_16">
    <path d="M 459.098423 452.265482 
L 555.666717 149.547816 
" clip-path="url(#p789671e153)" style="fill: none; stroke-dasharray: 3,4.95; stroke-dashoffset: 0; stroke: #00ced1; stroke-width: 3"/>
   </g>
   <g id="LineCollection_10">
    <path d="M 80.253575 448.234439 
L 169.393539 448.234439 
" clip-path="url(#p789671e153)" style="fill: none; stroke-dasharray: 7.4,3.2; stroke-dashoffset: 0; stroke: #000000; stroke-width: 2"/>
   </g>
   <g id="LineCollection_11">
    <path d="M 555.666717 323.594153 
L 644.806681 323.594153 
" clip-path="url(#p789671e153)" style="fill: none; stroke-dasharray: 7.4,3.2; stroke-dashoffset: 0; stroke: #ff0000; stroke-width: 2"/>
   </g>
   <g id="LineCollection_12">
    <path d="M 555.666717 142.771733 
L 644.806681 142.771733 
" clip-path="url(#p789671e153)" style="fill: none; stroke-dasharray: 7.4,3.2; stroke-dashoffset: 0; stroke: #0000ff; stroke-width: 2"/>
   </g>
   <g id="LineCollection_13">
    <path clip-path="url(#p789671e153)" style="fill: none; stroke-dasharray: 7.4,3.2; stroke-dashoffset: 0; stroke: #000000; stroke-width: 2"/>
   </g>
   <g id="LineCollection_14">
    <path clip-path="url(#p789671e153)" style="fill: none; stroke-dasharray: 7.4,3.2; stroke-dashoffset: 0; stroke: #ff0000; stroke-width: 2"/>
   </g>
   <g id="LineCollection_15">
    <path clip-path="url(#p789671e153)" style="fill: none; stroke-dasharray: 7.4,3.2; stroke-dashoffset: 0; stroke: #0000ff; stroke-width: 2"/>
   </g>
   <g id="patch_3">
    <path d="M 58.34 709.2 
L 58.34 10.8 
" style="fill: none; stroke: #000000; stroke-width: 0.8; stroke-linejoin: miter; stroke-linecap: square"/>
   </g>
   <g id="text_9">
    <!-- P$^+$($^3$P)+D$_2$(X$^1\Sigma^+$) -->
    <g transform="translate(59.45425 485.94725) scale(0.15 -0.15)">
     <defs>
      <path id="DejaVuSans-50" d="M 1259 4147 
L 1259 2394 
L 2053 2394 
Q 2494 2394 2734 2622 
Q 2975 2850 2975 3272 
Q 2975 3691 2734 3919 
Q 2494 4147 2053 4147 
L 1259 4147 
z
M 628 4666 
L 2053 4666 
Q 2838 4666 3239 4311 
Q 3641 3956 3641 3272 
Q 3641 2581 3239 2228 
Q 2838 1875 2053 1875 
L 1259 1875 
L 1259 0 
L 628 0 
L 628 4666 
z
" transform="scale(0.015625)"/>
      <path id="DejaVuSans-2b" d="M 2944 4013 
L 2944 2272 
L 4684 2272 
L 4684 1741 
L 2944 1741 
L 2944 0 
L 2419 0 
L 2419 1741 
L 678 1741 
L 678 2272 
L 2419 2272 
L 2419 4013 
L 2944 4013 
z
" transform="scale(0.015625)"/>
      <path id="DejaVuSans-44" d="M 1259 4147 
L 1259 519 
L 2022 519 
Q 2988 519 3436 956 
Q 3884 1394 3884 2338 
Q 3884 3275 3436 3711 
Q 2988 4147 2022 4147 
L 1259 4147 
z
M 628 4666 
L 1925 4666 
Q 3281 4666 3915 4102 
Q 4550 3538 4550 2338 
Q 4550 1131 3912 565 
Q 3275 0 1925 0 
L 628 0 
L 628 4666 
z
" transform="scale(0.015625)"/>
      <path id="DejaVuSans-58" d="M 403 4666 
L 1081 4666 
L 2241 2931 
L 3406 4666 
L 4084 4666 
L 2584 2425 
L 4184 0 
L 3506 0 
L 2194 1984 
L 872 0 
L 191 0 
L 1856 2491 
L 403 4666 
z
" transform="scale(0.015625)"/>
      <path id="DejaVuSans-3a3" d="M 1353 531 
L 3634 531 
L 3634 0 
L 628 0 
L 628 531 
L 2125 2481 
L 628 4134 
L 628 4666 
L 3578 4666 
L 3578 4134 
L 1353 4134 
L 2850 2494 
L 1353 531 
z
" transform="scale(0.015625)"/>
     </defs>
     <use xlink:href="#DejaVuSans-50" transform="translate(0 0.765625)"/>
     <use xlink:href="#DejaVuSans-2b" transform="translate(74.897461 39.046875) scale(0.7)"/>
     <use xlink:href="#DejaVuSans-28" transform="translate(149.921875 0.765625)"/>
     <use xlink:href="#DejaVuSans-33" transform="translate(189.892578 39.046875) scale(0.7)"/>
     <use xlink:href="#DejaVuSans-50" transform="translate(237.163086 0.765625)"/>
     <use xlink:href="#DejaVuSans-29" transform="translate(297.46582 0.765625)"/>
     <use xlink:href="#DejaVuSans-2b" transform="translate(336.479492 0.765625)"/>
     <use xlink:href="#DejaVuSans-44" transform="translate(420.268555 0.765625)"/>
     <use xlink:href="#DejaVuSans-32" transform="translate(498.227539 -15.640625) scale(0.7)"/>
     <use xlink:href="#DejaVuSans-28" transform="translate(545.498047 0.765625)"/>
     <use xlink:href="#DejaVuSans-58" transform="translate(584.511719 0.765625)"/>
     <use xlink:href="#DejaVuSans-31" transform="translate(653.974609 39.046875) scale(0.7)"/>
     <use xlink:href="#DejaVuSans-3a3" transform="translate(701.245117 0.765625)"/>
     <use xlink:href="#DejaVuSans-2b" transform="translate(779.023438 39.046875) scale(0.7)"/>
     <use xlink:href="#DejaVuSans-29" transform="translate(854.047852 0.765625)"/>
    </g>
   </g>
   <g id="text_10">
    <!-- PD$^+$(X$^2\Pi$)+D($^2$S) -->
    <g style="fill: #ff0000" transform="translate(555.666717 351.623339) scale(0.15 -0.15)">
     <defs>
      <path id="DejaVuSans-3a0" d="M 4184 4666 
L 4184 0 
L 3553 0 
L 3553 4134 
L 1259 4134 
L 1259 0 
L 628 0 
L 628 4666 
L 4184 4666 
z
" transform="scale(0.015625)"/>
      <path id="DejaVuSans-53" d="M 3425 4513 
L 3425 3897 
Q 3066 4069 2747 4153 
Q 2428 4238 2131 4238 
Q 1616 4238 1336 4038 
Q 1056 3838 1056 3469 
Q 1056 3159 1242 3001 
Q 1428 2844 1947 2747 
L 2328 2669 
Q 3034 2534 3370 2195 
Q 3706 1856 3706 1288 
Q 3706 609 3251 259 
Q 2797 -91 1919 -91 
Q 1588 -91 1214 -16 
Q 841 59 441 206 
L 441 856 
Q 825 641 1194 531 
Q 1563 422 1919 422 
Q 2459 422 2753 634 
Q 3047 847 3047 1241 
Q 3047 1584 2836 1778 
Q 2625 1972 2144 2069 
L 1759 2144 
Q 1053 2284 737 2584 
Q 422 2884 422 3419 
Q 422 4038 858 4394 
Q 1294 4750 2059 4750 
Q 2388 4750 2728 4690 
Q 3069 4631 3425 4513 
z
" transform="scale(0.015625)"/>
     </defs>
     <use xlink:href="#DejaVuSans-50" transform="translate(0 0.765625)"/>
     <use xlink:href="#DejaVuSans-44" transform="translate(60.302734 0.765625)"/>
     <use xlink:href="#DejaVuSans-2b" transform="translate(151.899414 39.046875) scale(0.7)"/>
     <use xlink:href="#DejaVuSans-28" transform="translate(226.923828 0.765625)"/>
     <use xlink:href="#DejaVuSans-58" transform="translate(265.9375 0.765625)"/>
     <use xlink:href="#DejaVuSans-32" transform="translate(335.400391 39.046875) scale(0.7)"/>
     <use xlink:href="#DejaVuSans-3a0" transform="translate(382.670898 0.765625)"/>
     <use xlink:href="#DejaVuSans-29" transform="translate(457.866211 0.765625)"/>
     <use xlink:href="#DejaVuSans-2b" transform="translate(496.879883 0.765625)"/>
     <use xlink:href="#DejaVuSans-44" transform="translate(580.668945 0.765625)"/>
     <use xlink:href="#DejaVuSans-28" transform="translate(657.670898 0.765625)"/>
     <use xlink:href="#DejaVuSans-32" transform="translate(697.641602 39.046875) scale(0.7)"/>
     <use xlink:href="#DejaVuSans-53" transform="translate(744.912109 0.765625)"/>
     <use xlink:href="#DejaVuSans-29" transform="translate(808.388672 0.765625)"/>
    </g>
   </g>
   <g id="text_11">
    <!-- PD$^+$(a$^4\Sigma^-$)+D($^2$S) -->
    <g style="fill: #0000ff" transform="translate(555.666717 166.137029) scale(0.15 -0.15)">
     <defs>
      <path id="DejaVuSans-61" d="M 2194 1759 
Q 1497 1759 1228 1600 
Q 959 1441 959 1056 
Q 959 750 1161 570 
Q 1363 391 1709 391 
Q 2188 391 2477 730 
Q 2766 1069 2766 1631 
L 2766 1759 
L 2194 1759 
z
M 3341 1997 
L 3341 0 
L 2766 0 
L 2766 531 
Q 2569 213 2275 61 
Q 1981 -91 1556 -91 
Q 1019 -91 701 211 
Q 384 513 384 1019 
Q 384 1609 779 1909 
Q 1175 2209 1959 2209 
L 2766 2209 
L 2766 2266 
Q 2766 2663 2505 2880 
Q 2244 3097 1772 3097 
Q 1472 3097 1187 3025 
Q 903 2953 641 2809 
L 641 3341 
Q 956 3463 1253 3523 
Q 1550 3584 1831 3584 
Q 2591 3584 2966 3190 
Q 3341 2797 3341 1997 
z
" transform="scale(0.015625)"/>
     </defs>
     <use xlink:href="#DejaVuSans-50" transform="translate(0 0.765625)"/>
     <use xlink:href="#DejaVuSans-44" transform="translate(60.302734 0.765625)"/>
     <use xlink:href="#DejaVuSans-2b" transform="translate(151.899414 39.046875) scale(0.7)"/>
     <use xlink:href="#DejaVuSans-28" transform="translate(226.923828 0.765625)"/>
     <use xlink:href="#DejaVuSans-61" transform="translate(265.9375 0.765625)"/>
     <use xlink:href="#DejaVuSans-34" transform="translate(328.173828 39.046875) scale(0.7)"/>
     <use xlink:href="#DejaVuSans-3a3" transform="translate(375.444336 0.765625)"/>
     <use xlink:href="#DejaVuSans-2212" transform="translate(453.222656 39.046875) scale(0.7)"/>
     <use xlink:href="#DejaVuSans-29" transform="translate(528.24707 0.765625)"/>
     <use xlink:href="#DejaVuSans-2b" transform="translate(567.260742 0.765625)"/>
     <use xlink:href="#DejaVuSans-44" transform="translate(651.049805 0.765625)"/>
     <use xlink:href="#DejaVuSans-28" transform="translate(728.051758 0.765625)"/>
     <use xlink:href="#DejaVuSans-32" transform="translate(768.022461 39.046875) scale(0.7)"/>
     <use xlink:href="#DejaVuSans-53" transform="translate(815.292969 0.765625)"/>
     <use xlink:href="#DejaVuSans-29" transform="translate(878.769531 0.765625)"/>
    </g>
   </g>
   <g id="text_12">
    <!-- -1.044 (-1.235) -->
    <g transform="translate(199.10686 598.106671) scale(0.13 -0.13)">
     <defs>
      <path id="DejaVuSans-2d" d="M 313 2009 
L 1997 2009 
L 1997 1497 
L 313 1497 
L 313 2009 
z
" transform="scale(0.015625)"/>
      <path id="DejaVuSans-2e" d="M 684 794 
L 1344 794 
L 1344 0 
L 684 0 
L 684 794 
z
" transform="scale(0.015625)"/>
      <path id="DejaVuSans-35" d="M 691 4666 
L 3169 4666 
L 3169 4134 
L 1269 4134 
L 1269 2991 
Q 1406 3038 1543 3061 
Q 1681 3084 1819 3084 
Q 2600 3084 3056 2656 
Q 3513 2228 3513 1497 
Q 3513 744 3044 326 
Q 2575 -91 1722 -91 
Q 1428 -91 1123 -41 
Q 819 9 494 109 
L 494 744 
Q 775 591 1075 516 
Q 1375 441 1709 441 
Q 2250 441 2565 725 
Q 2881 1009 2881 1497 
Q 2881 1984 2565 2268 
Q 2250 2553 1709 2553 
Q 1456 2553 1204 2497 
Q 953 2441 691 2322 
L 691 4666 
z
" transform="scale(0.015625)"/>
     </defs>
     <use xlink:href="#DejaVuSans-2d"/>
     <use xlink:href="#DejaVuSans-31" transform="translate(36.083984 0)"/>
     <use xlink:href="#DejaVuSans-2e" transform="translate(99.707031 0)"/>
     <use xlink:href="#DejaVuSans-30" transform="translate(131.494141 0)"/>
     <use xlink:href="#DejaVuSans-34" transform="translate(195.117188 0)"/>
     <use xlink:href="#DejaVuSans-34" transform="translate(258.740234 0)"/>
     <use xlink:href="#DejaVuSans-20" transform="translate(322.363281 0)"/>
     <use xlink:href="#DejaVuSans-28" transform="translate(354.150391 0)"/>
     <use xlink:href="#DejaVuSans-2d" transform="translate(393.164062 0)"/>
     <use xlink:href="#DejaVuSans-31" transform="translate(429.248047 0)"/>
     <use xlink:href="#DejaVuSans-2e" transform="translate(492.871094 0)"/>
     <use xlink:href="#DejaVuSans-32" transform="translate(524.658203 0)"/>
     <use xlink:href="#DejaVuSans-33" transform="translate(588.28125 0)"/>
     <use xlink:href="#DejaVuSans-35" transform="translate(651.904297 0)"/>
     <use xlink:href="#DejaVuSans-29" transform="translate(715.527344 0)"/>
    </g>
   </g>
   <g id="text_13">
    <!-- -0.155 (-0.346) -->
    <g transform="translate(317.960146 499.793383) scale(0.13 -0.13)">
     <defs>
      <path id="DejaVuSans-36" d="M 2113 2584 
Q 1688 2584 1439 2293 
Q 1191 2003 1191 1497 
Q 1191 994 1439 701 
Q 1688 409 2113 409 
Q 2538 409 2786 701 
Q 3034 994 3034 1497 
Q 3034 2003 2786 2293 
Q 2538 2584 2113 2584 
z
M 3366 4563 
L 3366 3988 
Q 3128 4100 2886 4159 
Q 2644 4219 2406 4219 
Q 1781 4219 1451 3797 
Q 1122 3375 1075 2522 
Q 1259 2794 1537 2939 
Q 1816 3084 2150 3084 
Q 2853 3084 3261 2657 
Q 3669 2231 3669 1497 
Q 3669 778 3244 343 
Q 2819 -91 2113 -91 
Q 1303 -91 875 529 
Q 447 1150 447 2328 
Q 447 3434 972 4092 
Q 1497 4750 2381 4750 
Q 2619 4750 2861 4703 
Q 3103 4656 3366 4563 
z
" transform="scale(0.015625)"/>
     </defs>
     <use xlink:href="#DejaVuSans-2d"/>
     <use xlink:href="#DejaVuSans-30" transform="translate(36.083984 0)"/>
     <use xlink:href="#DejaVuSans-2e" transform="translate(99.707031 0)"/>
     <use xlink:href="#DejaVuSans-31" transform="translate(131.494141 0)"/>
     <use xlink:href="#DejaVuSans-35" transform="translate(195.117188 0)"/>
     <use xlink:href="#DejaVuSans-35" transform="translate(258.740234 0)"/>
     <use xlink:href="#DejaVuSans-20" transform="translate(322.363281 0)"/>
     <use xlink:href="#DejaVuSans-28" transform="translate(354.150391 0)"/>
     <use xlink:href="#DejaVuSans-2d" transform="translate(393.164062 0)"/>
     <use xlink:href="#DejaVuSans-30" transform="translate(429.248047 0)"/>
     <use xlink:href="#DejaVuSans-2e" transform="translate(492.871094 0)"/>
     <use xlink:href="#DejaVuSans-33" transform="translate(524.658203 0)"/>
     <use xlink:href="#DejaVuSans-34" transform="translate(588.28125 0)"/>
     <use xlink:href="#DejaVuSans-36" transform="translate(651.904297 0)"/>
     <use xlink:href="#DejaVuSans-29" transform="translate(715.527344 0)"/>
    </g>
   </g>
   <g id="text_14">
    <!-- -1.882 (-2.073) -->
    <g transform="translate(436.813432 690.725916) scale(0.13 -0.13)">
     <defs>
      <path id="DejaVuSans-38" d="M 2034 2216 
Q 1584 2216 1326 1975 
Q 1069 1734 1069 1313 
Q 1069 891 1326 650 
Q 1584 409 2034 409 
Q 2484 409 2743 651 
Q 3003 894 3003 1313 
Q 3003 1734 2745 1975 
Q 2488 2216 2034 2216 
z
M 1403 2484 
Q 997 2584 770 2862 
Q 544 3141 544 3541 
Q 544 4100 942 4425 
Q 1341 4750 2034 4750 
Q 2731 4750 3128 4425 
Q 3525 4100 3525 3541 
Q 3525 3141 3298 2862 
Q 3072 2584 2669 2484 
Q 3125 2378 3379 2068 
Q 3634 1759 3634 1313 
Q 3634 634 3220 271 
Q 2806 -91 2034 -91 
Q 1263 -91 848 271 
Q 434 634 434 1313 
Q 434 1759 690 2068 
Q 947 2378 1403 2484 
z
M 1172 3481 
Q 1172 3119 1398 2916 
Q 1625 2713 2034 2713 
Q 2441 2713 2670 2916 
Q 2900 3119 2900 3481 
Q 2900 3844 2670 4047 
Q 2441 4250 2034 4250 
Q 1625 4250 1398 4047 
Q 1172 3844 1172 3481 
z
" transform="scale(0.015625)"/>
      <path id="DejaVuSans-37" d="M 525 4666 
L 3525 4666 
L 3525 4397 
L 1831 0 
L 1172 0 
L 2766 4134 
L 525 4134 
L 525 4666 
z
" transform="scale(0.015625)"/>
     </defs>
     <use xlink:href="#DejaVuSans-2d"/>
     <use xlink:href="#DejaVuSans-31" transform="translate(36.083984 0)"/>
     <use xlink:href="#DejaVuSans-2e" transform="translate(99.707031 0)"/>
     <use xlink:href="#DejaVuSans-38" transform="translate(131.494141 0)"/>
     <use xlink:href="#DejaVuSans-38" transform="translate(195.117188 0)"/>
     <use xlink:href="#DejaVuSans-32" transform="translate(258.740234 0)"/>
     <use xlink:href="#DejaVuSans-20" transform="translate(322.363281 0)"/>
     <use xlink:href="#DejaVuSans-28" transform="translate(354.150391 0)"/>
     <use xlink:href="#DejaVuSans-2d" transform="translate(393.164062 0)"/>
     <use xlink:href="#DejaVuSans-32" transform="translate(429.248047 0)"/>
     <use xlink:href="#DejaVuSans-2e" transform="translate(492.871094 0)"/>
     <use xlink:href="#DejaVuSans-30" transform="translate(524.658203 0)"/>
     <use xlink:href="#DejaVuSans-37" transform="translate(588.28125 0)"/>
     <use xlink:href="#DejaVuSans-33" transform="translate(651.904297 0)"/>
     <use xlink:href="#DejaVuSans-29" transform="translate(715.527344 0)"/>
    </g>
   </g>
   <g id="text_15">
    <!-- 0.155 (-0.036) -->
    <g transform="translate(369.958458 465.536852) scale(0.13 -0.13)">
     <use xlink:href="#DejaVuSans-30"/>
     <use xlink:href="#DejaVuSans-2e" transform="translate(63.623047 0)"/>
     <use xlink:href="#DejaVuSans-31" transform="translate(95.410156 0)"/>
     <use xlink:href="#DejaVuSans-35" transform="translate(159.033203 0)"/>
     <use xlink:href="#DejaVuSans-35" transform="translate(222.65625 0)"/>
     <use xlink:href="#DejaVuSans-20" transform="translate(286.279297 0)"/>
     <use xlink:href="#DejaVuSans-28" transform="translate(318.066406 0)"/>
     <use xlink:href="#DejaVuSans-2d" transform="translate(357.080078 0)"/>
     <use xlink:href="#DejaVuSans-30" transform="translate(393.164062 0)"/>
     <use xlink:href="#DejaVuSans-2e" transform="translate(456.787109 0)"/>
     <use xlink:href="#DejaVuSans-30" transform="translate(488.574219 0)"/>
     <use xlink:href="#DejaVuSans-33" transform="translate(552.197266 0)"/>
     <use xlink:href="#DejaVuSans-36" transform="translate(615.820312 0)"/>
     <use xlink:href="#DejaVuSans-29" transform="translate(679.443359 0)"/>
    </g>
   </g>
   <g id="text_16">
    <!-- 2.924 (2.733) -->
    <g transform="translate(251.290881 159.254891) scale(0.13 -0.13)">
     <defs>
      <path id="DejaVuSans-39" d="M 703 97 
L 703 672 
Q 941 559 1184 500 
Q 1428 441 1663 441 
Q 2288 441 2617 861 
Q 2947 1281 2994 2138 
Q 2813 1869 2534 1725 
Q 2256 1581 1919 1581 
Q 1219 1581 811 2004 
Q 403 2428 403 3163 
Q 403 3881 828 4315 
Q 1253 4750 1959 4750 
Q 2769 4750 3195 4129 
Q 3622 3509 3622 2328 
Q 3622 1225 3098 567 
Q 2575 -91 1691 -91 
Q 1453 -91 1209 -44 
Q 966 3 703 97 
z
M 1959 2075 
Q 2384 2075 2632 2365 
Q 2881 2656 2881 3163 
Q 2881 3666 2632 3958 
Q 2384 4250 1959 4250 
Q 1534 4250 1286 3958 
Q 1038 3666 1038 3163 
Q 1038 2656 1286 2365 
Q 1534 2075 1959 2075 
z
" transform="scale(0.015625)"/>
     </defs>
     <use xlink:href="#DejaVuSans-32"/>
     <use xlink:href="#DejaVuSans-2e" transform="translate(63.623047 0)"/>
     <use xlink:href="#DejaVuSans-39" transform="translate(95.410156 0)"/>
     <use xlink:href="#DejaVuSans-32" transform="translate(159.033203 0)"/>
     <use xlink:href="#DejaVuSans-34" transform="translate(222.65625 0)"/>
     <use xlink:href="#DejaVuSans-20" transform="translate(286.279297 0)"/>
     <use xlink:href="#DejaVuSans-28" transform="translate(318.066406 0)"/>
     <use xlink:href="#DejaVuSans-32" transform="translate(357.080078 0)"/>
     <use xlink:href="#DejaVuSans-2e" transform="translate(420.703125 0)"/>
     <use xlink:href="#DejaVuSans-37" transform="translate(452.490234 0)"/>
     <use xlink:href="#DejaVuSans-33" transform="translate(516.113281 0)"/>
     <use xlink:href="#DejaVuSans-33" transform="translate(579.736328 0)"/>
     <use xlink:href="#DejaVuSans-29" transform="translate(643.359375 0)"/>
    </g>
   </g>
   <g id="text_17">
    <!-- 3.859 (3.668) -->
    <g transform="translate(318.331562 55.816825) scale(0.13 -0.13)">
     <use xlink:href="#DejaVuSans-33"/>
     <use xlink:href="#DejaVuSans-2e" transform="translate(63.623047 0)"/>
     <use xlink:href="#DejaVuSans-38" transform="translate(95.410156 0)"/>
     <use xlink:href="#DejaVuSans-35" transform="translate(159.033203 0)"/>
     <use xlink:href="#DejaVuSans-39" transform="translate(222.65625 0)"/>
     <use xlink:href="#DejaVuSans-20" transform="translate(286.279297 0)"/>
     <use xlink:href="#DejaVuSans-28" transform="translate(318.066406 0)"/>
     <use xlink:href="#DejaVuSans-33" transform="translate(357.080078 0)"/>
     <use xlink:href="#DejaVuSans-2e" transform="translate(420.703125 0)"/>
     <use xlink:href="#DejaVuSans-36" transform="translate(452.490234 0)"/>
     <use xlink:href="#DejaVuSans-36" transform="translate(516.113281 0)"/>
     <use xlink:href="#DejaVuSans-38" transform="translate(579.736328 0)"/>
     <use xlink:href="#DejaVuSans-29" transform="translate(643.359375 0)"/>
    </g>
   </g>
   <g id="text_18">
    <!-- 1.215 (1.024) -->
    <g transform="translate(556.038134 318.444913) scale(0.13 -0.13)">
     <use xlink:href="#DejaVuSans-31"/>
     <use xlink:href="#DejaVuSans-2e" transform="translate(63.623047 0)"/>
     <use xlink:href="#DejaVuSans-32" transform="translate(95.410156 0)"/>
     <use xlink:href="#DejaVuSans-31" transform="translate(159.033203 0)"/>
     <use xlink:href="#DejaVuSans-35" transform="translate(222.65625 0)"/>
     <use xlink:href="#DejaVuSans-20" transform="translate(286.279297 0)"/>
     <use xlink:href="#DejaVuSans-28" transform="translate(318.066406 0)"/>
     <use xlink:href="#DejaVuSans-31" transform="translate(357.080078 0)"/>
     <use xlink:href="#DejaVuSans-2e" transform="translate(420.703125 0)"/>
     <use xlink:href="#DejaVuSans-30" transform="translate(452.490234 0)"/>
     <use xlink:href="#DejaVuSans-32" transform="translate(516.113281 0)"/>
     <use xlink:href="#DejaVuSans-34" transform="translate(579.736328 0)"/>
     <use xlink:href="#DejaVuSans-29" transform="translate(643.359375 0)"/>
    </g>
   </g>
   <g id="text_19">
    <!-- 2.892 (2.701) -->
    <g transform="translate(556.038134 138.488341) scale(0.13 -0.13)">
     <use xlink:href="#DejaVuSans-32"/>
     <use xlink:href="#DejaVuSans-2e" transform="translate(63.623047 0)"/>
     <use xlink:href="#DejaVuSans-38" transform="translate(95.410156 0)"/>
     <use xlink:href="#DejaVuSans-39" transform="translate(159.033203 0)"/>
     <use xlink:href="#DejaVuSans-32" transform="translate(222.65625 0)"/>
     <use xlink:href="#DejaVuSans-20" transform="translate(286.279297 0)"/>
     <use xlink:href="#DejaVuSans-28" transform="translate(318.066406 0)"/>
     <use xlink:href="#DejaVuSans-32" transform="translate(357.080078 0)"/>
     <use xlink:href="#DejaVuSans-2e" transform="translate(420.703125 0)"/>
     <use xlink:href="#DejaVuSans-37" transform="translate(452.490234 0)"/>
     <use xlink:href="#DejaVuSans-30" transform="translate(516.113281 0)"/>
     <use xlink:href="#DejaVuSans-31" transform="translate(579.736328 0)"/>
     <use xlink:href="#DejaVuSans-29" transform="translate(643.359375 0)"/>
    </g>
   </g>
   <g id="legend_1">
    <g id="line2d_17">
     <path d="M 424.06808 28.32 
L 448.06808 28.32 
" style="fill: none; stroke: #b8860b; stroke-width: 3"/>
    </g>
    <g id="text_20">
     <!-- PD$_2^+$ (1$^3$A') -->
     <g transform="translate(457.66808 32.52) scale(0.12 -0.12)">
      <defs>
       <path id="DejaVuSans-41" d="M 2188 4044 
L 1331 1722 
L 3047 1722 
L 2188 4044 
z
M 1831 4666 
L 2547 4666 
L 4325 0 
L 3669 0 
L 3244 1197 
L 1141 1197 
L 716 0 
L 50 0 
L 1831 4666 
z
" transform="scale(0.015625)"/>
       <path id="DejaVuSans-27" d="M 1147 4666 
L 1147 2931 
L 616 2931 
L 616 4666 
L 1147 4666 
z
" transform="scale(0.015625)"/>
      </defs>
      <use xlink:href="#DejaVuSans-50" transform="translate(0 0.765625)"/>
      <use xlink:href="#DejaVuSans-44" transform="translate(60.302734 0.765625)"/>
      <use xlink:href="#DejaVuSans-2b" transform="translate(151.899414 39.046875) scale(0.7)"/>
      <use xlink:href="#DejaVuSans-32" transform="translate(138.261719 -26.578125) scale(0.7)"/>
      <use xlink:href="#DejaVuSans-20" transform="translate(226.923828 0.765625)"/>
      <use xlink:href="#DejaVuSans-28" transform="translate(258.710938 0.765625)"/>
      <use xlink:href="#DejaVuSans-31" transform="translate(297.724609 0.765625)"/>
      <use xlink:href="#DejaVuSans-33" transform="translate(362.304688 39.046875) scale(0.7)"/>
      <use xlink:href="#DejaVuSans-41" transform="translate(409.575195 0.765625)"/>
      <use xlink:href="#DejaVuSans-27" transform="translate(477.983398 0.765625)"/>
      <use xlink:href="#DejaVuSans-29" transform="translate(505.473633 0.765625)"/>
     </g>
    </g>
    <g id="line2d_18">
     <path d="M 424.06808 48.6 
L 448.06808 48.6 
" style="fill: none; stroke: #00ff00; stroke-width: 3"/>
    </g>
    <g id="text_21">
     <!-- PD$_2^+$ (1$^3$A'') -->
     <g transform="translate(457.66808 52.8) scale(0.12 -0.12)">
      <use xlink:href="#DejaVuSans-50" transform="translate(0 0.765625)"/>
      <use xlink:href="#DejaVuSans-44" transform="translate(60.302734 0.765625)"/>
      <use xlink:href="#DejaVuSans-2b" transform="translate(151.899414 39.046875) scale(0.7)"/>
      <use xlink:href="#DejaVuSans-32" transform="translate(138.261719 -26.578125) scale(0.7)"/>
      <use xlink:href="#DejaVuSans-20" transform="translate(226.923828 0.765625)"/>
      <use xlink:href="#DejaVuSans-28" transform="translate(258.710938 0.765625)"/>
      <use xlink:href="#DejaVuSans-31" transform="translate(297.724609 0.765625)"/>
      <use xlink:href="#DejaVuSans-33" transform="translate(362.304688 39.046875) scale(0.7)"/>
      <use xlink:href="#DejaVuSans-41" transform="translate(409.575195 0.765625)"/>
      <use xlink:href="#DejaVuSans-27" transform="translate(477.983398 0.765625)"/>
      <use xlink:href="#DejaVuSans-27" transform="translate(505.473633 0.765625)"/>
      <use xlink:href="#DejaVuSans-29" transform="translate(532.963867 0.765625)"/>
     </g>
    </g>
    <g id="line2d_19">
     <path d="M 424.06808 68.88 
L 448.06808 68.88 
" style="fill: none; stroke: #00ced1; stroke-width: 3"/>
    </g>
    <g id="text_22">
     <!-- PD$_2^+$ (2$^3$A'') -->
     <g transform="translate(457.66808 73.08) scale(0.12 -0.12)">
      <use xlink:href="#DejaVuSans-50" transform="translate(0 0.765625)"/>
      <use xlink:href="#DejaVuSans-44" transform="translate(60.302734 0.765625)"/>
      <use xlink:href="#DejaVuSans-2b" transform="translate(151.899414 39.046875) scale(0.7)"/>
      <use xlink:href="#DejaVuSans-32" transform="translate(138.261719 -26.578125) scale(0.7)"/>
      <use xlink:href="#DejaVuSans-20" transform="translate(226.923828 0.765625)"/>
      <use xlink:href="#DejaVuSans-28" transform="translate(258.710938 0.765625)"/>
      <use xlink:href="#DejaVuSans-32" transform="translate(297.724609 0.765625)"/>
      <use xlink:href="#DejaVuSans-33" transform="translate(362.304688 39.046875) scale(0.7)"/>
      <use xlink:href="#DejaVuSans-41" transform="translate(409.575195 0.765625)"/>
      <use xlink:href="#DejaVuSans-27" transform="translate(477.983398 0.765625)"/>
      <use xlink:href="#DejaVuSans-27" transform="translate(505.473633 0.765625)"/>
      <use xlink:href="#DejaVuSans-29" transform="translate(532.963867 0.765625)"/>
     </g>
    </g>
    <g id="line2d_20">
     <path d="M 550.30808 28.32 
L 574.30808 28.32 
" style="fill: none; stroke-dasharray: 7.4,3.2; stroke-dashoffset: 0; stroke: #000000; stroke-width: 2"/>
    </g>
    <g id="text_23">
     <!-- ZPE D$_2$(X$^1\Sigma^+$) -->
     <g transform="translate(583.90808 32.52) scale(0.12 -0.12)">
      <defs>
       <path id="DejaVuSans-5a" d="M 359 4666 
L 4025 4666 
L 4025 4184 
L 1075 531 
L 4097 531 
L 4097 0 
L 288 0 
L 288 481 
L 3238 4134 
L 359 4134 
L 359 4666 
z
" transform="scale(0.015625)"/>
      </defs>
      <use xlink:href="#DejaVuSans-5a" transform="translate(0 0.684375)"/>
      <use xlink:href="#DejaVuSans-50" transform="translate(68.505859 0.684375)"/>
      <use xlink:href="#DejaVuSans-45" transform="translate(128.808594 0.684375)"/>
      <use xlink:href="#DejaVuSans-20" transform="translate(191.992188 0.684375)"/>
      <use xlink:href="#DejaVuSans-44" transform="translate(223.779297 0.684375)"/>
      <use xlink:href="#DejaVuSans-32" transform="translate(301.738281 -15.721875) scale(0.7)"/>
      <use xlink:href="#DejaVuSans-28" transform="translate(349.008789 0.684375)"/>
      <use xlink:href="#DejaVuSans-58" transform="translate(388.022461 0.684375)"/>
      <use xlink:href="#DejaVuSans-31" transform="translate(457.485352 38.965625) scale(0.7)"/>
      <use xlink:href="#DejaVuSans-3a3" transform="translate(504.755859 0.684375)"/>
      <use xlink:href="#DejaVuSans-2b" transform="translate(582.53418 38.965625) scale(0.7)"/>
      <use xlink:href="#DejaVuSans-29" transform="translate(657.558594 0.684375)"/>
     </g>
    </g>
    <g id="line2d_21">
     <path d="M 550.30808 46.92 
L 574.30808 46.92 
" style="fill: none; stroke-dasharray: 7.4,3.2; stroke-dashoffset: 0; stroke: #ff0000; stroke-width: 2"/>
    </g>
    <g id="text_24">
     <!-- ZPE PD$^+$(X$^2\Pi$) -->
     <g transform="translate(583.90808 51.12) scale(0.12 -0.12)">
      <use xlink:href="#DejaVuSans-5a" transform="translate(0 0.765625)"/>
      <use xlink:href="#DejaVuSans-50" transform="translate(68.505859 0.765625)"/>
      <use xlink:href="#DejaVuSans-45" transform="translate(128.808594 0.765625)"/>
      <use xlink:href="#DejaVuSans-20" transform="translate(191.992188 0.765625)"/>
      <use xlink:href="#DejaVuSans-50" transform="translate(223.779297 0.765625)"/>
      <use xlink:href="#DejaVuSans-44" transform="translate(284.082031 0.765625)"/>
      <use xlink:href="#DejaVuSans-2b" transform="translate(375.678711 39.046875) scale(0.7)"/>
      <use xlink:href="#DejaVuSans-28" transform="translate(450.703125 0.765625)"/>
      <use xlink:href="#DejaVuSans-58" transform="translate(489.716797 0.765625)"/>
      <use xlink:href="#DejaVuSans-32" transform="translate(559.179688 39.046875) scale(0.7)"/>
      <use xlink:href="#DejaVuSans-3a0" transform="translate(606.450195 0.765625)"/>
      <use xlink:href="#DejaVuSans-29" transform="translate(681.645508 0.765625)"/>
     </g>
    </g>
    <g id="line2d_22">
     <path d="M 550.30808 65.4 
L 574.30808 65.4 
" style="fill: none; stroke-dasharray: 7.4,3.2; stroke-dashoffset: 0; stroke: #0000ff; stroke-width: 2"/>
    </g>
    <g id="text_25">
     <!-- ZPE PD$^+$(a$^4\Sigma^-$) -->
     <g transform="translate(583.90808 69.6) scale(0.12 -0.12)">
      <use xlink:href="#DejaVuSans-5a" transform="translate(0 0.684375)"/>
      <use xlink:href="#DejaVuSans-50" transform="translate(68.505859 0.684375)"/>
      <use xlink:href="#DejaVuSans-45" transform="translate(128.808594 0.684375)"/>
      <use xlink:href="#DejaVuSans-20" transform="translate(191.992188 0.684375)"/>
      <use xlink:href="#DejaVuSans-50" transform="translate(223.779297 0.684375)"/>
      <use xlink:href="#DejaVuSans-44" transform="translate(284.082031 0.684375)"/>
      <use xlink:href="#DejaVuSans-2b" transform="translate(375.678711 38.965625) scale(0.7)"/>
      <use xlink:href="#DejaVuSans-28" transform="translate(450.703125 0.684375)"/>
      <use xlink:href="#DejaVuSans-61" transform="translate(489.716797 0.684375)"/>
      <use xlink:href="#DejaVuSans-34" transform="translate(551.953125 38.965625) scale(0.7)"/>
      <use xlink:href="#DejaVuSans-3a3" transform="translate(599.223633 0.684375)"/>
      <use xlink:href="#DejaVuSans-2212" transform="translate(677.001953 38.965625) scale(0.7)"/>
      <use xlink:href="#DejaVuSans-29" transform="translate(752.026367 0.684375)"/>
     </g>
    </g>
   </g>
  </g>
 </g>
 <defs>
  <clipPath id="p789671e153">
   <rect x="58.34" y="10.8" width="631.40808" height="698.4"/>
  </clipPath>
 </defs>
</svg>
