<?xml version="1.0" encoding="utf-8" standalone="no"?>
<!DOCTYPE svg PUBLIC "-//W3C//DTD SVG 1.1//EN"
  "http://www.w3.org/Graphics/SVG/1.1/DTD/svg11.dtd">
<svg xmlns:xlink="http://www.w3.org/1999/xlink" width="864pt" height="576pt" viewBox="0 0 864 576" xmlns="http://www.w3.org/2000/svg" version="1.1">
 <metadata>
  <rdf:RDF xmlns:dc="http://purl.org/dc/elements/1.1/" xmlns:cc="http://creativecommons.org/ns#" xmlns:rdf="http://www.w3.org/1999/02/22-rdf-syntax-ns#">
   <cc:Work>
    <dc:type rdf:resource="http://purl.org/dc/dcmitype/StillImage"/>
    <dc:date>2025-10-01T13:55:56.309708</dc:date>
    <dc:format>image/svg+xml</dc:format>
    <dc:creator>
     <cc:Agent>
      <dc:title>Matplotlib v3.10.0, https://matplotlib.org/</dc:title>
     </cc:Agent>
    </dc:creator>
   </cc:Work>
  </rdf:RDF>
 </metadata>
 <defs>
  <style type="text/css">*{stroke-linejoin: round; stroke-linecap: butt}</style>
 </defs>
 <g id="figure_1">
  <g id="patch_1">
   <path d="M 0 576 
L 864 576 
L 864 0 
L 0 0 
L 0 576 
z
" style="fill: none"/>
  </g>
  <g id="axes_1">
   <g id="patch_2">
    <path d="M 65.81 517.624 
L 853.2 517.624 
L 853.2 10.934881 
L 65.81 10.934881 
L 65.81 517.624 
z
" style="fill: none"/>
   </g>
   <g id="patch_3">
    <path d="M 753.843487 346.507962 
L 756.607229 358.305338 
L 754.534423 358.305338 
L 754.534423 489.256213 
L 753.152552 489.256213 
L 753.152552 358.305338 
L 751.079746 358.305338 
z
" clip-path="url(#p66dd463e26)" style="fill: #ab750b; stroke: #ab750b; stroke-linejoin: miter"/>
   </g>
   <g id="patch_4">
    <path d="M 753.843487 489.256213 
L 751.079746 477.458837 
L 753.152552 477.458837 
L 753.152552 346.507962 
L 754.534423 346.507962 
L 754.534423 477.458837 
L 756.607229 477.458837 
z
" clip-path="url(#p66dd463e26)" style="fill: #ab750b; stroke: #ab750b; stroke-linejoin: miter"/>
   </g>
   <g id="matplotlib.axis_1">
    <g id="xtick_1">
     <g id="line2d_1">
      <defs>
       <path id="m2f399c8f14" d="M 0 0 
L 0 3.5 
" style="stroke: #000000; stroke-width: 0.8"/>
      </defs>
      <g>
       <use xlink:href="#m2f399c8f14" x="201.095154" y="517.624" style="stroke: #000000; stroke-width: 0.8"/>
      </g>
     </g>
     <g id="text_1">
      <!-- −10 -->
      <g transform="translate(185.266639 536.021656) scale(0.15 -0.15)">
       <defs>
        <path id="DejaVuSans-2212" d="M 678 2272 
L 4684 2272 
L 4684 1741 
L 678 1741 
L 678 2272 
z
" transform="scale(0.015625)"/>
        <path id="DejaVuSans-31" d="M 794 531 
L 1825 531 
L 1825 4091 
L 703 3866 
L 703 4441 
L 1819 4666 
L 2450 4666 
L 2450 531 
L 3481 531 
L 3481 0 
L 794 0 
L 794 531 
z
" transform="scale(0.015625)"/>
        <path id="DejaVuSans-30" d="M 2034 4250 
Q 1547 4250 1301 3770 
Q 1056 3291 1056 2328 
Q 1056 1369 1301 889 
Q 1547 409 2034 409 
Q 2525 409 2770 889 
Q 3016 1369 3016 2328 
Q 3016 3291 2770 3770 
Q 2525 4250 2034 4250 
z
M 2034 4750 
Q 2819 4750 3233 4129 
Q 3647 3509 3647 2328 
Q 3647 1150 3233 529 
Q 2819 -91 2034 -91 
Q 1250 -91 836 529 
Q 422 1150 422 2328 
Q 422 3509 836 4129 
Q 1250 4750 2034 4750 
z
" transform="scale(0.015625)"/>
       </defs>
       <use xlink:href="#DejaVuSans-2212"/>
       <use xlink:href="#DejaVuSans-31" transform="translate(83.789062 0)"/>
       <use xlink:href="#DejaVuSans-30" transform="translate(147.412109 0)"/>
      </g>
     </g>
    </g>
    <g id="xtick_2">
     <g id="line2d_2">
      <g>
       <use xlink:href="#m2f399c8f14" x="339.282238" y="517.624" style="stroke: #000000; stroke-width: 0.8"/>
      </g>
     </g>
     <g id="text_2">
      <!-- −5 -->
      <g transform="translate(328.225597 536.021656) scale(0.15 -0.15)">
       <defs>
        <path id="DejaVuSans-35" d="M 691 4666 
L 3169 4666 
L 3169 4134 
L 1269 4134 
L 1269 2991 
Q 1406 3038 1543 3061 
Q 1681 3084 1819 3084 
Q 2600 3084 3056 2656 
Q 3513 2228 3513 1497 
Q 3513 744 3044 326 
Q 2575 -91 1722 -91 
Q 1428 -91 1123 -41 
Q 819 9 494 109 
L 494 744 
Q 775 591 1075 516 
Q 1375 441 1709 441 
Q 2250 441 2565 725 
Q 2881 1009 2881 1497 
Q 2881 1984 2565 2268 
Q 2250 2553 1709 2553 
Q 1456 2553 1204 2497 
Q 953 2441 691 2322 
L 691 4666 
z
" transform="scale(0.015625)"/>
       </defs>
       <use xlink:href="#DejaVuSans-2212"/>
       <use xlink:href="#DejaVuSans-35" transform="translate(83.789062 0)"/>
      </g>
     </g>
    </g>
    <g id="xtick_3">
     <g id="line2d_3">
      <g>
       <use xlink:href="#m2f399c8f14" x="477.469321" y="517.624" style="stroke: #000000; stroke-width: 0.8"/>
      </g>
     </g>
     <g id="text_3">
      <!-- 0 -->
      <g transform="translate(472.697446 536.021656) scale(0.15 -0.15)">
       <use xlink:href="#DejaVuSans-30"/>
      </g>
     </g>
    </g>
    <g id="xtick_4">
     <g id="line2d_4">
      <g>
       <use xlink:href="#m2f399c8f14" x="615.656404" y="517.624" style="stroke: #000000; stroke-width: 0.8"/>
      </g>
     </g>
     <g id="text_4">
      <!-- 5 -->
      <g transform="translate(610.884529 536.021656) scale(0.15 -0.15)">
       <use xlink:href="#DejaVuSans-35"/>
      </g>
     </g>
    </g>
    <g id="xtick_5">
     <g id="line2d_5">
      <g>
       <use xlink:href="#m2f399c8f14" x="753.843487" y="517.624" style="stroke: #000000; stroke-width: 0.8"/>
      </g>
     </g>
     <g id="text_5">
      <!-- 10 -->
      <g transform="translate(744.299737 536.021656) scale(0.15 -0.15)">
       <use xlink:href="#DejaVuSans-31"/>
       <use xlink:href="#DejaVuSans-30" transform="translate(63.623047 0)"/>
      </g>
     </g>
    </g>
    <g id="text_6">
     <!-- r$_{23}$-r$_{12}$ (a$_o$) -->
     <g transform="translate(407.305 558.338062) scale(0.2 -0.2)">
      <defs>
       <path id="DejaVuSans-72" d="M 2631 2963 
Q 2534 3019 2420 3045 
Q 2306 3072 2169 3072 
Q 1681 3072 1420 2755 
Q 1159 2438 1159 1844 
L 1159 0 
L 581 0 
L 581 3500 
L 1159 3500 
L 1159 2956 
Q 1341 3275 1631 3429 
Q 1922 3584 2338 3584 
Q 2397 3584 2469 3576 
Q 2541 3569 2628 3553 
L 2631 2963 
z
" transform="scale(0.015625)"/>
       <path id="DejaVuSans-32" d="M 1228 531 
L 3431 531 
L 3431 0 
L 469 0 
L 469 531 
Q 828 903 1448 1529 
Q 2069 2156 2228 2338 
Q 2531 2678 2651 2914 
Q 2772 3150 2772 3378 
Q 2772 3750 2511 3984 
Q 2250 4219 1831 4219 
Q 1534 4219 1204 4116 
Q 875 4013 500 3803 
L 500 4441 
Q 881 4594 1212 4672 
Q 1544 4750 1819 4750 
Q 2544 4750 2975 4387 
Q 3406 4025 3406 3419 
Q 3406 3131 3298 2873 
Q 3191 2616 2906 2266 
Q 2828 2175 2409 1742 
Q 1991 1309 1228 531 
z
" transform="scale(0.015625)"/>
       <path id="DejaVuSans-33" d="M 2597 2516 
Q 3050 2419 3304 2112 
Q 3559 1806 3559 1356 
Q 3559 666 3084 287 
Q 2609 -91 1734 -91 
Q 1441 -91 1130 -33 
Q 819 25 488 141 
L 488 750 
Q 750 597 1062 519 
Q 1375 441 1716 441 
Q 2309 441 2620 675 
Q 2931 909 2931 1356 
Q 2931 1769 2642 2001 
Q 2353 2234 1838 2234 
L 1294 2234 
L 1294 2753 
L 1863 2753 
Q 2328 2753 2575 2939 
Q 2822 3125 2822 3475 
Q 2822 3834 2567 4026 
Q 2313 4219 1838 4219 
Q 1578 4219 1281 4162 
Q 984 4106 628 3988 
L 628 4550 
Q 988 4650 1302 4700 
Q 1616 4750 1894 4750 
Q 2613 4750 3031 4423 
Q 3450 4097 3450 3541 
Q 3450 3153 3228 2886 
Q 3006 2619 2597 2516 
z
" transform="scale(0.015625)"/>
       <path id="DejaVuSans-2d" d="M 313 2009 
L 1997 2009 
L 1997 1497 
L 313 1497 
L 313 2009 
z
" transform="scale(0.015625)"/>
       <path id="DejaVuSans-20" transform="scale(0.015625)"/>
       <path id="DejaVuSans-28" d="M 1984 4856 
Q 1566 4138 1362 3434 
Q 1159 2731 1159 2009 
Q 1159 1288 1364 580 
Q 1569 -128 1984 -844 
L 1484 -844 
Q 1016 -109 783 600 
Q 550 1309 550 2009 
Q 550 2706 781 3412 
Q 1013 4119 1484 4856 
L 1984 4856 
z
" transform="scale(0.015625)"/>
       <path id="DejaVuSans-61" d="M 2194 1759 
Q 1497 1759 1228 1600 
Q 959 1441 959 1056 
Q 959 750 1161 570 
Q 1363 391 1709 391 
Q 2188 391 2477 730 
Q 2766 1069 2766 1631 
L 2766 1759 
L 2194 1759 
z
M 3341 1997 
L 3341 0 
L 2766 0 
L 2766 531 
Q 2569 213 2275 61 
Q 1981 -91 1556 -91 
Q 1019 -91 701 211 
Q 384 513 384 1019 
Q 384 1609 779 1909 
Q 1175 2209 1959 2209 
L 2766 2209 
L 2766 2266 
Q 2766 2663 2505 2880 
Q 2244 3097 1772 3097 
Q 1472 3097 1187 3025 
Q 903 2953 641 2809 
L 641 3341 
Q 956 3463 1253 3523 
Q 1550 3584 1831 3584 
Q 2591 3584 2966 3190 
Q 3341 2797 3341 1997 
z
" transform="scale(0.015625)"/>
       <path id="DejaVuSans-Oblique-6f" d="M 1625 -91 
Q 1009 -91 651 289 
Q 294 669 294 1325 
Q 294 1706 417 2101 
Q 541 2497 738 2766 
Q 1047 3184 1428 3384 
Q 1809 3584 2291 3584 
Q 2888 3584 3255 3212 
Q 3622 2841 3622 2241 
Q 3622 1825 3500 1412 
Q 3378 1000 3181 728 
Q 2875 309 2494 109 
Q 2113 -91 1625 -91 
z
M 891 1344 
Q 891 869 1089 633 
Q 1288 397 1691 397 
Q 2269 397 2648 901 
Q 3028 1406 3028 2181 
Q 3028 2634 2825 2865 
Q 2622 3097 2228 3097 
Q 1903 3097 1650 2945 
Q 1397 2794 1197 2484 
Q 1050 2253 970 1956 
Q 891 1659 891 1344 
z
" transform="scale(0.015625)"/>
       <path id="DejaVuSans-29" d="M 513 4856 
L 1013 4856 
Q 1481 4119 1714 3412 
Q 1947 2706 1947 2009 
Q 1947 1309 1714 600 
Q 1481 -109 1013 -844 
L 513 -844 
Q 928 -128 1133 580 
Q 1338 1288 1338 2009 
Q 1338 2731 1133 3434 
Q 928 4138 513 4856 
z
" transform="scale(0.015625)"/>
      </defs>
      <use xlink:href="#DejaVuSans-72" transform="translate(0 0.125)"/>
      <use xlink:href="#DejaVuSans-32" transform="translate(42.070312 -16.28125) scale(0.7)"/>
      <use xlink:href="#DejaVuSans-33" transform="translate(86.606445 -16.28125) scale(0.7)"/>
      <use xlink:href="#DejaVuSans-2d" transform="translate(133.876953 0.125)"/>
      <use xlink:href="#DejaVuSans-72" transform="translate(169.960938 0.125)"/>
      <use xlink:href="#DejaVuSans-31" transform="translate(212.03125 -16.28125) scale(0.7)"/>
      <use xlink:href="#DejaVuSans-32" transform="translate(256.567383 -16.28125) scale(0.7)"/>
      <use xlink:href="#DejaVuSans-20" transform="translate(303.837891 0.125)"/>
      <use xlink:href="#DejaVuSans-28" transform="translate(335.625 0.125)"/>
      <use xlink:href="#DejaVuSans-61" transform="translate(374.638672 0.125)"/>
      <use xlink:href="#DejaVuSans-Oblique-6f" transform="translate(436.875 -16.28125) scale(0.7)"/>
      <use xlink:href="#DejaVuSans-29" transform="translate(482.436523 0.125)"/>
     </g>
    </g>
   </g>
   <g id="matplotlib.axis_2">
    <g id="ytick_1">
     <g id="line2d_6">
      <defs>
       <path id="m618ed7245a" d="M 0 0 
L -3.5 0 
" style="stroke: #000000; stroke-width: 0.8"/>
      </defs>
      <g>
       <use xlink:href="#m618ed7245a" x="65.81" y="489.256213" style="stroke: #000000; stroke-width: 0.8"/>
      </g>
     </g>
     <g id="text_7">
      <!-- 0.0 -->
      <g transform="translate(34.955313 494.955041) scale(0.15 -0.15)">
       <defs>
        <path id="DejaVuSans-2e" d="M 684 794 
L 1344 794 
L 1344 0 
L 684 0 
L 684 794 
z
" transform="scale(0.015625)"/>
       </defs>
       <use xlink:href="#DejaVuSans-30"/>
       <use xlink:href="#DejaVuSans-2e" transform="translate(63.623047 0)"/>
       <use xlink:href="#DejaVuSans-30" transform="translate(95.410156 0)"/>
      </g>
     </g>
    </g>
    <g id="ytick_2">
     <g id="line2d_7">
      <g>
       <use xlink:href="#m618ed7245a" x="65.81" y="430.269332" style="stroke: #000000; stroke-width: 0.8"/>
      </g>
     </g>
     <g id="text_8">
      <!-- 0.5 -->
      <g transform="translate(34.955313 435.96816) scale(0.15 -0.15)">
       <use xlink:href="#DejaVuSans-30"/>
       <use xlink:href="#DejaVuSans-2e" transform="translate(63.623047 0)"/>
       <use xlink:href="#DejaVuSans-35" transform="translate(95.410156 0)"/>
      </g>
     </g>
    </g>
    <g id="ytick_3">
     <g id="line2d_8">
      <g>
       <use xlink:href="#m618ed7245a" x="65.81" y="371.282451" style="stroke: #000000; stroke-width: 0.8"/>
      </g>
     </g>
     <g id="text_9">
      <!-- 1.0 -->
      <g transform="translate(34.955313 376.98128) scale(0.15 -0.15)">
       <use xlink:href="#DejaVuSans-31"/>
       <use xlink:href="#DejaVuSans-2e" transform="translate(63.623047 0)"/>
       <use xlink:href="#DejaVuSans-30" transform="translate(95.410156 0)"/>
      </g>
     </g>
    </g>
    <g id="ytick_4">
     <g id="line2d_9">
      <g>
       <use xlink:href="#m618ed7245a" x="65.81" y="312.295571" style="stroke: #000000; stroke-width: 0.8"/>
      </g>
     </g>
     <g id="text_10">
      <!-- 1.5 -->
      <g transform="translate(34.955313 317.994399) scale(0.15 -0.15)">
       <use xlink:href="#DejaVuSans-31"/>
       <use xlink:href="#DejaVuSans-2e" transform="translate(63.623047 0)"/>
       <use xlink:href="#DejaVuSans-35" transform="translate(95.410156 0)"/>
      </g>
     </g>
    </g>
    <g id="ytick_5">
     <g id="line2d_10">
      <g>
       <use xlink:href="#m618ed7245a" x="65.81" y="253.30869" style="stroke: #000000; stroke-width: 0.8"/>
      </g>
     </g>
     <g id="text_11">
      <!-- 2.0 -->
      <g transform="translate(34.955313 259.007518) scale(0.15 -0.15)">
       <use xlink:href="#DejaVuSans-32"/>
       <use xlink:href="#DejaVuSans-2e" transform="translate(63.623047 0)"/>
       <use xlink:href="#DejaVuSans-30" transform="translate(95.410156 0)"/>
      </g>
     </g>
    </g>
    <g id="ytick_6">
     <g id="line2d_11">
      <g>
       <use xlink:href="#m618ed7245a" x="65.81" y="194.321809" style="stroke: #000000; stroke-width: 0.8"/>
      </g>
     </g>
     <g id="text_12">
      <!-- 2.5 -->
      <g transform="translate(34.955313 200.020638) scale(0.15 -0.15)">
       <use xlink:href="#DejaVuSans-32"/>
       <use xlink:href="#DejaVuSans-2e" transform="translate(63.623047 0)"/>
       <use xlink:href="#DejaVuSans-35" transform="translate(95.410156 0)"/>
      </g>
     </g>
    </g>
    <g id="ytick_7">
     <g id="line2d_12">
      <g>
       <use xlink:href="#m618ed7245a" x="65.81" y="135.334929" style="stroke: #000000; stroke-width: 0.8"/>
      </g>
     </g>
     <g id="text_13">
      <!-- 3.0 -->
      <g transform="translate(34.955313 141.033757) scale(0.15 -0.15)">
       <use xlink:href="#DejaVuSans-33"/>
       <use xlink:href="#DejaVuSans-2e" transform="translate(63.623047 0)"/>
       <use xlink:href="#DejaVuSans-30" transform="translate(95.410156 0)"/>
      </g>
     </g>
    </g>
    <g id="ytick_8">
     <g id="line2d_13">
      <g>
       <use xlink:href="#m618ed7245a" x="65.81" y="76.348048" style="stroke: #000000; stroke-width: 0.8"/>
      </g>
     </g>
     <g id="text_14">
      <!-- 3.5 -->
      <g transform="translate(34.955313 82.046876) scale(0.15 -0.15)">
       <use xlink:href="#DejaVuSans-33"/>
       <use xlink:href="#DejaVuSans-2e" transform="translate(63.623047 0)"/>
       <use xlink:href="#DejaVuSans-35" transform="translate(95.410156 0)"/>
      </g>
     </g>
    </g>
    <g id="ytick_9">
     <g id="line2d_14">
      <g>
       <use xlink:href="#m618ed7245a" x="65.81" y="17.361167" style="stroke: #000000; stroke-width: 0.8"/>
      </g>
     </g>
     <g id="text_15">
      <!-- 4.0 -->
      <g transform="translate(34.955313 23.059996) scale(0.15 -0.15)">
       <defs>
        <path id="DejaVuSans-34" d="M 2419 4116 
L 825 1625 
L 2419 1625 
L 2419 4116 
z
M 2253 4666 
L 3047 4666 
L 3047 1625 
L 3713 1625 
L 3713 1100 
L 3047 1100 
L 3047 0 
L 2419 0 
L 2419 1100 
L 313 1100 
L 313 1709 
L 2253 4666 
z
" transform="scale(0.015625)"/>
       </defs>
       <use xlink:href="#DejaVuSans-34"/>
       <use xlink:href="#DejaVuSans-2e" transform="translate(63.623047 0)"/>
       <use xlink:href="#DejaVuSans-30" transform="translate(95.410156 0)"/>
      </g>
     </g>
    </g>
    <g id="text_16">
     <!-- E (eV) -->
     <g transform="translate(26.795938 294.573191) rotate(-90) scale(0.2 -0.2)">
      <defs>
       <path id="DejaVuSans-45" d="M 628 4666 
L 3578 4666 
L 3578 4134 
L 1259 4134 
L 1259 2753 
L 3481 2753 
L 3481 2222 
L 1259 2222 
L 1259 531 
L 3634 531 
L 3634 0 
L 628 0 
L 628 4666 
z
" transform="scale(0.015625)"/>
       <path id="DejaVuSans-65" d="M 3597 1894 
L 3597 1613 
L 953 1613 
Q 991 1019 1311 708 
Q 1631 397 2203 397 
Q 2534 397 2845 478 
Q 3156 559 3463 722 
L 3463 178 
Q 3153 47 2828 -22 
Q 2503 -91 2169 -91 
Q 1331 -91 842 396 
Q 353 884 353 1716 
Q 353 2575 817 3079 
Q 1281 3584 2069 3584 
Q 2775 3584 3186 3129 
Q 3597 2675 3597 1894 
z
M 3022 2063 
Q 3016 2534 2758 2815 
Q 2500 3097 2075 3097 
Q 1594 3097 1305 2825 
Q 1016 2553 972 2059 
L 3022 2063 
z
" transform="scale(0.015625)"/>
       <path id="DejaVuSans-56" d="M 1831 0 
L 50 4666 
L 709 4666 
L 2188 738 
L 3669 4666 
L 4325 4666 
L 2547 0 
L 1831 0 
z
" transform="scale(0.015625)"/>
      </defs>
      <use xlink:href="#DejaVuSans-45"/>
      <use xlink:href="#DejaVuSans-20" transform="translate(63.183594 0)"/>
      <use xlink:href="#DejaVuSans-28" transform="translate(94.970703 0)"/>
      <use xlink:href="#DejaVuSans-65" transform="translate(133.984375 0)"/>
      <use xlink:href="#DejaVuSans-56" transform="translate(195.507812 0)"/>
      <use xlink:href="#DejaVuSans-29" transform="translate(263.916016 0)"/>
     </g>
    </g>
   </g>
   <g id="line2d_15">
    <path d="M 101.600455 489.256213 
L 187.274222 489.585303 
L 254.129474 490.046678 
L 286.814264 490.555523 
L 300.680539 491.032209 
L 312.070693 491.643998 
L 323.460847 492.486571 
L 330.393984 493.219238 
L 339.308018 494.144411 
L 345.250707 494.456594 
L 350.885546 494.530946 
L 352.019347 494.247427 
L 353.208454 493.713188 
L 354.452869 492.906607 
L 355.807899 491.754651 
L 357.273543 490.204088 
L 358.849802 488.202966 
L 360.56433 485.657447 
L 362.444779 482.452121 
L 364.49115 478.506655 
L 366.703443 473.745461 
L 369.109312 468.029831 
L 371.736411 461.203766 
L 374.612392 453.095326 
L 377.737256 443.60539 
L 381.138657 432.551945 
L 384.844248 419.739042 
L 388.85403 405.057188 
L 393.140348 388.505369 
L 397.675549 370.092831 
L 402.43198 349.835481 
L 407.326679 328.004772 
L 412.414953 304.279973 
L 417.779765 278.180956 
L 423.669995 248.389986 
L 431.191793 209.111384 
L 443.027562 147.264559 
L 447.590417 124.6978 
L 451.240701 107.724286 
L 454.365565 94.21807 
L 457.103278 83.335975 
L 459.564454 74.431703 
L 461.804401 67.131639 
L 463.878426 61.109129 
L 465.786529 56.2322 
L 467.556364 52.300221 
L 469.215583 49.137143 
L 470.791842 46.593766 
L 472.312794 44.548762 
L 473.778438 42.936661 
L 475.244083 41.646274 
L 476.765034 40.602398 
L 478.424254 39.735358 
L 480.774816 38.786199 
L 483.291299 37.714815 
L 484.673983 36.877413 
L 485.835437 35.91595 
L 486.91393 34.730006 
L 487.48083 33.966205 
L 490.780117 45.291867 
L 492.759689 52.829074 
L 494.739262 61.305188 
L 496.718834 70.907026 
L 498.698406 81.759639 
L 500.677979 93.855847 
L 503.317408 111.565261 
L 506.616695 135.342474 
L 515.854699 203.025655 
L 519.153987 224.887951 
L 521.793416 240.868118 
L 524.432846 255.362244 
L 527.072276 268.322842 
L 529.051848 277.045813 
L 531.03142 284.941579 
L 533.010993 292.048431 
L 534.990565 298.413769 
L 536.970137 304.090837 
L 538.94971 309.136333 
L 540.929282 313.607861 
L 542.908854 317.561617 
L 544.888426 321.051956 
L 546.867999 324.130428 
L 548.847571 326.84502 
L 550.827143 329.239622 
L 552.806716 331.353747 
L 555.446145 333.796086 
L 558.085575 335.871762 
L 560.725005 337.63919 
L 563.364434 339.146662 
L 566.003864 340.433933 
L 569.303151 341.782524 
L 572.602439 342.888573 
L 576.561583 343.952117 
L 580.520728 344.779957 
L 585.13973 345.50406 
L 589.758732 345.973778 
L 595.697449 346.332536 
L 604.935453 346.643482 
L 614.833314 346.731543 
L 630.010035 346.610366 
L 682.79863 346.0553 
L 718.430931 346.012198 
L 817.409545 346.076326 
L 817.409545 346.076326 
" clip-path="url(#p66dd463e26)" style="fill: none; stroke: #ab750b; stroke-width: 2; stroke-linecap: square"/>
   </g>
   <g id="line2d_16">
    <path d="M 101.600455 489.256213 
L 817.409545 489.256213 
" clip-path="url(#p66dd463e26)" style="fill: none; stroke-dasharray: 3.7,1.6; stroke-dashoffset: 0; stroke: #000000"/>
   </g>
   <g id="patch_5">
    <path d="M 65.81 517.624 
L 65.81 10.934881 
" style="fill: none; stroke: #000000; stroke-width: 0.8; stroke-linejoin: miter; stroke-linecap: square"/>
   </g>
   <g id="patch_6">
    <path d="M 853.2 517.624 
L 853.2 10.934881 
" style="fill: none; stroke: #000000; stroke-width: 0.8; stroke-linejoin: miter; stroke-linecap: square"/>
   </g>
   <g id="patch_7">
    <path d="M 65.81 517.624 
L 853.2 517.624 
" style="fill: none; stroke: #000000; stroke-width: 0.8; stroke-linejoin: miter; stroke-linecap: square"/>
   </g>
   <g id="patch_8">
    <path d="M 65.81 10.934881 
L 853.2 10.934881 
" style="fill: none; stroke: #000000; stroke-width: 0.8; stroke-linejoin: miter; stroke-linecap: square"/>
   </g>
   <g id="text_17">
    <!-- P$^+$ ($^3$P) + H$_2$/D$_2$ (X$^1\Sigma^+$) -->
    <g transform="translate(119.1902 482.069339) scale(0.15 -0.15)">
     <defs>
      <path id="DejaVuSans-50" d="M 1259 4147 
L 1259 2394 
L 2053 2394 
Q 2494 2394 2734 2622 
Q 2975 2850 2975 3272 
Q 2975 3691 2734 3919 
Q 2494 4147 2053 4147 
L 1259 4147 
z
M 628 4666 
L 2053 4666 
Q 2838 4666 3239 4311 
Q 3641 3956 3641 3272 
Q 3641 2581 3239 2228 
Q 2838 1875 2053 1875 
L 1259 1875 
L 1259 0 
L 628 0 
L 628 4666 
z
" transform="scale(0.015625)"/>
      <path id="DejaVuSans-2b" d="M 2944 4013 
L 2944 2272 
L 4684 2272 
L 4684 1741 
L 2944 1741 
L 2944 0 
L 2419 0 
L 2419 1741 
L 678 1741 
L 678 2272 
L 2419 2272 
L 2419 4013 
L 2944 4013 
z
" transform="scale(0.015625)"/>
      <path id="DejaVuSans-48" d="M 628 4666 
L 1259 4666 
L 1259 2753 
L 3553 2753 
L 3553 4666 
L 4184 4666 
L 4184 0 
L 3553 0 
L 3553 2222 
L 1259 2222 
L 1259 0 
L 628 0 
L 628 4666 
z
" transform="scale(0.015625)"/>
      <path id="DejaVuSans-2f" d="M 1625 4666 
L 2156 4666 
L 531 -594 
L 0 -594 
L 1625 4666 
z
" transform="scale(0.015625)"/>
      <path id="DejaVuSans-44" d="M 1259 4147 
L 1259 519 
L 2022 519 
Q 2988 519 3436 956 
Q 3884 1394 3884 2338 
Q 3884 3275 3436 3711 
Q 2988 4147 2022 4147 
L 1259 4147 
z
M 628 4666 
L 1925 4666 
Q 3281 4666 3915 4102 
Q 4550 3538 4550 2338 
Q 4550 1131 3912 565 
Q 3275 0 1925 0 
L 628 0 
L 628 4666 
z
" transform="scale(0.015625)"/>
      <path id="DejaVuSans-58" d="M 403 4666 
L 1081 4666 
L 2241 2931 
L 3406 4666 
L 4084 4666 
L 2584 2425 
L 4184 0 
L 3506 0 
L 2194 1984 
L 872 0 
L 191 0 
L 1856 2491 
L 403 4666 
z
" transform="scale(0.015625)"/>
      <path id="DejaVuSans-3a3" d="M 1353 531 
L 3634 531 
L 3634 0 
L 628 0 
L 628 531 
L 2125 2481 
L 628 4134 
L 628 4666 
L 3578 4666 
L 3578 4134 
L 1353 4134 
L 2850 2494 
L 1353 531 
z
" transform="scale(0.015625)"/>
     </defs>
     <use xlink:href="#DejaVuSans-50" transform="translate(0 0.765625)"/>
     <use xlink:href="#DejaVuSans-2b" transform="translate(74.897461 39.046875) scale(0.7)"/>
     <use xlink:href="#DejaVuSans-20" transform="translate(149.921875 0.765625)"/>
     <use xlink:href="#DejaVuSans-28" transform="translate(181.708984 0.765625)"/>
     <use xlink:href="#DejaVuSans-33" transform="translate(221.679688 39.046875) scale(0.7)"/>
     <use xlink:href="#DejaVuSans-50" transform="translate(268.950195 0.765625)"/>
     <use xlink:href="#DejaVuSans-29" transform="translate(329.25293 0.765625)"/>
     <use xlink:href="#DejaVuSans-20" transform="translate(368.266602 0.765625)"/>
     <use xlink:href="#DejaVuSans-2b" transform="translate(400.053711 0.765625)"/>
     <use xlink:href="#DejaVuSans-20" transform="translate(483.842773 0.765625)"/>
     <use xlink:href="#DejaVuSans-48" transform="translate(515.629883 0.765625)"/>
     <use xlink:href="#DejaVuSans-32" transform="translate(591.782227 -15.640625) scale(0.7)"/>
     <use xlink:href="#DejaVuSans-2f" transform="translate(639.052734 0.765625)"/>
     <use xlink:href="#DejaVuSans-44" transform="translate(672.744141 0.765625)"/>
     <use xlink:href="#DejaVuSans-32" transform="translate(750.703125 -15.640625) scale(0.7)"/>
     <use xlink:href="#DejaVuSans-20" transform="translate(797.973633 0.765625)"/>
     <use xlink:href="#DejaVuSans-28" transform="translate(829.760742 0.765625)"/>
     <use xlink:href="#DejaVuSans-58" transform="translate(868.774414 0.765625)"/>
     <use xlink:href="#DejaVuSans-31" transform="translate(938.237305 39.046875) scale(0.7)"/>
     <use xlink:href="#DejaVuSans-3a3" transform="translate(985.507812 0.765625)"/>
     <use xlink:href="#DejaVuSans-2b" transform="translate(1063.286133 39.046875) scale(0.7)"/>
     <use xlink:href="#DejaVuSans-29" transform="translate(1138.310547 0.765625)"/>
    </g>
   </g>
   <g id="text_18">
    <!-- PH/PD$^+$ (X$^2\Pi$) + H ($^2$S) -->
    <g transform="translate(625.8198 339.971386) scale(0.15 -0.15)">
     <defs>
      <path id="DejaVuSans-3a0" d="M 4184 4666 
L 4184 0 
L 3553 0 
L 3553 4134 
L 1259 4134 
L 1259 0 
L 628 0 
L 628 4666 
L 4184 4666 
z
" transform="scale(0.015625)"/>
      <path id="DejaVuSans-53" d="M 3425 4513 
L 3425 3897 
Q 3066 4069 2747 4153 
Q 2428 4238 2131 4238 
Q 1616 4238 1336 4038 
Q 1056 3838 1056 3469 
Q 1056 3159 1242 3001 
Q 1428 2844 1947 2747 
L 2328 2669 
Q 3034 2534 3370 2195 
Q 3706 1856 3706 1288 
Q 3706 609 3251 259 
Q 2797 -91 1919 -91 
Q 1588 -91 1214 -16 
Q 841 59 441 206 
L 441 856 
Q 825 641 1194 531 
Q 1563 422 1919 422 
Q 2459 422 2753 634 
Q 3047 847 3047 1241 
Q 3047 1584 2836 1778 
Q 2625 1972 2144 2069 
L 1759 2144 
Q 1053 2284 737 2584 
Q 422 2884 422 3419 
Q 422 4038 858 4394 
Q 1294 4750 2059 4750 
Q 2388 4750 2728 4690 
Q 3069 4631 3425 4513 
z
" transform="scale(0.015625)"/>
     </defs>
     <use xlink:href="#DejaVuSans-50" transform="translate(0 0.765625)"/>
     <use xlink:href="#DejaVuSans-48" transform="translate(60.302734 0.765625)"/>
     <use xlink:href="#DejaVuSans-2f" transform="translate(135.498047 0.765625)"/>
     <use xlink:href="#DejaVuSans-50" transform="translate(169.189453 0.765625)"/>
     <use xlink:href="#DejaVuSans-44" transform="translate(229.492188 0.765625)"/>
     <use xlink:href="#DejaVuSans-2b" transform="translate(321.088867 39.046875) scale(0.7)"/>
     <use xlink:href="#DejaVuSans-20" transform="translate(396.113281 0.765625)"/>
     <use xlink:href="#DejaVuSans-28" transform="translate(427.900391 0.765625)"/>
     <use xlink:href="#DejaVuSans-58" transform="translate(466.914062 0.765625)"/>
     <use xlink:href="#DejaVuSans-32" transform="translate(536.376953 39.046875) scale(0.7)"/>
     <use xlink:href="#DejaVuSans-3a0" transform="translate(583.647461 0.765625)"/>
     <use xlink:href="#DejaVuSans-29" transform="translate(658.842773 0.765625)"/>
     <use xlink:href="#DejaVuSans-20" transform="translate(697.856445 0.765625)"/>
     <use xlink:href="#DejaVuSans-2b" transform="translate(729.643555 0.765625)"/>
     <use xlink:href="#DejaVuSans-20" transform="translate(813.432617 0.765625)"/>
     <use xlink:href="#DejaVuSans-48" transform="translate(845.219727 0.765625)"/>
     <use xlink:href="#DejaVuSans-20" transform="translate(920.415039 0.765625)"/>
     <use xlink:href="#DejaVuSans-28" transform="translate(952.202148 0.765625)"/>
     <use xlink:href="#DejaVuSans-32" transform="translate(992.172852 39.046875) scale(0.7)"/>
     <use xlink:href="#DejaVuSans-53" transform="translate(1039.443359 0.765625)"/>
     <use xlink:href="#DejaVuSans-29" transform="translate(1102.919922 0.765625)"/>
    </g>
   </g>
   <g id="text_19">
    <!-- 1.21 eV -->
    <g transform="translate(756.963018 399.327366) rotate(-270) scale(0.15 -0.15)">
     <use xlink:href="#DejaVuSans-31"/>
     <use xlink:href="#DejaVuSans-2e" transform="translate(63.623047 0)"/>
     <use xlink:href="#DejaVuSans-32" transform="translate(95.410156 0)"/>
     <use xlink:href="#DejaVuSans-31" transform="translate(159.033203 0)"/>
     <use xlink:href="#DejaVuSans-20" transform="translate(222.65625 0)"/>
     <use xlink:href="#DejaVuSans-65" transform="translate(254.443359 0)"/>
     <use xlink:href="#DejaVuSans-56" transform="translate(315.966797 0)"/>
    </g>
   </g>
   <g id="legend_1">
    <g id="line2d_17">
     <path d="M 82.01 34.512069 
L 100.01 34.512069 
L 118.01 34.512069 
" style="fill: none; stroke: #ab750b; stroke-width: 2; stroke-linecap: square"/>
    </g>
    <g id="text_20">
     <!-- 1 $^3$A' -->
     <g transform="translate(132.41 40.812069) scale(0.18 -0.18)">
      <defs>
       <path id="DejaVuSans-41" d="M 2188 4044 
L 1331 1722 
L 3047 1722 
L 2188 4044 
z
M 1831 4666 
L 2547 4666 
L 4325 0 
L 3669 0 
L 3244 1197 
L 1141 1197 
L 716 0 
L 50 0 
L 1831 4666 
z
" transform="scale(0.015625)"/>
       <path id="DejaVuSans-27" d="M 1147 4666 
L 1147 2931 
L 616 2931 
L 616 4666 
L 1147 4666 
z
" transform="scale(0.015625)"/>
      </defs>
      <use xlink:href="#DejaVuSans-31" transform="translate(0 0.765625)"/>
      <use xlink:href="#DejaVuSans-20" transform="translate(63.623047 0.765625)"/>
      <use xlink:href="#DejaVuSans-33" transform="translate(96.367188 39.046875) scale(0.7)"/>
      <use xlink:href="#DejaVuSans-41" transform="translate(143.637695 0.765625)"/>
      <use xlink:href="#DejaVuSans-27" transform="translate(212.045898 0.765625)"/>
     </g>
    </g>
   </g>
  </g>
 </g>
 <defs>
  <clipPath id="p66dd463e26">
   <rect x="65.81" y="10.934881" width="787.39" height="506.689119"/>
  </clipPath>
 </defs>
</svg>
