<?xml version="1.0" encoding="utf-8" standalone="no"?>
<!DOCTYPE svg PUBLIC "-//W3C//DTD SVG 1.1//EN"
  "http://www.w3.org/Graphics/SVG/1.1/DTD/svg11.dtd">
<svg xmlns:xlink="http://www.w3.org/1999/xlink" width="864pt" height="576pt" viewBox="0 0 864 576" xmlns="http://www.w3.org/2000/svg" version="1.1">
 <metadata>
  <rdf:RDF xmlns:dc="http://purl.org/dc/elements/1.1/" xmlns:cc="http://creativecommons.org/ns#" xmlns:rdf="http://www.w3.org/1999/02/22-rdf-syntax-ns#">
   <cc:Work>
    <dc:type rdf:resource="http://purl.org/dc/dcmitype/StillImage"/>
    <dc:date>2025-10-01T13:53:07.482490</dc:date>
    <dc:format>image/svg+xml</dc:format>
    <dc:creator>
     <cc:Agent>
      <dc:title>Matplotlib v3.10.0, https://matplotlib.org/</dc:title>
     </cc:Agent>
    </dc:creator>
   </cc:Work>
  </rdf:RDF>
 </metadata>
 <defs>
  <style type="text/css">*{stroke-linejoin: round; stroke-linecap: butt}</style>
 </defs>
 <g id="figure_1">
  <g id="patch_1">
   <path d="M 0 576 
L 864 576 
L 864 0 
L 0 0 
L 0 576 
z
" style="fill: none"/>
  </g>
  <g id="axes_1">
   <g id="patch_2">
    <path d="M 78.41 517.624 
L 853.2 517.624 
L 853.2 11.5056 
L 78.41 11.5056 
L 78.41 517.624 
z
" style="fill: none"/>
   </g>
   <g id="patch_3">
    <path d="M 755.433413 35.096174 
L 758.152929 49.959693 
L 756.113292 49.959693 
L 756.113292 214.944746 
L 754.753535 214.944746 
L 754.753535 49.959693 
L 752.713898 49.959693 
z
" clip-path="url(#pdc1162fbac)" style="fill: #06ac18; stroke: #06ac18; stroke-linejoin: miter"/>
   </g>
   <g id="patch_4">
    <path d="M 755.433413 214.944746 
L 752.713898 200.081228 
L 754.753535 200.081228 
L 754.753535 35.096174 
L 756.113292 35.096174 
L 756.113292 200.081228 
L 758.152929 200.081228 
z
" clip-path="url(#pdc1162fbac)" style="fill: #06ac18; stroke: #06ac18; stroke-linejoin: miter"/>
   </g>
   <g id="matplotlib.axis_1">
    <g id="xtick_1">
     <g id="line2d_1">
      <defs>
       <path id="mbfac32531d" d="M 0 0 
L 0 3.5 
" style="stroke: #000000; stroke-width: 0.8"/>
      </defs>
      <g>
       <use xlink:href="#mbfac32531d" x="211.53029" y="517.624" style="stroke: #000000; stroke-width: 0.8"/>
      </g>
     </g>
     <g id="text_1">
      <!-- −10 -->
      <g transform="translate(195.701774 536.021656) scale(0.15 -0.15)">
       <defs>
        <path id="DejaVuSans-2212" d="M 678 2272 
L 4684 2272 
L 4684 1741 
L 678 1741 
L 678 2272 
z
" transform="scale(0.015625)"/>
        <path id="DejaVuSans-31" d="M 794 531 
L 1825 531 
L 1825 4091 
L 703 3866 
L 703 4441 
L 1819 4666 
L 2450 4666 
L 2450 531 
L 3481 531 
L 3481 0 
L 794 0 
L 794 531 
z
" transform="scale(0.015625)"/>
        <path id="DejaVuSans-30" d="M 2034 4250 
Q 1547 4250 1301 3770 
Q 1056 3291 1056 2328 
Q 1056 1369 1301 889 
Q 1547 409 2034 409 
Q 2525 409 2770 889 
Q 3016 1369 3016 2328 
Q 3016 3291 2770 3770 
Q 2525 4250 2034 4250 
z
M 2034 4750 
Q 2819 4750 3233 4129 
Q 3647 3509 3647 2328 
Q 3647 1150 3233 529 
Q 2819 -91 2034 -91 
Q 1250 -91 836 529 
Q 422 1150 422 2328 
Q 422 3509 836 4129 
Q 1250 4750 2034 4750 
z
" transform="scale(0.015625)"/>
       </defs>
       <use xlink:href="#DejaVuSans-2212"/>
       <use xlink:href="#DejaVuSans-31" transform="translate(83.789062 0)"/>
       <use xlink:href="#DejaVuSans-30" transform="translate(147.412109 0)"/>
      </g>
     </g>
    </g>
    <g id="xtick_2">
     <g id="line2d_2">
      <g>
       <use xlink:href="#mbfac32531d" x="347.506071" y="517.624" style="stroke: #000000; stroke-width: 0.8"/>
      </g>
     </g>
     <g id="text_2">
      <!-- −5 -->
      <g transform="translate(336.44943 536.021656) scale(0.15 -0.15)">
       <defs>
        <path id="DejaVuSans-35" d="M 691 4666 
L 3169 4666 
L 3169 4134 
L 1269 4134 
L 1269 2991 
Q 1406 3038 1543 3061 
Q 1681 3084 1819 3084 
Q 2600 3084 3056 2656 
Q 3513 2228 3513 1497 
Q 3513 744 3044 326 
Q 2575 -91 1722 -91 
Q 1428 -91 1123 -41 
Q 819 9 494 109 
L 494 744 
Q 775 591 1075 516 
Q 1375 441 1709 441 
Q 2250 441 2565 725 
Q 2881 1009 2881 1497 
Q 2881 1984 2565 2268 
Q 2250 2553 1709 2553 
Q 1456 2553 1204 2497 
Q 953 2441 691 2322 
L 691 4666 
z
" transform="scale(0.015625)"/>
       </defs>
       <use xlink:href="#DejaVuSans-2212"/>
       <use xlink:href="#DejaVuSans-35" transform="translate(83.789062 0)"/>
      </g>
     </g>
    </g>
    <g id="xtick_3">
     <g id="line2d_3">
      <g>
       <use xlink:href="#mbfac32531d" x="483.481852" y="517.624" style="stroke: #000000; stroke-width: 0.8"/>
      </g>
     </g>
     <g id="text_3">
      <!-- 0 -->
      <g transform="translate(478.709977 536.021656) scale(0.15 -0.15)">
       <use xlink:href="#DejaVuSans-30"/>
      </g>
     </g>
    </g>
    <g id="xtick_4">
     <g id="line2d_4">
      <g>
       <use xlink:href="#mbfac32531d" x="619.457633" y="517.624" style="stroke: #000000; stroke-width: 0.8"/>
      </g>
     </g>
     <g id="text_4">
      <!-- 5 -->
      <g transform="translate(614.685758 536.021656) scale(0.15 -0.15)">
       <use xlink:href="#DejaVuSans-35"/>
      </g>
     </g>
    </g>
    <g id="xtick_5">
     <g id="line2d_5">
      <g>
       <use xlink:href="#mbfac32531d" x="755.433413" y="517.624" style="stroke: #000000; stroke-width: 0.8"/>
      </g>
     </g>
     <g id="text_5">
      <!-- 10 -->
      <g transform="translate(745.889663 536.021656) scale(0.15 -0.15)">
       <use xlink:href="#DejaVuSans-31"/>
       <use xlink:href="#DejaVuSans-30" transform="translate(63.623047 0)"/>
      </g>
     </g>
    </g>
    <g id="text_6">
     <!-- r$_{23}$-r$_{12}$ (a$_o$) -->
     <g transform="translate(413.605 558.338062) scale(0.2 -0.2)">
      <defs>
       <path id="DejaVuSans-72" d="M 2631 2963 
Q 2534 3019 2420 3045 
Q 2306 3072 2169 3072 
Q 1681 3072 1420 2755 
Q 1159 2438 1159 1844 
L 1159 0 
L 581 0 
L 581 3500 
L 1159 3500 
L 1159 2956 
Q 1341 3275 1631 3429 
Q 1922 3584 2338 3584 
Q 2397 3584 2469 3576 
Q 2541 3569 2628 3553 
L 2631 2963 
z
" transform="scale(0.015625)"/>
       <path id="DejaVuSans-32" d="M 1228 531 
L 3431 531 
L 3431 0 
L 469 0 
L 469 531 
Q 828 903 1448 1529 
Q 2069 2156 2228 2338 
Q 2531 2678 2651 2914 
Q 2772 3150 2772 3378 
Q 2772 3750 2511 3984 
Q 2250 4219 1831 4219 
Q 1534 4219 1204 4116 
Q 875 4013 500 3803 
L 500 4441 
Q 881 4594 1212 4672 
Q 1544 4750 1819 4750 
Q 2544 4750 2975 4387 
Q 3406 4025 3406 3419 
Q 3406 3131 3298 2873 
Q 3191 2616 2906 2266 
Q 2828 2175 2409 1742 
Q 1991 1309 1228 531 
z
" transform="scale(0.015625)"/>
       <path id="DejaVuSans-33" d="M 2597 2516 
Q 3050 2419 3304 2112 
Q 3559 1806 3559 1356 
Q 3559 666 3084 287 
Q 2609 -91 1734 -91 
Q 1441 -91 1130 -33 
Q 819 25 488 141 
L 488 750 
Q 750 597 1062 519 
Q 1375 441 1716 441 
Q 2309 441 2620 675 
Q 2931 909 2931 1356 
Q 2931 1769 2642 2001 
Q 2353 2234 1838 2234 
L 1294 2234 
L 1294 2753 
L 1863 2753 
Q 2328 2753 2575 2939 
Q 2822 3125 2822 3475 
Q 2822 3834 2567 4026 
Q 2313 4219 1838 4219 
Q 1578 4219 1281 4162 
Q 984 4106 628 3988 
L 628 4550 
Q 988 4650 1302 4700 
Q 1616 4750 1894 4750 
Q 2613 4750 3031 4423 
Q 3450 4097 3450 3541 
Q 3450 3153 3228 2886 
Q 3006 2619 2597 2516 
z
" transform="scale(0.015625)"/>
       <path id="DejaVuSans-2d" d="M 313 2009 
L 1997 2009 
L 1997 1497 
L 313 1497 
L 313 2009 
z
" transform="scale(0.015625)"/>
       <path id="DejaVuSans-20" transform="scale(0.015625)"/>
       <path id="DejaVuSans-28" d="M 1984 4856 
Q 1566 4138 1362 3434 
Q 1159 2731 1159 2009 
Q 1159 1288 1364 580 
Q 1569 -128 1984 -844 
L 1484 -844 
Q 1016 -109 783 600 
Q 550 1309 550 2009 
Q 550 2706 781 3412 
Q 1013 4119 1484 4856 
L 1984 4856 
z
" transform="scale(0.015625)"/>
       <path id="DejaVuSans-61" d="M 2194 1759 
Q 1497 1759 1228 1600 
Q 959 1441 959 1056 
Q 959 750 1161 570 
Q 1363 391 1709 391 
Q 2188 391 2477 730 
Q 2766 1069 2766 1631 
L 2766 1759 
L 2194 1759 
z
M 3341 1997 
L 3341 0 
L 2766 0 
L 2766 531 
Q 2569 213 2275 61 
Q 1981 -91 1556 -91 
Q 1019 -91 701 211 
Q 384 513 384 1019 
Q 384 1609 779 1909 
Q 1175 2209 1959 2209 
L 2766 2209 
L 2766 2266 
Q 2766 2663 2505 2880 
Q 2244 3097 1772 3097 
Q 1472 3097 1187 3025 
Q 903 2953 641 2809 
L 641 3341 
Q 956 3463 1253 3523 
Q 1550 3584 1831 3584 
Q 2591 3584 2966 3190 
Q 3341 2797 3341 1997 
z
" transform="scale(0.015625)"/>
       <path id="DejaVuSans-Oblique-6f" d="M 1625 -91 
Q 1009 -91 651 289 
Q 294 669 294 1325 
Q 294 1706 417 2101 
Q 541 2497 738 2766 
Q 1047 3184 1428 3384 
Q 1809 3584 2291 3584 
Q 2888 3584 3255 3212 
Q 3622 2841 3622 2241 
Q 3622 1825 3500 1412 
Q 3378 1000 3181 728 
Q 2875 309 2494 109 
Q 2113 -91 1625 -91 
z
M 891 1344 
Q 891 869 1089 633 
Q 1288 397 1691 397 
Q 2269 397 2648 901 
Q 3028 1406 3028 2181 
Q 3028 2634 2825 2865 
Q 2622 3097 2228 3097 
Q 1903 3097 1650 2945 
Q 1397 2794 1197 2484 
Q 1050 2253 970 1956 
Q 891 1659 891 1344 
z
" transform="scale(0.015625)"/>
       <path id="DejaVuSans-29" d="M 513 4856 
L 1013 4856 
Q 1481 4119 1714 3412 
Q 1947 2706 1947 2009 
Q 1947 1309 1714 600 
Q 1481 -109 1013 -844 
L 513 -844 
Q 928 -128 1133 580 
Q 1338 1288 1338 2009 
Q 1338 2731 1133 3434 
Q 928 4138 513 4856 
z
" transform="scale(0.015625)"/>
      </defs>
      <use xlink:href="#DejaVuSans-72" transform="translate(0 0.125)"/>
      <use xlink:href="#DejaVuSans-32" transform="translate(42.070312 -16.28125) scale(0.7)"/>
      <use xlink:href="#DejaVuSans-33" transform="translate(86.606445 -16.28125) scale(0.7)"/>
      <use xlink:href="#DejaVuSans-2d" transform="translate(133.876953 0.125)"/>
      <use xlink:href="#DejaVuSans-72" transform="translate(169.960938 0.125)"/>
      <use xlink:href="#DejaVuSans-31" transform="translate(212.03125 -16.28125) scale(0.7)"/>
      <use xlink:href="#DejaVuSans-32" transform="translate(256.567383 -16.28125) scale(0.7)"/>
      <use xlink:href="#DejaVuSans-20" transform="translate(303.837891 0.125)"/>
      <use xlink:href="#DejaVuSans-28" transform="translate(335.625 0.125)"/>
      <use xlink:href="#DejaVuSans-61" transform="translate(374.638672 0.125)"/>
      <use xlink:href="#DejaVuSans-Oblique-6f" transform="translate(436.875 -16.28125) scale(0.7)"/>
      <use xlink:href="#DejaVuSans-29" transform="translate(482.436523 0.125)"/>
     </g>
    </g>
   </g>
   <g id="matplotlib.axis_2">
    <g id="ytick_1">
     <g id="line2d_6">
      <defs>
       <path id="m1d7cf9b254" d="M 0 0 
L -3.5 0 
" style="stroke: #000000; stroke-width: 0.8"/>
      </defs>
      <g>
       <use xlink:href="#m1d7cf9b254" x="78.41" y="512.215112" style="stroke: #000000; stroke-width: 0.8"/>
      </g>
     </g>
     <g id="text_7">
      <!-- −2.0 -->
      <g transform="translate(34.985781 517.913941) scale(0.15 -0.15)">
       <defs>
        <path id="DejaVuSans-2e" d="M 684 794 
L 1344 794 
L 1344 0 
L 684 0 
L 684 794 
z
" transform="scale(0.015625)"/>
       </defs>
       <use xlink:href="#DejaVuSans-2212"/>
       <use xlink:href="#DejaVuSans-32" transform="translate(83.789062 0)"/>
       <use xlink:href="#DejaVuSans-2e" transform="translate(147.412109 0)"/>
       <use xlink:href="#DejaVuSans-30" transform="translate(179.199219 0)"/>
      </g>
     </g>
    </g>
    <g id="ytick_2">
     <g id="line2d_7">
      <g>
       <use xlink:href="#m1d7cf9b254" x="78.41" y="437.897521" style="stroke: #000000; stroke-width: 0.8"/>
      </g>
     </g>
     <g id="text_8">
      <!-- −1.5 -->
      <g transform="translate(34.985781 443.596349) scale(0.15 -0.15)">
       <use xlink:href="#DejaVuSans-2212"/>
       <use xlink:href="#DejaVuSans-31" transform="translate(83.789062 0)"/>
       <use xlink:href="#DejaVuSans-2e" transform="translate(147.412109 0)"/>
       <use xlink:href="#DejaVuSans-35" transform="translate(179.199219 0)"/>
      </g>
     </g>
    </g>
    <g id="ytick_3">
     <g id="line2d_8">
      <g>
       <use xlink:href="#m1d7cf9b254" x="78.41" y="363.579929" style="stroke: #000000; stroke-width: 0.8"/>
      </g>
     </g>
     <g id="text_9">
      <!-- −1.0 -->
      <g transform="translate(34.985781 369.278757) scale(0.15 -0.15)">
       <use xlink:href="#DejaVuSans-2212"/>
       <use xlink:href="#DejaVuSans-31" transform="translate(83.789062 0)"/>
       <use xlink:href="#DejaVuSans-2e" transform="translate(147.412109 0)"/>
       <use xlink:href="#DejaVuSans-30" transform="translate(179.199219 0)"/>
      </g>
     </g>
    </g>
    <g id="ytick_4">
     <g id="line2d_9">
      <g>
       <use xlink:href="#m1d7cf9b254" x="78.41" y="289.262338" style="stroke: #000000; stroke-width: 0.8"/>
      </g>
     </g>
     <g id="text_10">
      <!-- −0.5 -->
      <g transform="translate(34.985781 294.961166) scale(0.15 -0.15)">
       <use xlink:href="#DejaVuSans-2212"/>
       <use xlink:href="#DejaVuSans-30" transform="translate(83.789062 0)"/>
       <use xlink:href="#DejaVuSans-2e" transform="translate(147.412109 0)"/>
       <use xlink:href="#DejaVuSans-35" transform="translate(179.199219 0)"/>
      </g>
     </g>
    </g>
    <g id="ytick_5">
     <g id="line2d_10">
      <g>
       <use xlink:href="#m1d7cf9b254" x="78.41" y="214.944746" style="stroke: #000000; stroke-width: 0.8"/>
      </g>
     </g>
     <g id="text_11">
      <!-- 0.0 -->
      <g transform="translate(47.555312 220.643574) scale(0.15 -0.15)">
       <use xlink:href="#DejaVuSans-30"/>
       <use xlink:href="#DejaVuSans-2e" transform="translate(63.623047 0)"/>
       <use xlink:href="#DejaVuSans-30" transform="translate(95.410156 0)"/>
      </g>
     </g>
    </g>
    <g id="ytick_6">
     <g id="line2d_11">
      <g>
       <use xlink:href="#m1d7cf9b254" x="78.41" y="140.627154" style="stroke: #000000; stroke-width: 0.8"/>
      </g>
     </g>
     <g id="text_12">
      <!-- 0.5 -->
      <g transform="translate(47.555312 146.325982) scale(0.15 -0.15)">
       <use xlink:href="#DejaVuSans-30"/>
       <use xlink:href="#DejaVuSans-2e" transform="translate(63.623047 0)"/>
       <use xlink:href="#DejaVuSans-35" transform="translate(95.410156 0)"/>
      </g>
     </g>
    </g>
    <g id="ytick_7">
     <g id="line2d_12">
      <g>
       <use xlink:href="#m1d7cf9b254" x="78.41" y="66.309563" style="stroke: #000000; stroke-width: 0.8"/>
      </g>
     </g>
     <g id="text_13">
      <!-- 1.0 -->
      <g transform="translate(47.555312 72.008391) scale(0.15 -0.15)">
       <use xlink:href="#DejaVuSans-31"/>
       <use xlink:href="#DejaVuSans-2e" transform="translate(63.623047 0)"/>
       <use xlink:href="#DejaVuSans-30" transform="translate(95.410156 0)"/>
      </g>
     </g>
    </g>
    <g id="text_14">
     <!-- E (eV) -->
     <g transform="translate(26.826406 294.85855) rotate(-90) scale(0.2 -0.2)">
      <defs>
       <path id="DejaVuSans-45" d="M 628 4666 
L 3578 4666 
L 3578 4134 
L 1259 4134 
L 1259 2753 
L 3481 2753 
L 3481 2222 
L 1259 2222 
L 1259 531 
L 3634 531 
L 3634 0 
L 628 0 
L 628 4666 
z
" transform="scale(0.015625)"/>
       <path id="DejaVuSans-65" d="M 3597 1894 
L 3597 1613 
L 953 1613 
Q 991 1019 1311 708 
Q 1631 397 2203 397 
Q 2534 397 2845 478 
Q 3156 559 3463 722 
L 3463 178 
Q 3153 47 2828 -22 
Q 2503 -91 2169 -91 
Q 1331 -91 842 396 
Q 353 884 353 1716 
Q 353 2575 817 3079 
Q 1281 3584 2069 3584 
Q 2775 3584 3186 3129 
Q 3597 2675 3597 1894 
z
M 3022 2063 
Q 3016 2534 2758 2815 
Q 2500 3097 2075 3097 
Q 1594 3097 1305 2825 
Q 1016 2553 972 2059 
L 3022 2063 
z
" transform="scale(0.015625)"/>
       <path id="DejaVuSans-56" d="M 1831 0 
L 50 4666 
L 709 4666 
L 2188 738 
L 3669 4666 
L 4325 4666 
L 2547 0 
L 1831 0 
z
" transform="scale(0.015625)"/>
      </defs>
      <use xlink:href="#DejaVuSans-45"/>
      <use xlink:href="#DejaVuSans-20" transform="translate(63.183594 0)"/>
      <use xlink:href="#DejaVuSans-28" transform="translate(94.970703 0)"/>
      <use xlink:href="#DejaVuSans-65" transform="translate(133.984375 0)"/>
      <use xlink:href="#DejaVuSans-56" transform="translate(195.507812 0)"/>
      <use xlink:href="#DejaVuSans-29" transform="translate(263.916016 0)"/>
     </g>
    </g>
   </g>
   <g id="line2d_13">
    <path d="M 249.603508 214.944746 
L 250.939547 214.963531 
L 266.743896 215.287497 
L 281.064733 215.728627 
L 290.769731 216.265196 
L 298.773984 216.924714 
L 305.825149 217.724586 
L 312.247337 218.674335 
L 318.258145 219.786523 
L 324.031495 221.08045 
L 329.732423 222.586274 
L 334.093976 223.937838 
L 338.68294 225.606057 
L 344.698985 228.049823 
L 354.320616 232.205704 
L 359.0228 234.518848 
L 363.032345 236.73415 
L 366.498104 238.898049 
L 369.614216 241.104326 
L 372.477227 243.406118 
L 375.125997 245.819911 
L 377.64192 248.409579 
L 380.088067 251.244198 
L 382.481001 254.354524 
L 384.856007 257.802589 
L 387.27409 261.70994 
L 389.700647 266.054767 
L 392.228517 271.046634 
L 394.836365 276.697501 
L 397.654812 283.362119 
L 400.673671 291.096758 
L 404.04628 300.359034 
L 408.675709 313.793714 
L 415.900869 334.797445 
L 419.047034 343.208094 
L 421.667397 349.572531 
L 423.943428 354.517853 
L 426.027851 358.514328 
L 427.912313 361.660315 
L 429.699458 364.217269 
L 431.351618 366.20225 
L 432.908139 367.726926 
L 434.29378 368.787012 
L 435.62256 369.527945 
L 436.852207 369.962794 
L 438.002333 370.135989 
L 438.68242 370.05677 
L 439.205737 369.732414 
L 439.803241 369.082775 
L 440.505007 367.968617 
L 441.343117 366.192195 
L 442.355665 363.490118 
L 443.618845 359.441118 
L 445.323134 353.165717 
L 453.170888 323.272686 
L 455.977953 314.151072 
L 461.969033 294.930864 
L 464.687876 285.216113 
L 468.389193 271.043325 
L 471.93211 257.755128 
L 473.905076 251.195946 
L 475.489063 246.663237 
L 476.83445 243.454424 
L 478.007402 241.202302 
L 479.037996 239.678705 
L 479.952297 238.702641 
L 480.772362 238.136281 
L 481.524254 237.877199 
L 482.240056 237.862338 
L 482.955857 238.072185 
L 483.70775 238.531312 
L 484.523804 239.301318 
L 485.418055 240.465035 
L 486.410553 242.138666 
L 487.519344 244.464538 
L 488.766483 247.62129 
L 490.178036 251.826303 
L 491.804129 257.40204 
L 493.734989 264.856212 
L 496.123 275.012147 
L 499.1426 288.86825 
L 502.346665 304.629 
L 505.741209 322.4757 
L 509.741277 344.711861 
L 513.47668 366.742678 
L 517.448677 391.546779 
L 528.368162 460.700576 
L 530.41732 471.656431 
L 532.087524 479.439219 
L 533.491056 484.97613 
L 534.686064 488.836624 
L 535.704628 491.422942 
L 536.572813 493.062217 
L 537.308666 494.010817 
L 537.93023 494.476387 
L 538.469588 494.618109 
L 538.972018 494.530196 
L 539.495101 494.216454 
L 540.079966 493.583684 
L 540.6746 492.619388 
L 541.351975 491.121193 
L 542.239741 488.553013 
L 543.198086 485.118788 
L 544.42085 479.925817 
L 545.974142 472.247114 
L 547.490589 463.738223 
L 549.264217 452.656507 
L 551.28904 438.692598 
L 553.539494 421.775969 
L 556.597413 396.849673 
L 559.798229 368.661881 
L 562.969063 338.526719 
L 565.366913 313.884315 
L 568.083096 283.411489 
L 570.437258 254.35404 
L 573.499221 213.195115 
L 577.153356 164.017923 
L 578.904188 143.399267 
L 580.423093 128.032964 
L 581.777829 116.409332 
L 583.157536 106.45606 
L 584.555077 98.067139 
L 585.965803 91.041382 
L 587.386403 85.155704 
L 588.814317 80.202674 
L 590.247409 76.005011 
L 591.776333 72.204968 
L 593.381751 68.811893 
L 595.047433 65.80272 
L 596.834877 63.03188 
L 598.717459 60.520605 
L 600.737289 58.195405 
L 602.921026 56.024454 
L 605.281649 53.998274 
L 607.820248 52.117905 
L 610.574316 50.360303 
L 613.556656 48.725352 
L 616.797552 47.206432 
L 620.33018 45.798996 
L 624.179102 44.506191 
L 628.411183 43.324723 
L 633.550281 42.128844 
L 639.218369 41.038814 
L 645.411054 40.077351 
L 652.275271 39.240621 
L 659.980584 38.529852 
L 668.671621 37.955786 
L 685.351289 36.941577 
L 686.923723 36.547442 
L 687.811439 36.1169 
L 688.115025 35.760436 
L 688.069097 35.517133 
L 687.773339 35.297193 
L 687.055453 35.076312 
L 685.172059 34.782015 
L 682.244785 34.52537 
L 682.006492 34.510982 
L 682.006492 34.510982 
" clip-path="url(#pdc1162fbac)" style="fill: none; stroke: #06ac18; stroke-width: 2; stroke-linecap: square"/>
   </g>
   <g id="line2d_14">
    <path d="M 113.627727 214.944746 
L 817.982273 214.944746 
" clip-path="url(#pdc1162fbac)" style="fill: none; stroke-dasharray: 3.7,1.6; stroke-dashoffset: 0; stroke: #000000"/>
   </g>
   <g id="patch_5">
    <path d="M 78.41 517.624 
L 78.41 11.5056 
" style="fill: none; stroke: #000000; stroke-width: 0.8; stroke-linejoin: miter; stroke-linecap: square"/>
   </g>
   <g id="patch_6">
    <path d="M 853.2 517.624 
L 853.2 11.5056 
" style="fill: none; stroke: #000000; stroke-width: 0.8; stroke-linejoin: miter; stroke-linecap: square"/>
   </g>
   <g id="patch_7">
    <path d="M 78.41 517.624 
L 853.2 517.624 
" style="fill: none; stroke: #000000; stroke-width: 0.8; stroke-linejoin: miter; stroke-linecap: square"/>
   </g>
   <g id="patch_8">
    <path d="M 78.41 11.5056 
L 853.2 11.5056 
" style="fill: none; stroke: #000000; stroke-width: 0.8; stroke-linejoin: miter; stroke-linecap: square"/>
   </g>
   <g id="text_15">
    <!-- P$^+$ ($^3$P) + H$_2$/D$_2$ (X$^1\Sigma^+$) -->
    <g transform="translate(129.5222 208.811061) scale(0.15 -0.15)">
     <defs>
      <path id="DejaVuSans-50" d="M 1259 4147 
L 1259 2394 
L 2053 2394 
Q 2494 2394 2734 2622 
Q 2975 2850 2975 3272 
Q 2975 3691 2734 3919 
Q 2494 4147 2053 4147 
L 1259 4147 
z
M 628 4666 
L 2053 4666 
Q 2838 4666 3239 4311 
Q 3641 3956 3641 3272 
Q 3641 2581 3239 2228 
Q 2838 1875 2053 1875 
L 1259 1875 
L 1259 0 
L 628 0 
L 628 4666 
z
" transform="scale(0.015625)"/>
      <path id="DejaVuSans-2b" d="M 2944 4013 
L 2944 2272 
L 4684 2272 
L 4684 1741 
L 2944 1741 
L 2944 0 
L 2419 0 
L 2419 1741 
L 678 1741 
L 678 2272 
L 2419 2272 
L 2419 4013 
L 2944 4013 
z
" transform="scale(0.015625)"/>
      <path id="DejaVuSans-48" d="M 628 4666 
L 1259 4666 
L 1259 2753 
L 3553 2753 
L 3553 4666 
L 4184 4666 
L 4184 0 
L 3553 0 
L 3553 2222 
L 1259 2222 
L 1259 0 
L 628 0 
L 628 4666 
z
" transform="scale(0.015625)"/>
      <path id="DejaVuSans-2f" d="M 1625 4666 
L 2156 4666 
L 531 -594 
L 0 -594 
L 1625 4666 
z
" transform="scale(0.015625)"/>
      <path id="DejaVuSans-44" d="M 1259 4147 
L 1259 519 
L 2022 519 
Q 2988 519 3436 956 
Q 3884 1394 3884 2338 
Q 3884 3275 3436 3711 
Q 2988 4147 2022 4147 
L 1259 4147 
z
M 628 4666 
L 1925 4666 
Q 3281 4666 3915 4102 
Q 4550 3538 4550 2338 
Q 4550 1131 3912 565 
Q 3275 0 1925 0 
L 628 0 
L 628 4666 
z
" transform="scale(0.015625)"/>
      <path id="DejaVuSans-58" d="M 403 4666 
L 1081 4666 
L 2241 2931 
L 3406 4666 
L 4084 4666 
L 2584 2425 
L 4184 0 
L 3506 0 
L 2194 1984 
L 872 0 
L 191 0 
L 1856 2491 
L 403 4666 
z
" transform="scale(0.015625)"/>
      <path id="DejaVuSans-3a3" d="M 1353 531 
L 3634 531 
L 3634 0 
L 628 0 
L 628 531 
L 2125 2481 
L 628 4134 
L 628 4666 
L 3578 4666 
L 3578 4134 
L 1353 4134 
L 2850 2494 
L 1353 531 
z
" transform="scale(0.015625)"/>
     </defs>
     <use xlink:href="#DejaVuSans-50" transform="translate(0 0.765625)"/>
     <use xlink:href="#DejaVuSans-2b" transform="translate(74.897461 39.046875) scale(0.7)"/>
     <use xlink:href="#DejaVuSans-20" transform="translate(149.921875 0.765625)"/>
     <use xlink:href="#DejaVuSans-28" transform="translate(181.708984 0.765625)"/>
     <use xlink:href="#DejaVuSans-33" transform="translate(221.679688 39.046875) scale(0.7)"/>
     <use xlink:href="#DejaVuSans-50" transform="translate(268.950195 0.765625)"/>
     <use xlink:href="#DejaVuSans-29" transform="translate(329.25293 0.765625)"/>
     <use xlink:href="#DejaVuSans-20" transform="translate(368.266602 0.765625)"/>
     <use xlink:href="#DejaVuSans-2b" transform="translate(400.053711 0.765625)"/>
     <use xlink:href="#DejaVuSans-20" transform="translate(483.842773 0.765625)"/>
     <use xlink:href="#DejaVuSans-48" transform="translate(515.629883 0.765625)"/>
     <use xlink:href="#DejaVuSans-32" transform="translate(591.782227 -15.640625) scale(0.7)"/>
     <use xlink:href="#DejaVuSans-2f" transform="translate(639.052734 0.765625)"/>
     <use xlink:href="#DejaVuSans-44" transform="translate(672.744141 0.765625)"/>
     <use xlink:href="#DejaVuSans-32" transform="translate(750.703125 -15.640625) scale(0.7)"/>
     <use xlink:href="#DejaVuSans-20" transform="translate(797.973633 0.765625)"/>
     <use xlink:href="#DejaVuSans-28" transform="translate(829.760742 0.765625)"/>
     <use xlink:href="#DejaVuSans-58" transform="translate(868.774414 0.765625)"/>
     <use xlink:href="#DejaVuSans-31" transform="translate(938.237305 39.046875) scale(0.7)"/>
     <use xlink:href="#DejaVuSans-3a3" transform="translate(985.507812 0.765625)"/>
     <use xlink:href="#DejaVuSans-2b" transform="translate(1063.286133 39.046875) scale(0.7)"/>
     <use xlink:href="#DejaVuSans-29" transform="translate(1138.310547 0.765625)"/>
    </g>
   </g>
   <g id="text_16">
    <!-- PH/PD$^+$ (X$^2\Pi$) + H ($^2$S) -->
    <g transform="translate(628.0878 26.383437) scale(0.15 -0.15)">
     <defs>
      <path id="DejaVuSans-3a0" d="M 4184 4666 
L 4184 0 
L 3553 0 
L 3553 4134 
L 1259 4134 
L 1259 0 
L 628 0 
L 628 4666 
L 4184 4666 
z
" transform="scale(0.015625)"/>
      <path id="DejaVuSans-53" d="M 3425 4513 
L 3425 3897 
Q 3066 4069 2747 4153 
Q 2428 4238 2131 4238 
Q 1616 4238 1336 4038 
Q 1056 3838 1056 3469 
Q 1056 3159 1242 3001 
Q 1428 2844 1947 2747 
L 2328 2669 
Q 3034 2534 3370 2195 
Q 3706 1856 3706 1288 
Q 3706 609 3251 259 
Q 2797 -91 1919 -91 
Q 1588 -91 1214 -16 
Q 841 59 441 206 
L 441 856 
Q 825 641 1194 531 
Q 1563 422 1919 422 
Q 2459 422 2753 634 
Q 3047 847 3047 1241 
Q 3047 1584 2836 1778 
Q 2625 1972 2144 2069 
L 1759 2144 
Q 1053 2284 737 2584 
Q 422 2884 422 3419 
Q 422 4038 858 4394 
Q 1294 4750 2059 4750 
Q 2388 4750 2728 4690 
Q 3069 4631 3425 4513 
z
" transform="scale(0.015625)"/>
     </defs>
     <use xlink:href="#DejaVuSans-50" transform="translate(0 0.765625)"/>
     <use xlink:href="#DejaVuSans-48" transform="translate(60.302734 0.765625)"/>
     <use xlink:href="#DejaVuSans-2f" transform="translate(135.498047 0.765625)"/>
     <use xlink:href="#DejaVuSans-50" transform="translate(169.189453 0.765625)"/>
     <use xlink:href="#DejaVuSans-44" transform="translate(229.492188 0.765625)"/>
     <use xlink:href="#DejaVuSans-2b" transform="translate(321.088867 39.046875) scale(0.7)"/>
     <use xlink:href="#DejaVuSans-20" transform="translate(396.113281 0.765625)"/>
     <use xlink:href="#DejaVuSans-28" transform="translate(427.900391 0.765625)"/>
     <use xlink:href="#DejaVuSans-58" transform="translate(466.914062 0.765625)"/>
     <use xlink:href="#DejaVuSans-32" transform="translate(536.376953 39.046875) scale(0.7)"/>
     <use xlink:href="#DejaVuSans-3a0" transform="translate(583.647461 0.765625)"/>
     <use xlink:href="#DejaVuSans-29" transform="translate(658.842773 0.765625)"/>
     <use xlink:href="#DejaVuSans-20" transform="translate(697.856445 0.765625)"/>
     <use xlink:href="#DejaVuSans-2b" transform="translate(729.643555 0.765625)"/>
     <use xlink:href="#DejaVuSans-20" transform="translate(813.432617 0.765625)"/>
     <use xlink:href="#DejaVuSans-48" transform="translate(845.219727 0.765625)"/>
     <use xlink:href="#DejaVuSans-20" transform="translate(920.415039 0.765625)"/>
     <use xlink:href="#DejaVuSans-28" transform="translate(952.202148 0.765625)"/>
     <use xlink:href="#DejaVuSans-32" transform="translate(992.172852 39.046875) scale(0.7)"/>
     <use xlink:href="#DejaVuSans-53" transform="translate(1039.443359 0.765625)"/>
     <use xlink:href="#DejaVuSans-29" transform="translate(1102.919922 0.765625)"/>
    </g>
   </g>
   <g id="text_17">
    <!-- 1.21 eV -->
    <g transform="translate(758.552945 115.817472) rotate(-270) scale(0.15 -0.15)">
     <use xlink:href="#DejaVuSans-31"/>
     <use xlink:href="#DejaVuSans-2e" transform="translate(63.623047 0)"/>
     <use xlink:href="#DejaVuSans-32" transform="translate(95.410156 0)"/>
     <use xlink:href="#DejaVuSans-31" transform="translate(159.033203 0)"/>
     <use xlink:href="#DejaVuSans-20" transform="translate(222.65625 0)"/>
     <use xlink:href="#DejaVuSans-65" transform="translate(254.443359 0)"/>
     <use xlink:href="#DejaVuSans-56" transform="translate(315.966797 0)"/>
    </g>
   </g>
   <g id="legend_1">
    <g id="line2d_15">
     <path d="M 94.61 35.082788 
L 112.61 35.082788 
L 130.61 35.082788 
" style="fill: none; stroke: #06ac18; stroke-width: 2; stroke-linecap: square"/>
    </g>
    <g id="text_18">
     <!-- 1 $^3$A'' -->
     <g transform="translate(145.01 41.382788) scale(0.18 -0.18)">
      <defs>
       <path id="DejaVuSans-41" d="M 2188 4044 
L 1331 1722 
L 3047 1722 
L 2188 4044 
z
M 1831 4666 
L 2547 4666 
L 4325 0 
L 3669 0 
L 3244 1197 
L 1141 1197 
L 716 0 
L 50 0 
L 1831 4666 
z
" transform="scale(0.015625)"/>
       <path id="DejaVuSans-27" d="M 1147 4666 
L 1147 2931 
L 616 2931 
L 616 4666 
L 1147 4666 
z
" transform="scale(0.015625)"/>
      </defs>
      <use xlink:href="#DejaVuSans-31" transform="translate(0 0.765625)"/>
      <use xlink:href="#DejaVuSans-20" transform="translate(63.623047 0.765625)"/>
      <use xlink:href="#DejaVuSans-33" transform="translate(96.367188 39.046875) scale(0.7)"/>
      <use xlink:href="#DejaVuSans-41" transform="translate(143.637695 0.765625)"/>
      <use xlink:href="#DejaVuSans-27" transform="translate(212.045898 0.765625)"/>
      <use xlink:href="#DejaVuSans-27" transform="translate(239.536133 0.765625)"/>
     </g>
    </g>
   </g>
  </g>
 </g>
 <defs>
  <clipPath id="pdc1162fbac">
   <rect x="78.41" y="11.5056" width="774.79" height="506.1184"/>
  </clipPath>
 </defs>
</svg>
