<?xml version="1.0" encoding="utf-8" standalone="no"?>
<!DOCTYPE svg PUBLIC "-//W3C//DTD SVG 1.1//EN"
  "http://www.w3.org/Graphics/SVG/1.1/DTD/svg11.dtd">
<svg xmlns:xlink="http://www.w3.org/1999/xlink" width="864pt" height="576pt" viewBox="0 0 864 576" xmlns="http://www.w3.org/2000/svg" version="1.1">
 <metadata>
  <rdf:RDF xmlns:dc="http://purl.org/dc/elements/1.1/" xmlns:cc="http://creativecommons.org/ns#" xmlns:rdf="http://www.w3.org/1999/02/22-rdf-syntax-ns#">
   <cc:Work>
    <dc:type rdf:resource="http://purl.org/dc/dcmitype/StillImage"/>
    <dc:date>2025-10-01T13:54:45.330755</dc:date>
    <dc:format>image/svg+xml</dc:format>
    <dc:creator>
     <cc:Agent>
      <dc:title>Matplotlib v3.10.0, https://matplotlib.org/</dc:title>
     </cc:Agent>
    </dc:creator>
   </cc:Work>
  </rdf:RDF>
 </metadata>
 <defs>
  <style type="text/css">*{stroke-linejoin: round; stroke-linecap: butt}</style>
 </defs>
 <g id="figure_1">
  <g id="patch_1">
   <path d="M 0 576 
L 864 576 
L 864 0 
L 0 0 
L 0 576 
z
" style="fill: none"/>
  </g>
  <g id="axes_1">
   <g id="patch_2">
    <path d="M 65.81 517.624 
L 853.2 517.624 
L 853.2 10.8 
L 65.81 10.8 
L 65.81 517.624 
z
" style="fill: none"/>
   </g>
   <g id="patch_3">
    <path d="M 781.480904 38.790481 
L 784.244645 54.432354 
L 782.171839 54.432354 
L 782.171839 490.840592 
L 780.789968 490.840592 
L 780.789968 54.432354 
L 778.717162 54.432354 
z
" clip-path="url(#pf073b33810)" style="fill: #58cfca; stroke: #58cfca; stroke-linejoin: miter"/>
   </g>
   <g id="patch_4">
    <path d="M 781.480904 490.840592 
L 778.717162 475.19872 
L 780.789968 475.19872 
L 780.789968 38.790481 
L 782.171839 38.790481 
L 782.171839 475.19872 
L 784.244645 475.19872 
z
" clip-path="url(#pf073b33810)" style="fill: #58cfca; stroke: #58cfca; stroke-linejoin: miter"/>
   </g>
   <g id="matplotlib.axis_1">
    <g id="xtick_1">
     <g id="line2d_1">
      <defs>
       <path id="mc08ba73e24" d="M 0 0 
L 0 3.5 
" style="stroke: #000000; stroke-width: 0.8"/>
      </defs>
      <g>
       <use xlink:href="#mc08ba73e24" x="201.095154" y="517.624" style="stroke: #000000; stroke-width: 0.8"/>
      </g>
     </g>
     <g id="text_1">
      <!-- −10 -->
      <g transform="translate(185.266639 536.021656) scale(0.15 -0.15)">
       <defs>
        <path id="DejaVuSans-2212" d="M 678 2272 
L 4684 2272 
L 4684 1741 
L 678 1741 
L 678 2272 
z
" transform="scale(0.015625)"/>
        <path id="DejaVuSans-31" d="M 794 531 
L 1825 531 
L 1825 4091 
L 703 3866 
L 703 4441 
L 1819 4666 
L 2450 4666 
L 2450 531 
L 3481 531 
L 3481 0 
L 794 0 
L 794 531 
z
" transform="scale(0.015625)"/>
        <path id="DejaVuSans-30" d="M 2034 4250 
Q 1547 4250 1301 3770 
Q 1056 3291 1056 2328 
Q 1056 1369 1301 889 
Q 1547 409 2034 409 
Q 2525 409 2770 889 
Q 3016 1369 3016 2328 
Q 3016 3291 2770 3770 
Q 2525 4250 2034 4250 
z
M 2034 4750 
Q 2819 4750 3233 4129 
Q 3647 3509 3647 2328 
Q 3647 1150 3233 529 
Q 2819 -91 2034 -91 
Q 1250 -91 836 529 
Q 422 1150 422 2328 
Q 422 3509 836 4129 
Q 1250 4750 2034 4750 
z
" transform="scale(0.015625)"/>
       </defs>
       <use xlink:href="#DejaVuSans-2212"/>
       <use xlink:href="#DejaVuSans-31" transform="translate(83.789062 0)"/>
       <use xlink:href="#DejaVuSans-30" transform="translate(147.412109 0)"/>
      </g>
     </g>
    </g>
    <g id="xtick_2">
     <g id="line2d_2">
      <g>
       <use xlink:href="#mc08ba73e24" x="339.282238" y="517.624" style="stroke: #000000; stroke-width: 0.8"/>
      </g>
     </g>
     <g id="text_2">
      <!-- −5 -->
      <g transform="translate(328.225597 536.021656) scale(0.15 -0.15)">
       <defs>
        <path id="DejaVuSans-35" d="M 691 4666 
L 3169 4666 
L 3169 4134 
L 1269 4134 
L 1269 2991 
Q 1406 3038 1543 3061 
Q 1681 3084 1819 3084 
Q 2600 3084 3056 2656 
Q 3513 2228 3513 1497 
Q 3513 744 3044 326 
Q 2575 -91 1722 -91 
Q 1428 -91 1123 -41 
Q 819 9 494 109 
L 494 744 
Q 775 591 1075 516 
Q 1375 441 1709 441 
Q 2250 441 2565 725 
Q 2881 1009 2881 1497 
Q 2881 1984 2565 2268 
Q 2250 2553 1709 2553 
Q 1456 2553 1204 2497 
Q 953 2441 691 2322 
L 691 4666 
z
" transform="scale(0.015625)"/>
       </defs>
       <use xlink:href="#DejaVuSans-2212"/>
       <use xlink:href="#DejaVuSans-35" transform="translate(83.789062 0)"/>
      </g>
     </g>
    </g>
    <g id="xtick_3">
     <g id="line2d_3">
      <g>
       <use xlink:href="#mc08ba73e24" x="477.469321" y="517.624" style="stroke: #000000; stroke-width: 0.8"/>
      </g>
     </g>
     <g id="text_3">
      <!-- 0 -->
      <g transform="translate(472.697446 536.021656) scale(0.15 -0.15)">
       <use xlink:href="#DejaVuSans-30"/>
      </g>
     </g>
    </g>
    <g id="xtick_4">
     <g id="line2d_4">
      <g>
       <use xlink:href="#mc08ba73e24" x="615.656404" y="517.624" style="stroke: #000000; stroke-width: 0.8"/>
      </g>
     </g>
     <g id="text_4">
      <!-- 5 -->
      <g transform="translate(610.884529 536.021656) scale(0.15 -0.15)">
       <use xlink:href="#DejaVuSans-35"/>
      </g>
     </g>
    </g>
    <g id="xtick_5">
     <g id="line2d_5">
      <g>
       <use xlink:href="#mc08ba73e24" x="753.843487" y="517.624" style="stroke: #000000; stroke-width: 0.8"/>
      </g>
     </g>
     <g id="text_5">
      <!-- 10 -->
      <g transform="translate(744.299737 536.021656) scale(0.15 -0.15)">
       <use xlink:href="#DejaVuSans-31"/>
       <use xlink:href="#DejaVuSans-30" transform="translate(63.623047 0)"/>
      </g>
     </g>
    </g>
    <g id="text_6">
     <!-- r$_{23}$-r$_{12}$ (a$_o$) -->
     <g transform="translate(407.305 558.338062) scale(0.2 -0.2)">
      <defs>
       <path id="DejaVuSans-72" d="M 2631 2963 
Q 2534 3019 2420 3045 
Q 2306 3072 2169 3072 
Q 1681 3072 1420 2755 
Q 1159 2438 1159 1844 
L 1159 0 
L 581 0 
L 581 3500 
L 1159 3500 
L 1159 2956 
Q 1341 3275 1631 3429 
Q 1922 3584 2338 3584 
Q 2397 3584 2469 3576 
Q 2541 3569 2628 3553 
L 2631 2963 
z
" transform="scale(0.015625)"/>
       <path id="DejaVuSans-32" d="M 1228 531 
L 3431 531 
L 3431 0 
L 469 0 
L 469 531 
Q 828 903 1448 1529 
Q 2069 2156 2228 2338 
Q 2531 2678 2651 2914 
Q 2772 3150 2772 3378 
Q 2772 3750 2511 3984 
Q 2250 4219 1831 4219 
Q 1534 4219 1204 4116 
Q 875 4013 500 3803 
L 500 4441 
Q 881 4594 1212 4672 
Q 1544 4750 1819 4750 
Q 2544 4750 2975 4387 
Q 3406 4025 3406 3419 
Q 3406 3131 3298 2873 
Q 3191 2616 2906 2266 
Q 2828 2175 2409 1742 
Q 1991 1309 1228 531 
z
" transform="scale(0.015625)"/>
       <path id="DejaVuSans-33" d="M 2597 2516 
Q 3050 2419 3304 2112 
Q 3559 1806 3559 1356 
Q 3559 666 3084 287 
Q 2609 -91 1734 -91 
Q 1441 -91 1130 -33 
Q 819 25 488 141 
L 488 750 
Q 750 597 1062 519 
Q 1375 441 1716 441 
Q 2309 441 2620 675 
Q 2931 909 2931 1356 
Q 2931 1769 2642 2001 
Q 2353 2234 1838 2234 
L 1294 2234 
L 1294 2753 
L 1863 2753 
Q 2328 2753 2575 2939 
Q 2822 3125 2822 3475 
Q 2822 3834 2567 4026 
Q 2313 4219 1838 4219 
Q 1578 4219 1281 4162 
Q 984 4106 628 3988 
L 628 4550 
Q 988 4650 1302 4700 
Q 1616 4750 1894 4750 
Q 2613 4750 3031 4423 
Q 3450 4097 3450 3541 
Q 3450 3153 3228 2886 
Q 3006 2619 2597 2516 
z
" transform="scale(0.015625)"/>
       <path id="DejaVuSans-2d" d="M 313 2009 
L 1997 2009 
L 1997 1497 
L 313 1497 
L 313 2009 
z
" transform="scale(0.015625)"/>
       <path id="DejaVuSans-20" transform="scale(0.015625)"/>
       <path id="DejaVuSans-28" d="M 1984 4856 
Q 1566 4138 1362 3434 
Q 1159 2731 1159 2009 
Q 1159 1288 1364 580 
Q 1569 -128 1984 -844 
L 1484 -844 
Q 1016 -109 783 600 
Q 550 1309 550 2009 
Q 550 2706 781 3412 
Q 1013 4119 1484 4856 
L 1984 4856 
z
" transform="scale(0.015625)"/>
       <path id="DejaVuSans-61" d="M 2194 1759 
Q 1497 1759 1228 1600 
Q 959 1441 959 1056 
Q 959 750 1161 570 
Q 1363 391 1709 391 
Q 2188 391 2477 730 
Q 2766 1069 2766 1631 
L 2766 1759 
L 2194 1759 
z
M 3341 1997 
L 3341 0 
L 2766 0 
L 2766 531 
Q 2569 213 2275 61 
Q 1981 -91 1556 -91 
Q 1019 -91 701 211 
Q 384 513 384 1019 
Q 384 1609 779 1909 
Q 1175 2209 1959 2209 
L 2766 2209 
L 2766 2266 
Q 2766 2663 2505 2880 
Q 2244 3097 1772 3097 
Q 1472 3097 1187 3025 
Q 903 2953 641 2809 
L 641 3341 
Q 956 3463 1253 3523 
Q 1550 3584 1831 3584 
Q 2591 3584 2966 3190 
Q 3341 2797 3341 1997 
z
" transform="scale(0.015625)"/>
       <path id="DejaVuSans-Oblique-6f" d="M 1625 -91 
Q 1009 -91 651 289 
Q 294 669 294 1325 
Q 294 1706 417 2101 
Q 541 2497 738 2766 
Q 1047 3184 1428 3384 
Q 1809 3584 2291 3584 
Q 2888 3584 3255 3212 
Q 3622 2841 3622 2241 
Q 3622 1825 3500 1412 
Q 3378 1000 3181 728 
Q 2875 309 2494 109 
Q 2113 -91 1625 -91 
z
M 891 1344 
Q 891 869 1089 633 
Q 1288 397 1691 397 
Q 2269 397 2648 901 
Q 3028 1406 3028 2181 
Q 3028 2634 2825 2865 
Q 2622 3097 2228 3097 
Q 1903 3097 1650 2945 
Q 1397 2794 1197 2484 
Q 1050 2253 970 1956 
Q 891 1659 891 1344 
z
" transform="scale(0.015625)"/>
       <path id="DejaVuSans-29" d="M 513 4856 
L 1013 4856 
Q 1481 4119 1714 3412 
Q 1947 2706 1947 2009 
Q 1947 1309 1714 600 
Q 1481 -109 1013 -844 
L 513 -844 
Q 928 -128 1133 580 
Q 1338 1288 1338 2009 
Q 1338 2731 1133 3434 
Q 928 4138 513 4856 
z
" transform="scale(0.015625)"/>
      </defs>
      <use xlink:href="#DejaVuSans-72" transform="translate(0 0.125)"/>
      <use xlink:href="#DejaVuSans-32" transform="translate(42.070312 -16.28125) scale(0.7)"/>
      <use xlink:href="#DejaVuSans-33" transform="translate(86.606445 -16.28125) scale(0.7)"/>
      <use xlink:href="#DejaVuSans-2d" transform="translate(133.876953 0.125)"/>
      <use xlink:href="#DejaVuSans-72" transform="translate(169.960938 0.125)"/>
      <use xlink:href="#DejaVuSans-31" transform="translate(212.03125 -16.28125) scale(0.7)"/>
      <use xlink:href="#DejaVuSans-32" transform="translate(256.567383 -16.28125) scale(0.7)"/>
      <use xlink:href="#DejaVuSans-20" transform="translate(303.837891 0.125)"/>
      <use xlink:href="#DejaVuSans-28" transform="translate(335.625 0.125)"/>
      <use xlink:href="#DejaVuSans-61" transform="translate(374.638672 0.125)"/>
      <use xlink:href="#DejaVuSans-Oblique-6f" transform="translate(436.875 -16.28125) scale(0.7)"/>
      <use xlink:href="#DejaVuSans-29" transform="translate(482.436523 0.125)"/>
     </g>
    </g>
   </g>
   <g id="matplotlib.axis_2">
    <g id="ytick_1">
     <g id="line2d_6">
      <defs>
       <path id="md26323362a" d="M 0 0 
L -3.5 0 
" style="stroke: #000000; stroke-width: 0.8"/>
      </defs>
      <g>
       <use xlink:href="#md26323362a" x="65.81" y="490.840592" style="stroke: #000000; stroke-width: 0.8"/>
      </g>
     </g>
     <g id="text_7">
      <!-- 0.0 -->
      <g transform="translate(34.955313 496.53942) scale(0.15 -0.15)">
       <defs>
        <path id="DejaVuSans-2e" d="M 684 794 
L 1344 794 
L 1344 0 
L 684 0 
L 684 794 
z
" transform="scale(0.015625)"/>
       </defs>
       <use xlink:href="#DejaVuSans-30"/>
       <use xlink:href="#DejaVuSans-2e" transform="translate(63.623047 0)"/>
       <use xlink:href="#DejaVuSans-30" transform="translate(95.410156 0)"/>
      </g>
     </g>
    </g>
    <g id="ytick_2">
     <g id="line2d_7">
      <g>
       <use xlink:href="#md26323362a" x="65.81" y="412.63123" style="stroke: #000000; stroke-width: 0.8"/>
      </g>
     </g>
     <g id="text_8">
      <!-- 0.5 -->
      <g transform="translate(34.955313 418.330058) scale(0.15 -0.15)">
       <use xlink:href="#DejaVuSans-30"/>
       <use xlink:href="#DejaVuSans-2e" transform="translate(63.623047 0)"/>
       <use xlink:href="#DejaVuSans-35" transform="translate(95.410156 0)"/>
      </g>
     </g>
    </g>
    <g id="ytick_3">
     <g id="line2d_8">
      <g>
       <use xlink:href="#md26323362a" x="65.81" y="334.421869" style="stroke: #000000; stroke-width: 0.8"/>
      </g>
     </g>
     <g id="text_9">
      <!-- 1.0 -->
      <g transform="translate(34.955313 340.120697) scale(0.15 -0.15)">
       <use xlink:href="#DejaVuSans-31"/>
       <use xlink:href="#DejaVuSans-2e" transform="translate(63.623047 0)"/>
       <use xlink:href="#DejaVuSans-30" transform="translate(95.410156 0)"/>
      </g>
     </g>
    </g>
    <g id="ytick_4">
     <g id="line2d_9">
      <g>
       <use xlink:href="#md26323362a" x="65.81" y="256.212507" style="stroke: #000000; stroke-width: 0.8"/>
      </g>
     </g>
     <g id="text_10">
      <!-- 1.5 -->
      <g transform="translate(34.955313 261.911335) scale(0.15 -0.15)">
       <use xlink:href="#DejaVuSans-31"/>
       <use xlink:href="#DejaVuSans-2e" transform="translate(63.623047 0)"/>
       <use xlink:href="#DejaVuSans-35" transform="translate(95.410156 0)"/>
      </g>
     </g>
    </g>
    <g id="ytick_5">
     <g id="line2d_10">
      <g>
       <use xlink:href="#md26323362a" x="65.81" y="178.003145" style="stroke: #000000; stroke-width: 0.8"/>
      </g>
     </g>
     <g id="text_11">
      <!-- 2.0 -->
      <g transform="translate(34.955313 183.701973) scale(0.15 -0.15)">
       <use xlink:href="#DejaVuSans-32"/>
       <use xlink:href="#DejaVuSans-2e" transform="translate(63.623047 0)"/>
       <use xlink:href="#DejaVuSans-30" transform="translate(95.410156 0)"/>
      </g>
     </g>
    </g>
    <g id="ytick_6">
     <g id="line2d_11">
      <g>
       <use xlink:href="#md26323362a" x="65.81" y="99.793783" style="stroke: #000000; stroke-width: 0.8"/>
      </g>
     </g>
     <g id="text_12">
      <!-- 2.5 -->
      <g transform="translate(34.955313 105.492611) scale(0.15 -0.15)">
       <use xlink:href="#DejaVuSans-32"/>
       <use xlink:href="#DejaVuSans-2e" transform="translate(63.623047 0)"/>
       <use xlink:href="#DejaVuSans-35" transform="translate(95.410156 0)"/>
      </g>
     </g>
    </g>
    <g id="ytick_7">
     <g id="line2d_12">
      <g>
       <use xlink:href="#md26323362a" x="65.81" y="21.584422" style="stroke: #000000; stroke-width: 0.8"/>
      </g>
     </g>
     <g id="text_13">
      <!-- 3.0 -->
      <g transform="translate(34.955313 27.28325) scale(0.15 -0.15)">
       <use xlink:href="#DejaVuSans-33"/>
       <use xlink:href="#DejaVuSans-2e" transform="translate(63.623047 0)"/>
       <use xlink:href="#DejaVuSans-30" transform="translate(95.410156 0)"/>
      </g>
     </g>
    </g>
    <g id="text_14">
     <!-- E (eV) -->
     <g transform="translate(26.795938 294.50575) rotate(-90) scale(0.2 -0.2)">
      <defs>
       <path id="DejaVuSans-45" d="M 628 4666 
L 3578 4666 
L 3578 4134 
L 1259 4134 
L 1259 2753 
L 3481 2753 
L 3481 2222 
L 1259 2222 
L 1259 531 
L 3634 531 
L 3634 0 
L 628 0 
L 628 4666 
z
" transform="scale(0.015625)"/>
       <path id="DejaVuSans-65" d="M 3597 1894 
L 3597 1613 
L 953 1613 
Q 991 1019 1311 708 
Q 1631 397 2203 397 
Q 2534 397 2845 478 
Q 3156 559 3463 722 
L 3463 178 
Q 3153 47 2828 -22 
Q 2503 -91 2169 -91 
Q 1331 -91 842 396 
Q 353 884 353 1716 
Q 353 2575 817 3079 
Q 1281 3584 2069 3584 
Q 2775 3584 3186 3129 
Q 3597 2675 3597 1894 
z
M 3022 2063 
Q 3016 2534 2758 2815 
Q 2500 3097 2075 3097 
Q 1594 3097 1305 2825 
Q 1016 2553 972 2059 
L 3022 2063 
z
" transform="scale(0.015625)"/>
       <path id="DejaVuSans-56" d="M 1831 0 
L 50 4666 
L 709 4666 
L 2188 738 
L 3669 4666 
L 4325 4666 
L 2547 0 
L 1831 0 
z
" transform="scale(0.015625)"/>
      </defs>
      <use xlink:href="#DejaVuSans-45"/>
      <use xlink:href="#DejaVuSans-20" transform="translate(63.183594 0)"/>
      <use xlink:href="#DejaVuSans-28" transform="translate(94.970703 0)"/>
      <use xlink:href="#DejaVuSans-65" transform="translate(133.984375 0)"/>
      <use xlink:href="#DejaVuSans-56" transform="translate(195.507812 0)"/>
      <use xlink:href="#DejaVuSans-29" transform="translate(263.916016 0)"/>
     </g>
    </g>
   </g>
   <g id="line2d_13">
    <path d="M 101.600455 490.840592 
L 161.522569 491.203125 
L 206.587962 491.692346 
L 260.567387 492.538641 
L 283.84292 492.786347 
L 296.718746 492.708482 
L 305.63278 492.445124 
L 312.565917 492.032458 
L 319.994278 491.331985 
L 323.956071 490.845229 
L 326.432191 490.811007 
L 328.908312 490.993211 
L 331.879656 491.451933 
L 335.346225 492.227288 
L 343.269811 494.105985 
L 345.250707 494.319212 
L 351.549234 494.48182 
L 352.600074 494.144421 
L 353.70622 493.548875 
L 354.895328 492.646671 
L 356.167397 491.39544 
L 357.55008 489.715688 
L 359.043378 487.544878 
L 360.674944 484.769695 
L 362.444779 481.306093 
L 364.352882 477.069136 
L 366.399253 471.972639 
L 368.611546 465.847542 
L 370.962108 458.66675 
L 373.450938 450.334636 
L 376.078036 440.750366 
L 378.843403 429.807668 
L 381.747038 417.394727 
L 384.788941 403.39441 
L 387.969113 387.68676 
L 391.287553 370.151622 
L 394.744261 350.674258 
L 398.394545 328.811254 
L 402.293712 304.072505 
L 406.497069 275.941611 
L 411.281153 242.363569 
L 417.586189 196.390751 
L 426.739552 129.715964 
L 430.445144 104.44775 
L 433.321125 86.293722 
L 435.726994 72.45909 
L 437.801019 61.773411 
L 439.598507 53.619388 
L 441.174766 47.440072 
L 442.585103 42.771171 
L 443.829518 39.390949 
L 444.908011 37.066588 
L 445.848236 35.528657 
L 446.677846 34.569781 
L 447.396841 34.054074 
L 448.032875 33.850978 
L 448.641256 33.886106 
L 449.249637 34.151947 
L 449.885671 34.68331 
L 450.577013 35.562754 
L 451.351315 36.931576 
L 452.208579 38.934044 
L 453.148803 41.736611 
L 454.171989 45.529001 
L 455.278136 50.524942 
L 456.467243 56.962055 
L 457.739312 65.100242 
L 459.121995 75.440346 
L 460.615293 88.374185 
L 462.219206 104.309104 
L 463.933733 123.645985 
L 465.814183 147.486794 
L 467.888207 176.742752 
L 470.266423 213.599091 
L 473.280672 264.04781 
L 480.360011 383.947125 
L 482.323421 412.69088 
L 483.89968 432.700511 
L 485.199402 446.577194 
L 486.305549 456.176953 
L 487.245774 462.52753 
L 487.48083 463.834624 
L 488.140687 465.354551 
L 488.800545 466.401563 
L 489.460402 466.988696 
L 490.12026 467.128085 
L 490.780117 466.832901 
L 491.439974 466.116541 
L 492.099832 464.992517 
L 492.759689 463.474744 
L 493.419547 461.578071 
L 494.739262 456.709646 
L 496.058976 450.543158 
L 497.378691 443.26279 
L 499.358264 430.626311 
L 501.337836 416.377877 
L 503.977266 395.423577 
L 507.276553 367.22244 
L 516.514557 287.166802 
L 519.813844 260.755247 
L 523.113131 236.225311 
L 525.752561 218.076023 
L 528.391991 201.269588 
L 531.03142 185.793263 
L 533.67085 171.606105 
L 536.31028 158.649695 
L 538.94971 146.854444 
L 541.589139 136.144595 
L 544.228569 126.44013 
L 546.867999 117.662286 
L 549.507428 109.735732 
L 552.146858 102.58908 
L 554.786288 96.154996 
L 557.425718 90.368901 
L 560.065147 85.170475 
L 562.704577 80.50433 
L 565.344007 76.319588 
L 567.983436 72.569602 
L 570.622866 69.21122 
L 573.262296 66.205236 
L 575.901726 63.513804 
L 579.201013 60.536479 
L 583.820015 56.664674 
L 587.119302 54.190014 
L 590.418589 52.027376 
L 593.058019 50.543923 
L 595.697449 49.292155 
L 598.336878 48.279514 
L 600.976308 47.510125 
L 605.59531 46.510465 
L 610.87417 45.521048 
L 617.472744 44.541116 
L 624.731176 43.693833 
L 633.309322 42.933646 
L 643.207184 42.296861 
L 655.084617 41.767638 
L 670.921196 41.305852 
L 694.676063 40.862755 
L 812.130686 38.913084 
L 817.409545 38.805969 
L 817.409545 38.805969 
" clip-path="url(#pf073b33810)" style="fill: none; stroke: #58cfca; stroke-width: 2; stroke-linecap: square"/>
   </g>
   <g id="line2d_14">
    <path d="M 101.600455 490.840592 
L 817.409545 490.840592 
" clip-path="url(#pf073b33810)" style="fill: none; stroke-dasharray: 3.7,1.6; stroke-dashoffset: 0; stroke: #000000"/>
   </g>
   <g id="patch_5">
    <path d="M 65.81 517.624 
L 65.81 10.8 
" style="fill: none; stroke: #000000; stroke-width: 0.8; stroke-linejoin: miter; stroke-linecap: square"/>
   </g>
   <g id="patch_6">
    <path d="M 853.2 517.624 
L 853.2 10.8 
" style="fill: none; stroke: #000000; stroke-width: 0.8; stroke-linejoin: miter; stroke-linecap: square"/>
   </g>
   <g id="patch_7">
    <path d="M 65.81 517.624 
L 853.2 517.624 
" style="fill: none; stroke: #000000; stroke-width: 0.8; stroke-linejoin: miter; stroke-linecap: square"/>
   </g>
   <g id="patch_8">
    <path d="M 65.81 10.8 
L 853.2 10.8 
" style="fill: none; stroke: #000000; stroke-width: 0.8; stroke-linejoin: miter; stroke-linecap: square"/>
   </g>
   <g id="text_15">
    <!-- P$^+$ ($^3$P) + H$_2$/D$_2$ (X$^1\Sigma^+$) -->
    <g transform="translate(119.1902 482.058549) scale(0.15 -0.15)">
     <defs>
      <path id="DejaVuSans-50" d="M 1259 4147 
L 1259 2394 
L 2053 2394 
Q 2494 2394 2734 2622 
Q 2975 2850 2975 3272 
Q 2975 3691 2734 3919 
Q 2494 4147 2053 4147 
L 1259 4147 
z
M 628 4666 
L 2053 4666 
Q 2838 4666 3239 4311 
Q 3641 3956 3641 3272 
Q 3641 2581 3239 2228 
Q 2838 1875 2053 1875 
L 1259 1875 
L 1259 0 
L 628 0 
L 628 4666 
z
" transform="scale(0.015625)"/>
      <path id="DejaVuSans-2b" d="M 2944 4013 
L 2944 2272 
L 4684 2272 
L 4684 1741 
L 2944 1741 
L 2944 0 
L 2419 0 
L 2419 1741 
L 678 1741 
L 678 2272 
L 2419 2272 
L 2419 4013 
L 2944 4013 
z
" transform="scale(0.015625)"/>
      <path id="DejaVuSans-48" d="M 628 4666 
L 1259 4666 
L 1259 2753 
L 3553 2753 
L 3553 4666 
L 4184 4666 
L 4184 0 
L 3553 0 
L 3553 2222 
L 1259 2222 
L 1259 0 
L 628 0 
L 628 4666 
z
" transform="scale(0.015625)"/>
      <path id="DejaVuSans-2f" d="M 1625 4666 
L 2156 4666 
L 531 -594 
L 0 -594 
L 1625 4666 
z
" transform="scale(0.015625)"/>
      <path id="DejaVuSans-44" d="M 1259 4147 
L 1259 519 
L 2022 519 
Q 2988 519 3436 956 
Q 3884 1394 3884 2338 
Q 3884 3275 3436 3711 
Q 2988 4147 2022 4147 
L 1259 4147 
z
M 628 4666 
L 1925 4666 
Q 3281 4666 3915 4102 
Q 4550 3538 4550 2338 
Q 4550 1131 3912 565 
Q 3275 0 1925 0 
L 628 0 
L 628 4666 
z
" transform="scale(0.015625)"/>
      <path id="DejaVuSans-58" d="M 403 4666 
L 1081 4666 
L 2241 2931 
L 3406 4666 
L 4084 4666 
L 2584 2425 
L 4184 0 
L 3506 0 
L 2194 1984 
L 872 0 
L 191 0 
L 1856 2491 
L 403 4666 
z
" transform="scale(0.015625)"/>
      <path id="DejaVuSans-3a3" d="M 1353 531 
L 3634 531 
L 3634 0 
L 628 0 
L 628 531 
L 2125 2481 
L 628 4134 
L 628 4666 
L 3578 4666 
L 3578 4134 
L 1353 4134 
L 2850 2494 
L 1353 531 
z
" transform="scale(0.015625)"/>
     </defs>
     <use xlink:href="#DejaVuSans-50" transform="translate(0 0.765625)"/>
     <use xlink:href="#DejaVuSans-2b" transform="translate(74.897461 39.046875) scale(0.7)"/>
     <use xlink:href="#DejaVuSans-20" transform="translate(149.921875 0.765625)"/>
     <use xlink:href="#DejaVuSans-28" transform="translate(181.708984 0.765625)"/>
     <use xlink:href="#DejaVuSans-33" transform="translate(221.679688 39.046875) scale(0.7)"/>
     <use xlink:href="#DejaVuSans-50" transform="translate(268.950195 0.765625)"/>
     <use xlink:href="#DejaVuSans-29" transform="translate(329.25293 0.765625)"/>
     <use xlink:href="#DejaVuSans-20" transform="translate(368.266602 0.765625)"/>
     <use xlink:href="#DejaVuSans-2b" transform="translate(400.053711 0.765625)"/>
     <use xlink:href="#DejaVuSans-20" transform="translate(483.842773 0.765625)"/>
     <use xlink:href="#DejaVuSans-48" transform="translate(515.629883 0.765625)"/>
     <use xlink:href="#DejaVuSans-32" transform="translate(591.782227 -15.640625) scale(0.7)"/>
     <use xlink:href="#DejaVuSans-2f" transform="translate(639.052734 0.765625)"/>
     <use xlink:href="#DejaVuSans-44" transform="translate(672.744141 0.765625)"/>
     <use xlink:href="#DejaVuSans-32" transform="translate(750.703125 -15.640625) scale(0.7)"/>
     <use xlink:href="#DejaVuSans-20" transform="translate(797.973633 0.765625)"/>
     <use xlink:href="#DejaVuSans-28" transform="translate(829.760742 0.765625)"/>
     <use xlink:href="#DejaVuSans-58" transform="translate(868.774414 0.765625)"/>
     <use xlink:href="#DejaVuSans-31" transform="translate(938.237305 39.046875) scale(0.7)"/>
     <use xlink:href="#DejaVuSans-3a3" transform="translate(985.507812 0.765625)"/>
     <use xlink:href="#DejaVuSans-2b" transform="translate(1063.286133 39.046875) scale(0.7)"/>
     <use xlink:href="#DejaVuSans-29" transform="translate(1138.310547 0.765625)"/>
    </g>
   </g>
   <g id="text_16">
    <!-- PH/PD$^+$ (1$^4\Sigma^-$) + H ($^2$S) -->
    <g transform="translate(620.3448 35.828429) scale(0.15 -0.15)">
     <defs>
      <path id="DejaVuSans-34" d="M 2419 4116 
L 825 1625 
L 2419 1625 
L 2419 4116 
z
M 2253 4666 
L 3047 4666 
L 3047 1625 
L 3713 1625 
L 3713 1100 
L 3047 1100 
L 3047 0 
L 2419 0 
L 2419 1100 
L 313 1100 
L 313 1709 
L 2253 4666 
z
" transform="scale(0.015625)"/>
      <path id="DejaVuSans-53" d="M 3425 4513 
L 3425 3897 
Q 3066 4069 2747 4153 
Q 2428 4238 2131 4238 
Q 1616 4238 1336 4038 
Q 1056 3838 1056 3469 
Q 1056 3159 1242 3001 
Q 1428 2844 1947 2747 
L 2328 2669 
Q 3034 2534 3370 2195 
Q 3706 1856 3706 1288 
Q 3706 609 3251 259 
Q 2797 -91 1919 -91 
Q 1588 -91 1214 -16 
Q 841 59 441 206 
L 441 856 
Q 825 641 1194 531 
Q 1563 422 1919 422 
Q 2459 422 2753 634 
Q 3047 847 3047 1241 
Q 3047 1584 2836 1778 
Q 2625 1972 2144 2069 
L 1759 2144 
Q 1053 2284 737 2584 
Q 422 2884 422 3419 
Q 422 4038 858 4394 
Q 1294 4750 2059 4750 
Q 2388 4750 2728 4690 
Q 3069 4631 3425 4513 
z
" transform="scale(0.015625)"/>
     </defs>
     <use xlink:href="#DejaVuSans-50" transform="translate(0 0.765625)"/>
     <use xlink:href="#DejaVuSans-48" transform="translate(60.302734 0.765625)"/>
     <use xlink:href="#DejaVuSans-2f" transform="translate(135.498047 0.765625)"/>
     <use xlink:href="#DejaVuSans-50" transform="translate(169.189453 0.765625)"/>
     <use xlink:href="#DejaVuSans-44" transform="translate(229.492188 0.765625)"/>
     <use xlink:href="#DejaVuSans-2b" transform="translate(321.088867 39.046875) scale(0.7)"/>
     <use xlink:href="#DejaVuSans-20" transform="translate(396.113281 0.765625)"/>
     <use xlink:href="#DejaVuSans-28" transform="translate(427.900391 0.765625)"/>
     <use xlink:href="#DejaVuSans-31" transform="translate(466.914062 0.765625)"/>
     <use xlink:href="#DejaVuSans-34" transform="translate(531.494141 39.046875) scale(0.7)"/>
     <use xlink:href="#DejaVuSans-3a3" transform="translate(578.764648 0.765625)"/>
     <use xlink:href="#DejaVuSans-2212" transform="translate(656.542969 39.046875) scale(0.7)"/>
     <use xlink:href="#DejaVuSans-29" transform="translate(731.567383 0.765625)"/>
     <use xlink:href="#DejaVuSans-20" transform="translate(770.581055 0.765625)"/>
     <use xlink:href="#DejaVuSans-2b" transform="translate(802.368164 0.765625)"/>
     <use xlink:href="#DejaVuSans-20" transform="translate(886.157227 0.765625)"/>
     <use xlink:href="#DejaVuSans-48" transform="translate(917.944336 0.765625)"/>
     <use xlink:href="#DejaVuSans-20" transform="translate(993.139648 0.765625)"/>
     <use xlink:href="#DejaVuSans-28" transform="translate(1024.926758 0.765625)"/>
     <use xlink:href="#DejaVuSans-32" transform="translate(1064.897461 39.046875) scale(0.7)"/>
     <use xlink:href="#DejaVuSans-53" transform="translate(1112.167969 0.765625)"/>
     <use xlink:href="#DejaVuSans-29" transform="translate(1175.644531 0.765625)"/>
    </g>
   </g>
   <g id="text_17">
    <!-- 2.89 eV -->
    <g transform="translate(784.600435 146.929235) rotate(-270) scale(0.15 -0.15)">
     <defs>
      <path id="DejaVuSans-38" d="M 2034 2216 
Q 1584 2216 1326 1975 
Q 1069 1734 1069 1313 
Q 1069 891 1326 650 
Q 1584 409 2034 409 
Q 2484 409 2743 651 
Q 3003 894 3003 1313 
Q 3003 1734 2745 1975 
Q 2488 2216 2034 2216 
z
M 1403 2484 
Q 997 2584 770 2862 
Q 544 3141 544 3541 
Q 544 4100 942 4425 
Q 1341 4750 2034 4750 
Q 2731 4750 3128 4425 
Q 3525 4100 3525 3541 
Q 3525 3141 3298 2862 
Q 3072 2584 2669 2484 
Q 3125 2378 3379 2068 
Q 3634 1759 3634 1313 
Q 3634 634 3220 271 
Q 2806 -91 2034 -91 
Q 1263 -91 848 271 
Q 434 634 434 1313 
Q 434 1759 690 2068 
Q 947 2378 1403 2484 
z
M 1172 3481 
Q 1172 3119 1398 2916 
Q 1625 2713 2034 2713 
Q 2441 2713 2670 2916 
Q 2900 3119 2900 3481 
Q 2900 3844 2670 4047 
Q 2441 4250 2034 4250 
Q 1625 4250 1398 4047 
Q 1172 3844 1172 3481 
z
" transform="scale(0.015625)"/>
      <path id="DejaVuSans-39" d="M 703 97 
L 703 672 
Q 941 559 1184 500 
Q 1428 441 1663 441 
Q 2288 441 2617 861 
Q 2947 1281 2994 2138 
Q 2813 1869 2534 1725 
Q 2256 1581 1919 1581 
Q 1219 1581 811 2004 
Q 403 2428 403 3163 
Q 403 3881 828 4315 
Q 1253 4750 1959 4750 
Q 2769 4750 3195 4129 
Q 3622 3509 3622 2328 
Q 3622 1225 3098 567 
Q 2575 -91 1691 -91 
Q 1453 -91 1209 -44 
Q 966 3 703 97 
z
M 1959 2075 
Q 2384 2075 2632 2365 
Q 2881 2656 2881 3163 
Q 2881 3666 2632 3958 
Q 2384 4250 1959 4250 
Q 1534 4250 1286 3958 
Q 1038 3666 1038 3163 
Q 1038 2656 1286 2365 
Q 1534 2075 1959 2075 
z
" transform="scale(0.015625)"/>
     </defs>
     <use xlink:href="#DejaVuSans-32"/>
     <use xlink:href="#DejaVuSans-2e" transform="translate(63.623047 0)"/>
     <use xlink:href="#DejaVuSans-38" transform="translate(95.410156 0)"/>
     <use xlink:href="#DejaVuSans-39" transform="translate(159.033203 0)"/>
     <use xlink:href="#DejaVuSans-20" transform="translate(222.65625 0)"/>
     <use xlink:href="#DejaVuSans-65" transform="translate(254.443359 0)"/>
     <use xlink:href="#DejaVuSans-56" transform="translate(315.966797 0)"/>
    </g>
   </g>
   <g id="legend_1">
    <g id="line2d_15">
     <path d="M 82.01 34.377188 
L 100.01 34.377188 
L 118.01 34.377188 
" style="fill: none; stroke: #58cfca; stroke-width: 2; stroke-linecap: square"/>
    </g>
    <g id="text_18">
     <!-- 2 $^3$A'' -->
     <g transform="translate(132.41 40.677188) scale(0.18 -0.18)">
      <defs>
       <path id="DejaVuSans-41" d="M 2188 4044 
L 1331 1722 
L 3047 1722 
L 2188 4044 
z
M 1831 4666 
L 2547 4666 
L 4325 0 
L 3669 0 
L 3244 1197 
L 1141 1197 
L 716 0 
L 50 0 
L 1831 4666 
z
" transform="scale(0.015625)"/>
       <path id="DejaVuSans-27" d="M 1147 4666 
L 1147 2931 
L 616 2931 
L 616 4666 
L 1147 4666 
z
" transform="scale(0.015625)"/>
      </defs>
      <use xlink:href="#DejaVuSans-32" transform="translate(0 0.765625)"/>
      <use xlink:href="#DejaVuSans-20" transform="translate(63.623047 0.765625)"/>
      <use xlink:href="#DejaVuSans-33" transform="translate(96.367188 39.046875) scale(0.7)"/>
      <use xlink:href="#DejaVuSans-41" transform="translate(143.637695 0.765625)"/>
      <use xlink:href="#DejaVuSans-27" transform="translate(212.045898 0.765625)"/>
      <use xlink:href="#DejaVuSans-27" transform="translate(239.536133 0.765625)"/>
     </g>
    </g>
   </g>
  </g>
 </g>
 <defs>
  <clipPath id="pf073b33810">
   <rect x="65.81" y="10.8" width="787.39" height="506.824"/>
  </clipPath>
 </defs>
</svg>
