<?xml version="1.0" encoding="utf-8" standalone="no"?>
<!DOCTYPE svg PUBLIC "-//W3C//DTD SVG 1.1//EN"
  "http://www.w3.org/Graphics/SVG/1.1/DTD/svg11.dtd">
<svg xmlns:xlink="http://www.w3.org/1999/xlink" width="864pt" height="576pt" viewBox="0 0 864 576" xmlns="http://www.w3.org/2000/svg" version="1.1">
 <metadata>
  <rdf:RDF xmlns:dc="http://purl.org/dc/elements/1.1/" xmlns:cc="http://creativecommons.org/ns#" xmlns:rdf="http://www.w3.org/1999/02/22-rdf-syntax-ns#">
   <cc:Work>
    <dc:type rdf:resource="http://purl.org/dc/dcmitype/StillImage"/>
    <dc:date>2025-10-01T13:56:12.806746</dc:date>
    <dc:format>image/svg+xml</dc:format>
    <dc:creator>
     <cc:Agent>
      <dc:title>Matplotlib v3.10.0, https://matplotlib.org/</dc:title>
     </cc:Agent>
    </dc:creator>
   </cc:Work>
  </rdf:RDF>
 </metadata>
 <defs>
  <style type="text/css">*{stroke-linejoin: round; stroke-linecap: butt}</style>
 </defs>
 <g id="figure_1">
  <g id="patch_1">
   <path d="M 0 576 
L 864 576 
L 864 0 
L 0 0 
L 0 576 
z
" style="fill: none"/>
  </g>
  <g id="axes_1">
   <g id="patch_2">
    <path d="M 64.1 517.624 
L 853.2 517.624 
L 853.2 10.8 
L 64.1 10.8 
L 64.1 517.624 
z
" style="fill: none"/>
   </g>
   <g id="patch_3">
    <path d="M 753.627711 246.460378 
L 756.397455 254.486162 
L 754.320147 254.486162 
L 754.320147 343.572363 
L 752.935276 343.572363 
L 752.935276 254.486162 
L 750.857968 254.486162 
z
" clip-path="url(#p246024b13c)" style="fill: #06ac18; stroke: #06ac18; stroke-linejoin: miter"/>
   </g>
   <g id="patch_4">
    <path d="M 753.627711 343.572363 
L 750.857968 335.546579 
L 752.935276 335.546579 
L 752.935276 246.460378 
L 754.320147 246.460378 
L 754.320147 335.546579 
L 756.397455 335.546579 
z
" clip-path="url(#p246024b13c)" style="fill: #06ac18; stroke: #06ac18; stroke-linejoin: miter"/>
   </g>
   <g id="patch_5">
    <path d="M 781.325149 111.627208 
L 784.094893 119.652992 
L 782.017585 119.652992 
L 782.017585 343.572363 
L 780.632713 343.572363 
L 780.632713 119.652992 
L 778.555405 119.652992 
z
" clip-path="url(#p246024b13c)" style="fill: #58cfca; stroke: #58cfca; stroke-linejoin: miter"/>
   </g>
   <g id="patch_6">
    <path d="M 781.325149 343.572363 
L 778.555405 335.546579 
L 780.632713 335.546579 
L 780.632713 111.627208 
L 782.017585 111.627208 
L 782.017585 335.546579 
L 784.094893 335.546579 
z
" clip-path="url(#p246024b13c)" style="fill: #58cfca; stroke: #58cfca; stroke-linejoin: miter"/>
   </g>
   <g id="matplotlib.axis_1">
    <g id="xtick_1">
     <g id="line2d_1">
      <defs>
       <path id="m3569d55212" d="M 0 0 
L 0 3.5 
" style="stroke: #000000; stroke-width: 0.8"/>
      </defs>
      <g>
       <use xlink:href="#m3569d55212" x="199.678958" y="517.624" style="stroke: #000000; stroke-width: 0.8"/>
      </g>
     </g>
     <g id="text_1">
      <!-- −10 -->
      <g transform="translate(183.850442 536.021656) scale(0.15 -0.15)">
       <defs>
        <path id="DejaVuSans-2212" d="M 678 2272 
L 4684 2272 
L 4684 1741 
L 678 1741 
L 678 2272 
z
" transform="scale(0.015625)"/>
        <path id="DejaVuSans-31" d="M 794 531 
L 1825 531 
L 1825 4091 
L 703 3866 
L 703 4441 
L 1819 4666 
L 2450 4666 
L 2450 531 
L 3481 531 
L 3481 0 
L 794 0 
L 794 531 
z
" transform="scale(0.015625)"/>
        <path id="DejaVuSans-30" d="M 2034 4250 
Q 1547 4250 1301 3770 
Q 1056 3291 1056 2328 
Q 1056 1369 1301 889 
Q 1547 409 2034 409 
Q 2525 409 2770 889 
Q 3016 1369 3016 2328 
Q 3016 3291 2770 3770 
Q 2525 4250 2034 4250 
z
M 2034 4750 
Q 2819 4750 3233 4129 
Q 3647 3509 3647 2328 
Q 3647 1150 3233 529 
Q 2819 -91 2034 -91 
Q 1250 -91 836 529 
Q 422 1150 422 2328 
Q 422 3509 836 4129 
Q 1250 4750 2034 4750 
z
" transform="scale(0.015625)"/>
       </defs>
       <use xlink:href="#DejaVuSans-2212"/>
       <use xlink:href="#DejaVuSans-31" transform="translate(83.789062 0)"/>
       <use xlink:href="#DejaVuSans-30" transform="translate(147.412109 0)"/>
      </g>
     </g>
    </g>
    <g id="xtick_2">
     <g id="line2d_2">
      <g>
       <use xlink:href="#m3569d55212" x="338.166146" y="517.624" style="stroke: #000000; stroke-width: 0.8"/>
      </g>
     </g>
     <g id="text_2">
      <!-- −5 -->
      <g transform="translate(327.109505 536.021656) scale(0.15 -0.15)">
       <defs>
        <path id="DejaVuSans-35" d="M 691 4666 
L 3169 4666 
L 3169 4134 
L 1269 4134 
L 1269 2991 
Q 1406 3038 1543 3061 
Q 1681 3084 1819 3084 
Q 2600 3084 3056 2656 
Q 3513 2228 3513 1497 
Q 3513 744 3044 326 
Q 2575 -91 1722 -91 
Q 1428 -91 1123 -41 
Q 819 9 494 109 
L 494 744 
Q 775 591 1075 516 
Q 1375 441 1709 441 
Q 2250 441 2565 725 
Q 2881 1009 2881 1497 
Q 2881 1984 2565 2268 
Q 2250 2553 1709 2553 
Q 1456 2553 1204 2497 
Q 953 2441 691 2322 
L 691 4666 
z
" transform="scale(0.015625)"/>
       </defs>
       <use xlink:href="#DejaVuSans-2212"/>
       <use xlink:href="#DejaVuSans-35" transform="translate(83.789062 0)"/>
      </g>
     </g>
    </g>
    <g id="xtick_3">
     <g id="line2d_3">
      <g>
       <use xlink:href="#m3569d55212" x="476.653335" y="517.624" style="stroke: #000000; stroke-width: 0.8"/>
      </g>
     </g>
     <g id="text_3">
      <!-- 0 -->
      <g transform="translate(471.88146 536.021656) scale(0.15 -0.15)">
       <use xlink:href="#DejaVuSans-30"/>
      </g>
     </g>
    </g>
    <g id="xtick_4">
     <g id="line2d_4">
      <g>
       <use xlink:href="#m3569d55212" x="615.140523" y="517.624" style="stroke: #000000; stroke-width: 0.8"/>
      </g>
     </g>
     <g id="text_4">
      <!-- 5 -->
      <g transform="translate(610.368648 536.021656) scale(0.15 -0.15)">
       <use xlink:href="#DejaVuSans-35"/>
      </g>
     </g>
    </g>
    <g id="xtick_5">
     <g id="line2d_5">
      <g>
       <use xlink:href="#m3569d55212" x="753.627711" y="517.624" style="stroke: #000000; stroke-width: 0.8"/>
      </g>
     </g>
     <g id="text_5">
      <!-- 10 -->
      <g transform="translate(744.083961 536.021656) scale(0.15 -0.15)">
       <use xlink:href="#DejaVuSans-31"/>
       <use xlink:href="#DejaVuSans-30" transform="translate(63.623047 0)"/>
      </g>
     </g>
    </g>
    <g id="text_6">
     <!-- r$_{23}$-r$_{12}$ (a$_o$) -->
     <g transform="translate(406.45 558.338062) scale(0.2 -0.2)">
      <defs>
       <path id="DejaVuSans-72" d="M 2631 2963 
Q 2534 3019 2420 3045 
Q 2306 3072 2169 3072 
Q 1681 3072 1420 2755 
Q 1159 2438 1159 1844 
L 1159 0 
L 581 0 
L 581 3500 
L 1159 3500 
L 1159 2956 
Q 1341 3275 1631 3429 
Q 1922 3584 2338 3584 
Q 2397 3584 2469 3576 
Q 2541 3569 2628 3553 
L 2631 2963 
z
" transform="scale(0.015625)"/>
       <path id="DejaVuSans-32" d="M 1228 531 
L 3431 531 
L 3431 0 
L 469 0 
L 469 531 
Q 828 903 1448 1529 
Q 2069 2156 2228 2338 
Q 2531 2678 2651 2914 
Q 2772 3150 2772 3378 
Q 2772 3750 2511 3984 
Q 2250 4219 1831 4219 
Q 1534 4219 1204 4116 
Q 875 4013 500 3803 
L 500 4441 
Q 881 4594 1212 4672 
Q 1544 4750 1819 4750 
Q 2544 4750 2975 4387 
Q 3406 4025 3406 3419 
Q 3406 3131 3298 2873 
Q 3191 2616 2906 2266 
Q 2828 2175 2409 1742 
Q 1991 1309 1228 531 
z
" transform="scale(0.015625)"/>
       <path id="DejaVuSans-33" d="M 2597 2516 
Q 3050 2419 3304 2112 
Q 3559 1806 3559 1356 
Q 3559 666 3084 287 
Q 2609 -91 1734 -91 
Q 1441 -91 1130 -33 
Q 819 25 488 141 
L 488 750 
Q 750 597 1062 519 
Q 1375 441 1716 441 
Q 2309 441 2620 675 
Q 2931 909 2931 1356 
Q 2931 1769 2642 2001 
Q 2353 2234 1838 2234 
L 1294 2234 
L 1294 2753 
L 1863 2753 
Q 2328 2753 2575 2939 
Q 2822 3125 2822 3475 
Q 2822 3834 2567 4026 
Q 2313 4219 1838 4219 
Q 1578 4219 1281 4162 
Q 984 4106 628 3988 
L 628 4550 
Q 988 4650 1302 4700 
Q 1616 4750 1894 4750 
Q 2613 4750 3031 4423 
Q 3450 4097 3450 3541 
Q 3450 3153 3228 2886 
Q 3006 2619 2597 2516 
z
" transform="scale(0.015625)"/>
       <path id="DejaVuSans-2d" d="M 313 2009 
L 1997 2009 
L 1997 1497 
L 313 1497 
L 313 2009 
z
" transform="scale(0.015625)"/>
       <path id="DejaVuSans-20" transform="scale(0.015625)"/>
       <path id="DejaVuSans-28" d="M 1984 4856 
Q 1566 4138 1362 3434 
Q 1159 2731 1159 2009 
Q 1159 1288 1364 580 
Q 1569 -128 1984 -844 
L 1484 -844 
Q 1016 -109 783 600 
Q 550 1309 550 2009 
Q 550 2706 781 3412 
Q 1013 4119 1484 4856 
L 1984 4856 
z
" transform="scale(0.015625)"/>
       <path id="DejaVuSans-61" d="M 2194 1759 
Q 1497 1759 1228 1600 
Q 959 1441 959 1056 
Q 959 750 1161 570 
Q 1363 391 1709 391 
Q 2188 391 2477 730 
Q 2766 1069 2766 1631 
L 2766 1759 
L 2194 1759 
z
M 3341 1997 
L 3341 0 
L 2766 0 
L 2766 531 
Q 2569 213 2275 61 
Q 1981 -91 1556 -91 
Q 1019 -91 701 211 
Q 384 513 384 1019 
Q 384 1609 779 1909 
Q 1175 2209 1959 2209 
L 2766 2209 
L 2766 2266 
Q 2766 2663 2505 2880 
Q 2244 3097 1772 3097 
Q 1472 3097 1187 3025 
Q 903 2953 641 2809 
L 641 3341 
Q 956 3463 1253 3523 
Q 1550 3584 1831 3584 
Q 2591 3584 2966 3190 
Q 3341 2797 3341 1997 
z
" transform="scale(0.015625)"/>
       <path id="DejaVuSans-Oblique-6f" d="M 1625 -91 
Q 1009 -91 651 289 
Q 294 669 294 1325 
Q 294 1706 417 2101 
Q 541 2497 738 2766 
Q 1047 3184 1428 3384 
Q 1809 3584 2291 3584 
Q 2888 3584 3255 3212 
Q 3622 2841 3622 2241 
Q 3622 1825 3500 1412 
Q 3378 1000 3181 728 
Q 2875 309 2494 109 
Q 2113 -91 1625 -91 
z
M 891 1344 
Q 891 869 1089 633 
Q 1288 397 1691 397 
Q 2269 397 2648 901 
Q 3028 1406 3028 2181 
Q 3028 2634 2825 2865 
Q 2622 3097 2228 3097 
Q 1903 3097 1650 2945 
Q 1397 2794 1197 2484 
Q 1050 2253 970 1956 
Q 891 1659 891 1344 
z
" transform="scale(0.015625)"/>
       <path id="DejaVuSans-29" d="M 513 4856 
L 1013 4856 
Q 1481 4119 1714 3412 
Q 1947 2706 1947 2009 
Q 1947 1309 1714 600 
Q 1481 -109 1013 -844 
L 513 -844 
Q 928 -128 1133 580 
Q 1338 1288 1338 2009 
Q 1338 2731 1133 3434 
Q 928 4138 513 4856 
z
" transform="scale(0.015625)"/>
      </defs>
      <use xlink:href="#DejaVuSans-72" transform="translate(0 0.125)"/>
      <use xlink:href="#DejaVuSans-32" transform="translate(42.070312 -16.28125) scale(0.7)"/>
      <use xlink:href="#DejaVuSans-33" transform="translate(86.606445 -16.28125) scale(0.7)"/>
      <use xlink:href="#DejaVuSans-2d" transform="translate(133.876953 0.125)"/>
      <use xlink:href="#DejaVuSans-72" transform="translate(169.960938 0.125)"/>
      <use xlink:href="#DejaVuSans-31" transform="translate(212.03125 -16.28125) scale(0.7)"/>
      <use xlink:href="#DejaVuSans-32" transform="translate(256.567383 -16.28125) scale(0.7)"/>
      <use xlink:href="#DejaVuSans-20" transform="translate(303.837891 0.125)"/>
      <use xlink:href="#DejaVuSans-28" transform="translate(335.625 0.125)"/>
      <use xlink:href="#DejaVuSans-61" transform="translate(374.638672 0.125)"/>
      <use xlink:href="#DejaVuSans-Oblique-6f" transform="translate(436.875 -16.28125) scale(0.7)"/>
      <use xlink:href="#DejaVuSans-29" transform="translate(482.436523 0.125)"/>
     </g>
    </g>
   </g>
   <g id="matplotlib.axis_2">
    <g id="ytick_1">
     <g id="line2d_6">
      <defs>
       <path id="mdfe59b8636" d="M 0 0 
L -3.5 0 
" style="stroke: #000000; stroke-width: 0.8"/>
      </defs>
      <g>
       <use xlink:href="#mdfe59b8636" x="64.1" y="504.088042" style="stroke: #000000; stroke-width: 0.8"/>
      </g>
     </g>
     <g id="text_7">
      <!-- −2 -->
      <g transform="translate(34.986719 509.78687) scale(0.15 -0.15)">
       <use xlink:href="#DejaVuSans-2212"/>
       <use xlink:href="#DejaVuSans-32" transform="translate(83.789062 0)"/>
      </g>
     </g>
    </g>
    <g id="ytick_2">
     <g id="line2d_7">
      <g>
       <use xlink:href="#mdfe59b8636" x="64.1" y="423.830202" style="stroke: #000000; stroke-width: 0.8"/>
      </g>
     </g>
     <g id="text_8">
      <!-- −1 -->
      <g transform="translate(34.986719 429.529031) scale(0.15 -0.15)">
       <use xlink:href="#DejaVuSans-2212"/>
       <use xlink:href="#DejaVuSans-31" transform="translate(83.789062 0)"/>
      </g>
     </g>
    </g>
    <g id="ytick_3">
     <g id="line2d_8">
      <g>
       <use xlink:href="#mdfe59b8636" x="64.1" y="343.572363" style="stroke: #000000; stroke-width: 0.8"/>
      </g>
     </g>
     <g id="text_9">
      <!-- 0 -->
      <g transform="translate(47.55625 349.271191) scale(0.15 -0.15)">
       <use xlink:href="#DejaVuSans-30"/>
      </g>
     </g>
    </g>
    <g id="ytick_4">
     <g id="line2d_9">
      <g>
       <use xlink:href="#mdfe59b8636" x="64.1" y="263.314524" style="stroke: #000000; stroke-width: 0.8"/>
      </g>
     </g>
     <g id="text_10">
      <!-- 1 -->
      <g transform="translate(47.55625 269.013352) scale(0.15 -0.15)">
       <use xlink:href="#DejaVuSans-31"/>
      </g>
     </g>
    </g>
    <g id="ytick_5">
     <g id="line2d_10">
      <g>
       <use xlink:href="#mdfe59b8636" x="64.1" y="183.056685" style="stroke: #000000; stroke-width: 0.8"/>
      </g>
     </g>
     <g id="text_11">
      <!-- 2 -->
      <g transform="translate(47.55625 188.755513) scale(0.15 -0.15)">
       <use xlink:href="#DejaVuSans-32"/>
      </g>
     </g>
    </g>
    <g id="ytick_6">
     <g id="line2d_11">
      <g>
       <use xlink:href="#mdfe59b8636" x="64.1" y="102.798846" style="stroke: #000000; stroke-width: 0.8"/>
      </g>
     </g>
     <g id="text_12">
      <!-- 3 -->
      <g transform="translate(47.55625 108.497674) scale(0.15 -0.15)">
       <use xlink:href="#DejaVuSans-33"/>
      </g>
     </g>
    </g>
    <g id="ytick_7">
     <g id="line2d_12">
      <g>
       <use xlink:href="#mdfe59b8636" x="64.1" y="22.541007" style="stroke: #000000; stroke-width: 0.8"/>
      </g>
     </g>
     <g id="text_13">
      <!-- 4 -->
      <g transform="translate(47.55625 28.239835) scale(0.15 -0.15)">
       <defs>
        <path id="DejaVuSans-34" d="M 2419 4116 
L 825 1625 
L 2419 1625 
L 2419 4116 
z
M 2253 4666 
L 3047 4666 
L 3047 1625 
L 3713 1625 
L 3713 1100 
L 3047 1100 
L 3047 0 
L 2419 0 
L 2419 1100 
L 313 1100 
L 313 1709 
L 2253 4666 
z
" transform="scale(0.015625)"/>
       </defs>
       <use xlink:href="#DejaVuSans-34"/>
      </g>
     </g>
    </g>
    <g id="text_14">
     <!-- E (eV) -->
     <g transform="translate(26.827344 294.50575) rotate(-90) scale(0.2 -0.2)">
      <defs>
       <path id="DejaVuSans-45" d="M 628 4666 
L 3578 4666 
L 3578 4134 
L 1259 4134 
L 1259 2753 
L 3481 2753 
L 3481 2222 
L 1259 2222 
L 1259 531 
L 3634 531 
L 3634 0 
L 628 0 
L 628 4666 
z
" transform="scale(0.015625)"/>
       <path id="DejaVuSans-65" d="M 3597 1894 
L 3597 1613 
L 953 1613 
Q 991 1019 1311 708 
Q 1631 397 2203 397 
Q 2534 397 2845 478 
Q 3156 559 3463 722 
L 3463 178 
Q 3153 47 2828 -22 
Q 2503 -91 2169 -91 
Q 1331 -91 842 396 
Q 353 884 353 1716 
Q 353 2575 817 3079 
Q 1281 3584 2069 3584 
Q 2775 3584 3186 3129 
Q 3597 2675 3597 1894 
z
M 3022 2063 
Q 3016 2534 2758 2815 
Q 2500 3097 2075 3097 
Q 1594 3097 1305 2825 
Q 1016 2553 972 2059 
L 3022 2063 
z
" transform="scale(0.015625)"/>
       <path id="DejaVuSans-56" d="M 1831 0 
L 50 4666 
L 709 4666 
L 2188 738 
L 3669 4666 
L 4325 4666 
L 2547 0 
L 1831 0 
z
" transform="scale(0.015625)"/>
      </defs>
      <use xlink:href="#DejaVuSans-45"/>
      <use xlink:href="#DejaVuSans-20" transform="translate(63.183594 0)"/>
      <use xlink:href="#DejaVuSans-28" transform="translate(94.970703 0)"/>
      <use xlink:href="#DejaVuSans-65" transform="translate(133.984375 0)"/>
      <use xlink:href="#DejaVuSans-56" transform="translate(195.507812 0)"/>
      <use xlink:href="#DejaVuSans-29" transform="translate(263.916016 0)"/>
     </g>
    </g>
   </g>
   <g id="line2d_13">
    <path d="M 99.968182 343.572363 
L 203.694795 343.862188 
L 266.228542 344.210382 
L 288.562024 344.512221 
L 303.947311 344.92507 
L 317.3474 345.502005 
L 327.273391 346.11467 
L 339.680881 346.964669 
L 347.125375 347.15394 
L 350.487497 347.061409 
L 351.873183 346.693799 
L 353.342011 346.06974 
L 354.893979 345.163234 
L 356.556802 343.926925 
L 358.330481 342.325 
L 360.242727 340.292413 
L 362.321257 337.74911 
L 364.566068 334.641436 
L 367.004876 330.875201 
L 369.665393 326.343817 
L 372.54762 320.983582 
L 375.679271 314.679953 
L 379.088059 307.309089 
L 382.801697 298.737987 
L 386.820187 288.892254 
L 391.143528 277.697981 
L 395.716292 265.229765 
L 400.510766 251.499407 
L 405.443809 236.692423 
L 410.570847 220.589901 
L 415.919596 203.048061 
L 421.767191 183.089343 
L 428.945045 157.747953 
L 442.885048 108.347746 
L 447.319243 93.585609 
L 450.922027 82.337581 
L 454.025964 73.355929 
L 456.769623 66.080721 
L 459.236144 60.152744 
L 461.480955 55.315222 
L 463.559485 51.345109 
L 465.499445 48.107112 
L 467.300837 45.517886 
L 469.019088 43.423865 
L 470.681911 41.737153 
L 472.317021 40.387741 
L 473.95213 39.321552 
L 475.670381 38.467658 
L 477.582628 37.770819 
L 480.57571 36.957863 
L 482.95909 36.214152 
L 484.455631 35.515009 
L 485.730462 34.672215 
L 486.686586 33.837455 
L 489.993038 41.542331 
L 491.97691 46.669911 
L 493.960781 52.436232 
L 495.944652 58.968386 
L 497.928524 66.351445 
L 499.912395 74.580525 
L 502.557557 86.628282 
L 505.864009 102.803979 
L 515.122076 148.849013 
L 518.428528 163.721987 
L 521.07369 174.593333 
L 523.718852 184.453723 
L 526.364014 193.27085 
L 528.347885 199.205108 
L 530.331757 204.576617 
L 532.315628 209.411426 
L 534.299499 213.741781 
L 536.283371 217.603904 
L 538.267242 221.036368 
L 540.251114 224.078359 
L 542.234985 226.768109 
L 544.218856 229.142595 
L 546.202728 231.236887 
L 548.84789 233.649451 
L 551.493051 235.691168 
L 554.138213 237.42217 
L 556.783375 238.892601 
L 559.428537 240.144083 
L 562.734989 241.452468 
L 566.041442 242.526431 
L 570.009184 243.56475 
L 573.976927 244.382013 
L 578.60596 245.112956 
L 583.896284 245.718315 
L 589.186608 246.096972 
L 596.460803 246.379844 
L 608.364031 246.593999 
L 622.912422 246.580218 
L 709.541472 246.12374 
L 817.331818 246.166736 
L 817.331818 246.166736 
" clip-path="url(#p246024b13c)" style="fill: none; stroke: #ab750b; stroke-width: 2; stroke-linecap: square"/>
   </g>
   <g id="line2d_14">
    <path d="M 238.45537 343.572363 
L 240.970566 343.591255 
L 266.013943 343.902851 
L 279.79145 344.264206 
L 290.804508 344.764703 
L 300.148594 345.407259 
L 308.54391 346.204783 
L 316.444718 347.177456 
L 323.792991 348.30215 
L 329.995121 349.497498 
L 340.123775 351.721434 
L 347.040722 353.380378 
L 352.820912 354.98371 
L 357.508954 356.506315 
L 361.522743 358.039785 
L 365.06125 359.627235 
L 368.261182 361.301033 
L 371.264763 363.117488 
L 374.172519 365.13558 
L 376.96236 367.338567 
L 379.751802 369.823404 
L 382.602511 372.669386 
L 385.461365 375.841434 
L 388.422533 379.458243 
L 391.615993 383.714097 
L 395.197385 388.867193 
L 399.893291 396.052918 
L 408.370687 409.089602 
L 411.54296 413.519934 
L 414.175761 416.843352 
L 416.601003 419.560896 
L 418.800795 421.709147 
L 420.882387 423.447454 
L 422.89835 424.848462 
L 424.836901 425.92373 
L 426.615608 426.662297 
L 428.336637 427.136907 
L 429.961117 427.354336 
L 431.097951 427.311448 
L 431.812679 427.025287 
L 432.602963 426.458636 
L 433.507604 425.521592 
L 434.571528 424.081597 
L 435.874374 421.921015 
L 437.601973 418.590391 
L 441.157233 411.110708 
L 444.173383 405.046281 
L 446.809707 400.251813 
L 450.548754 393.979622 
L 454.398073 387.385871 
L 457.259026 382.01343 
L 460.924558 374.59853 
L 464.918864 366.635 
L 466.98749 363.003457 
L 468.657911 360.499917 
L 470.093492 358.731816 
L 471.369792 357.497897 
L 472.523566 356.679901 
L 473.591574 356.187252 
L 474.602403 355.960881 
L 475.588727 355.966143 
L 476.58322 356.195527 
L 477.61447 356.665991 
L 478.700856 357.412561 
L 479.868925 358.494187 
L 481.145224 359.990361 
L 482.560385 362.005389 
L 484.153207 364.675955 
L 486.001288 368.22887 
L 488.225112 373.010588 
L 491.055434 379.656233 
L 494.304381 387.85203 
L 497.669728 396.951861 
L 501.629319 408.34546 
L 505.537858 420.247262 
L 509.434145 432.840775 
L 514.167684 448.95236 
L 520.477708 470.376653 
L 523.028265 478.218751 
L 525.004998 483.613418 
L 526.640703 487.462817 
L 528.029317 490.191341 
L 529.225975 492.07806 
L 530.263351 493.320757 
L 531.167992 494.076399 
L 531.968487 494.469297 
L 532.697309 494.586538 
L 533.41921 494.474608 
L 534.155383 494.123848 
L 534.902406 493.507031 
L 535.726263 492.515053 
L 536.673332 491.000789 
L 537.697828 488.983326 
L 539.005279 485.945255 
L 540.66176 481.476056 
L 542.271234 476.554729 
L 544.142907 470.193364 
L 546.265821 462.252427 
L 548.608781 452.732219 
L 551.764908 438.870589 
L 555.033515 423.380017 
L 558.234776 406.984658 
L 560.631947 393.672743 
L 563.326583 377.324188 
L 565.650304 361.855455 
L 568.996965 337.76084 
L 572.054906 316.073647 
L 573.838076 304.940288 
L 575.385034 296.643018 
L 576.764791 290.36666 
L 578.169981 284.992239 
L 579.593334 280.462513 
L 581.030116 276.668848 
L 582.476953 273.490786 
L 583.93124 270.816322 
L 585.491366 268.406695 
L 587.135335 266.272546 
L 588.931744 264.31084 
L 590.847217 262.549449 
L 592.927877 260.934418 
L 595.26976 259.402527 
L 597.86732 257.975041 
L 600.758953 256.64312 
L 604.001815 255.396303 
L 607.694448 254.22017 
L 611.853486 253.133819 
L 616.601253 252.129737 
L 621.923871 251.23452 
L 628.430955 250.37959 
L 636.187785 249.585827 
L 644.964229 248.916313 
L 655.143646 248.368844 
L 667.122478 247.953348 
L 682.434174 247.438884 
L 684.371975 247.130639 
L 685.051589 246.840573 
L 685.027276 246.693848 
L 685.026796 246.693467 
L 684.678317 246.559194 
L 683.54043 246.403998 
L 679.891499 246.178742 
L 678.84463 246.144394 
L 678.84463 246.144394 
" clip-path="url(#p246024b13c)" style="fill: none; stroke: #06ac18; stroke-width: 2; stroke-linecap: square"/>
   </g>
   <g id="line2d_15">
    <path d="M 99.968182 343.572363 
L 180.368714 343.856534 
L 242.406162 344.302422 
L 286.576825 344.571861 
L 301.962113 344.445698 
L 311.888104 344.163509 
L 320.325197 343.71254 
L 323.799294 343.55349 
L 327.273391 343.623825 
L 331.243788 343.936096 
L 337.199383 344.676609 
L 342.162379 345.247824 
L 345.140176 345.374556 
L 351.346623 345.302611 
L 352.843164 344.886196 
L 354.422846 344.210498 
L 356.085669 343.253276 
L 357.859347 341.970173 
L 359.74388 340.327132 
L 361.766982 338.260386 
L 363.928653 335.724321 
L 366.228891 332.672811 
L 368.667699 329.058161 
L 371.245075 324.83112 
L 373.96102 319.939682 
L 376.815533 314.329078 
L 379.780902 308.002481 
L 382.884839 300.847224 
L 386.127344 292.800659 
L 389.480705 283.875842 
L 393.000347 273.864921 
L 396.686272 262.697751 
L 400.593907 250.135604 
L 404.806393 235.828478 
L 409.54544 218.91742 
L 415.531604 196.672346 
L 426.312242 156.490859 
L 429.942739 143.925218 
L 432.797253 134.811368 
L 435.208347 127.830564 
L 437.286876 122.471048 
L 439.088268 118.411697 
L 440.695664 115.315494 
L 442.109063 113.050523 
L 443.383895 111.409971 
L 444.520157 110.294979 
L 445.545565 109.588527 
L 446.487832 109.204304 
L 447.346957 109.085859 
L 448.178369 109.190758 
L 449.00978 109.519835 
L 449.868906 110.103864 
L 450.783459 111.007546 
L 451.753439 112.294592 
L 452.778847 114.035183 
L 453.887395 116.370114 
L 455.079085 119.42077 
L 456.353917 123.320577 
L 457.711889 128.213414 
L 459.180716 134.375517 
L 460.732685 141.873027 
L 462.423222 151.182923 
L 464.252328 162.559942 
L 466.247716 176.427517 
L 468.492527 193.650942 
L 471.180758 216.083593 
L 475.80895 256.989132 
L 479.106883 285.167399 
L 481.185412 301.117786 
L 482.820522 312.059776 
L 484.178494 319.745426 
L 485.34247 325.120095 
L 486.312451 328.622935 
L 486.686586 329.715706 
L 487.347876 330.495575 
L 488.009167 331.032793 
L 488.670457 331.334048 
L 489.331748 331.405568 
L 489.993038 331.254111 
L 490.654329 330.886549 
L 491.315619 330.309816 
L 491.97691 329.531053 
L 493.299491 327.398012 
L 494.622071 324.555137 
L 495.944652 321.093926 
L 497.267233 317.106002 
L 499.251105 310.321495 
L 501.234976 302.774971 
L 503.880138 291.78843 
L 507.847881 274.200235 
L 515.122076 241.880446 
L 518.428528 228.153824 
L 521.734981 215.364931 
L 524.380142 205.881564 
L 527.025304 197.085899 
L 529.670466 188.975966 
L 532.315628 181.533738 
L 534.96079 174.731166 
L 537.605952 168.533653 
L 540.251114 162.903053 
L 542.896275 157.79861 
L 545.541437 153.179568 
L 548.186599 149.006803 
L 550.831761 145.243156 
L 553.476923 141.853606 
L 556.122085 138.804668 
L 558.767247 136.064751 
L 561.412408 133.604833 
L 564.05757 131.398219 
L 567.364023 128.959144 
L 570.670475 126.834378 
L 573.976927 124.982816 
L 577.28338 123.379886 
L 583.234994 120.798387 
L 587.202737 119.293291 
L 591.170479 118.023881 
L 595.138222 117.015576 
L 598.444674 116.385562 
L 602.412417 115.871854 
L 611.670484 114.971124 
L 620.92855 114.327102 
L 632.170488 113.779082 
L 646.057588 113.339839 
L 664.573721 112.99475 
L 694.993082 112.685176 
L 817.331818 111.635155 
L 817.331818 111.635155 
" clip-path="url(#p246024b13c)" style="fill: none; stroke: #58cfca; stroke-width: 2; stroke-linecap: square"/>
   </g>
   <g id="line2d_16">
    <path d="M 99.968182 343.572363 
L 817.331818 343.572363 
" clip-path="url(#p246024b13c)" style="fill: none; stroke-dasharray: 3.7,1.6; stroke-dashoffset: 0; stroke: #000000"/>
   </g>
   <g id="patch_7">
    <path d="M 64.1 517.624 
L 64.1 10.8 
" style="fill: none; stroke: #000000; stroke-width: 0.8; stroke-linejoin: miter; stroke-linecap: square"/>
   </g>
   <g id="patch_8">
    <path d="M 853.2 517.624 
L 853.2 10.8 
" style="fill: none; stroke: #000000; stroke-width: 0.8; stroke-linejoin: miter; stroke-linecap: square"/>
   </g>
   <g id="patch_9">
    <path d="M 64.1 517.624 
L 853.2 517.624 
" style="fill: none; stroke: #000000; stroke-width: 0.8; stroke-linejoin: miter; stroke-linecap: square"/>
   </g>
   <g id="patch_10">
    <path d="M 64.1 10.8 
L 853.2 10.8 
" style="fill: none; stroke: #000000; stroke-width: 0.8; stroke-linejoin: miter; stroke-linecap: square"/>
   </g>
   <g id="text_15">
    <!-- P$^+$ ($^3$P) + H$_2$/D$_2$ (X$^1\Sigma^+$) -->
    <g transform="translate(117.788 335.079589) scale(0.15 -0.15)">
     <defs>
      <path id="DejaVuSans-50" d="M 1259 4147 
L 1259 2394 
L 2053 2394 
Q 2494 2394 2734 2622 
Q 2975 2850 2975 3272 
Q 2975 3691 2734 3919 
Q 2494 4147 2053 4147 
L 1259 4147 
z
M 628 4666 
L 2053 4666 
Q 2838 4666 3239 4311 
Q 3641 3956 3641 3272 
Q 3641 2581 3239 2228 
Q 2838 1875 2053 1875 
L 1259 1875 
L 1259 0 
L 628 0 
L 628 4666 
z
" transform="scale(0.015625)"/>
      <path id="DejaVuSans-2b" d="M 2944 4013 
L 2944 2272 
L 4684 2272 
L 4684 1741 
L 2944 1741 
L 2944 0 
L 2419 0 
L 2419 1741 
L 678 1741 
L 678 2272 
L 2419 2272 
L 2419 4013 
L 2944 4013 
z
" transform="scale(0.015625)"/>
      <path id="DejaVuSans-48" d="M 628 4666 
L 1259 4666 
L 1259 2753 
L 3553 2753 
L 3553 4666 
L 4184 4666 
L 4184 0 
L 3553 0 
L 3553 2222 
L 1259 2222 
L 1259 0 
L 628 0 
L 628 4666 
z
" transform="scale(0.015625)"/>
      <path id="DejaVuSans-2f" d="M 1625 4666 
L 2156 4666 
L 531 -594 
L 0 -594 
L 1625 4666 
z
" transform="scale(0.015625)"/>
      <path id="DejaVuSans-44" d="M 1259 4147 
L 1259 519 
L 2022 519 
Q 2988 519 3436 956 
Q 3884 1394 3884 2338 
Q 3884 3275 3436 3711 
Q 2988 4147 2022 4147 
L 1259 4147 
z
M 628 4666 
L 1925 4666 
Q 3281 4666 3915 4102 
Q 4550 3538 4550 2338 
Q 4550 1131 3912 565 
Q 3275 0 1925 0 
L 628 0 
L 628 4666 
z
" transform="scale(0.015625)"/>
      <path id="DejaVuSans-58" d="M 403 4666 
L 1081 4666 
L 2241 2931 
L 3406 4666 
L 4084 4666 
L 2584 2425 
L 4184 0 
L 3506 0 
L 2194 1984 
L 872 0 
L 191 0 
L 1856 2491 
L 403 4666 
z
" transform="scale(0.015625)"/>
      <path id="DejaVuSans-3a3" d="M 1353 531 
L 3634 531 
L 3634 0 
L 628 0 
L 628 531 
L 2125 2481 
L 628 4134 
L 628 4666 
L 3578 4666 
L 3578 4134 
L 1353 4134 
L 2850 2494 
L 1353 531 
z
" transform="scale(0.015625)"/>
     </defs>
     <use xlink:href="#DejaVuSans-50" transform="translate(0 0.765625)"/>
     <use xlink:href="#DejaVuSans-2b" transform="translate(74.897461 39.046875) scale(0.7)"/>
     <use xlink:href="#DejaVuSans-20" transform="translate(149.921875 0.765625)"/>
     <use xlink:href="#DejaVuSans-28" transform="translate(181.708984 0.765625)"/>
     <use xlink:href="#DejaVuSans-33" transform="translate(221.679688 39.046875) scale(0.7)"/>
     <use xlink:href="#DejaVuSans-50" transform="translate(268.950195 0.765625)"/>
     <use xlink:href="#DejaVuSans-29" transform="translate(329.25293 0.765625)"/>
     <use xlink:href="#DejaVuSans-20" transform="translate(368.266602 0.765625)"/>
     <use xlink:href="#DejaVuSans-2b" transform="translate(400.053711 0.765625)"/>
     <use xlink:href="#DejaVuSans-20" transform="translate(483.842773 0.765625)"/>
     <use xlink:href="#DejaVuSans-48" transform="translate(515.629883 0.765625)"/>
     <use xlink:href="#DejaVuSans-32" transform="translate(591.782227 -15.640625) scale(0.7)"/>
     <use xlink:href="#DejaVuSans-2f" transform="translate(639.052734 0.765625)"/>
     <use xlink:href="#DejaVuSans-44" transform="translate(672.744141 0.765625)"/>
     <use xlink:href="#DejaVuSans-32" transform="translate(750.703125 -15.640625) scale(0.7)"/>
     <use xlink:href="#DejaVuSans-20" transform="translate(797.973633 0.765625)"/>
     <use xlink:href="#DejaVuSans-28" transform="translate(829.760742 0.765625)"/>
     <use xlink:href="#DejaVuSans-58" transform="translate(868.774414 0.765625)"/>
     <use xlink:href="#DejaVuSans-31" transform="translate(938.237305 39.046875) scale(0.7)"/>
     <use xlink:href="#DejaVuSans-3a3" transform="translate(985.507812 0.765625)"/>
     <use xlink:href="#DejaVuSans-2b" transform="translate(1063.286133 39.046875) scale(0.7)"/>
     <use xlink:href="#DejaVuSans-29" transform="translate(1138.310547 0.765625)"/>
    </g>
   </g>
   <g id="text_16">
    <!-- PH/PD$^+$ (X$^2\Pi$) + H ($^2$S) -->
    <g transform="translate(625.512 238.558029) scale(0.15 -0.15)">
     <defs>
      <path id="DejaVuSans-3a0" d="M 4184 4666 
L 4184 0 
L 3553 0 
L 3553 4134 
L 1259 4134 
L 1259 0 
L 628 0 
L 628 4666 
L 4184 4666 
z
" transform="scale(0.015625)"/>
      <path id="DejaVuSans-53" d="M 3425 4513 
L 3425 3897 
Q 3066 4069 2747 4153 
Q 2428 4238 2131 4238 
Q 1616 4238 1336 4038 
Q 1056 3838 1056 3469 
Q 1056 3159 1242 3001 
Q 1428 2844 1947 2747 
L 2328 2669 
Q 3034 2534 3370 2195 
Q 3706 1856 3706 1288 
Q 3706 609 3251 259 
Q 2797 -91 1919 -91 
Q 1588 -91 1214 -16 
Q 841 59 441 206 
L 441 856 
Q 825 641 1194 531 
Q 1563 422 1919 422 
Q 2459 422 2753 634 
Q 3047 847 3047 1241 
Q 3047 1584 2836 1778 
Q 2625 1972 2144 2069 
L 1759 2144 
Q 1053 2284 737 2584 
Q 422 2884 422 3419 
Q 422 4038 858 4394 
Q 1294 4750 2059 4750 
Q 2388 4750 2728 4690 
Q 3069 4631 3425 4513 
z
" transform="scale(0.015625)"/>
     </defs>
     <use xlink:href="#DejaVuSans-50" transform="translate(0 0.765625)"/>
     <use xlink:href="#DejaVuSans-48" transform="translate(60.302734 0.765625)"/>
     <use xlink:href="#DejaVuSans-2f" transform="translate(135.498047 0.765625)"/>
     <use xlink:href="#DejaVuSans-50" transform="translate(169.189453 0.765625)"/>
     <use xlink:href="#DejaVuSans-44" transform="translate(229.492188 0.765625)"/>
     <use xlink:href="#DejaVuSans-2b" transform="translate(321.088867 39.046875) scale(0.7)"/>
     <use xlink:href="#DejaVuSans-20" transform="translate(396.113281 0.765625)"/>
     <use xlink:href="#DejaVuSans-28" transform="translate(427.900391 0.765625)"/>
     <use xlink:href="#DejaVuSans-58" transform="translate(466.914062 0.765625)"/>
     <use xlink:href="#DejaVuSans-32" transform="translate(536.376953 39.046875) scale(0.7)"/>
     <use xlink:href="#DejaVuSans-3a0" transform="translate(583.647461 0.765625)"/>
     <use xlink:href="#DejaVuSans-29" transform="translate(658.842773 0.765625)"/>
     <use xlink:href="#DejaVuSans-20" transform="translate(697.856445 0.765625)"/>
     <use xlink:href="#DejaVuSans-2b" transform="translate(729.643555 0.765625)"/>
     <use xlink:href="#DejaVuSans-20" transform="translate(813.432617 0.765625)"/>
     <use xlink:href="#DejaVuSans-48" transform="translate(845.219727 0.765625)"/>
     <use xlink:href="#DejaVuSans-20" transform="translate(920.415039 0.765625)"/>
     <use xlink:href="#DejaVuSans-28" transform="translate(952.202148 0.765625)"/>
     <use xlink:href="#DejaVuSans-32" transform="translate(992.172852 39.046875) scale(0.7)"/>
     <use xlink:href="#DejaVuSans-53" transform="translate(1039.443359 0.765625)"/>
     <use xlink:href="#DejaVuSans-29" transform="translate(1102.919922 0.765625)"/>
    </g>
   </g>
   <g id="text_17">
    <!-- PH/PD$^+$ (1$^4\Sigma^-$) + H ($^2$S) -->
    <g transform="translate(620.037 106.783789) scale(0.15 -0.15)">
     <use xlink:href="#DejaVuSans-50" transform="translate(0 0.765625)"/>
     <use xlink:href="#DejaVuSans-48" transform="translate(60.302734 0.765625)"/>
     <use xlink:href="#DejaVuSans-2f" transform="translate(135.498047 0.765625)"/>
     <use xlink:href="#DejaVuSans-50" transform="translate(169.189453 0.765625)"/>
     <use xlink:href="#DejaVuSans-44" transform="translate(229.492188 0.765625)"/>
     <use xlink:href="#DejaVuSans-2b" transform="translate(321.088867 39.046875) scale(0.7)"/>
     <use xlink:href="#DejaVuSans-20" transform="translate(396.113281 0.765625)"/>
     <use xlink:href="#DejaVuSans-28" transform="translate(427.900391 0.765625)"/>
     <use xlink:href="#DejaVuSans-31" transform="translate(466.914062 0.765625)"/>
     <use xlink:href="#DejaVuSans-34" transform="translate(531.494141 39.046875) scale(0.7)"/>
     <use xlink:href="#DejaVuSans-3a3" transform="translate(578.764648 0.765625)"/>
     <use xlink:href="#DejaVuSans-2212" transform="translate(656.542969 39.046875) scale(0.7)"/>
     <use xlink:href="#DejaVuSans-29" transform="translate(731.567383 0.765625)"/>
     <use xlink:href="#DejaVuSans-20" transform="translate(770.581055 0.765625)"/>
     <use xlink:href="#DejaVuSans-2b" transform="translate(802.368164 0.765625)"/>
     <use xlink:href="#DejaVuSans-20" transform="translate(886.157227 0.765625)"/>
     <use xlink:href="#DejaVuSans-48" transform="translate(917.944336 0.765625)"/>
     <use xlink:href="#DejaVuSans-20" transform="translate(993.139648 0.765625)"/>
     <use xlink:href="#DejaVuSans-28" transform="translate(1024.926758 0.765625)"/>
     <use xlink:href="#DejaVuSans-32" transform="translate(1064.897461 39.046875) scale(0.7)"/>
     <use xlink:href="#DejaVuSans-53" transform="translate(1112.167969 0.765625)"/>
     <use xlink:href="#DejaVuSans-29" transform="translate(1175.644531 0.765625)"/>
    </g>
   </g>
   <g id="text_18">
    <!-- 1.21 eV -->
    <g transform="translate(756.747243 264.958293) rotate(-270) scale(0.15 -0.15)">
     <defs>
      <path id="DejaVuSans-2e" d="M 684 794 
L 1344 794 
L 1344 0 
L 684 0 
L 684 794 
z
" transform="scale(0.015625)"/>
     </defs>
     <use xlink:href="#DejaVuSans-31"/>
     <use xlink:href="#DejaVuSans-2e" transform="translate(63.623047 0)"/>
     <use xlink:href="#DejaVuSans-32" transform="translate(95.410156 0)"/>
     <use xlink:href="#DejaVuSans-31" transform="translate(159.033203 0)"/>
     <use xlink:href="#DejaVuSans-20" transform="translate(222.65625 0)"/>
     <use xlink:href="#DejaVuSans-65" transform="translate(254.443359 0)"/>
     <use xlink:href="#DejaVuSans-56" transform="translate(315.966797 0)"/>
    </g>
   </g>
   <g id="text_19">
    <!-- 2.89 eV -->
    <g transform="translate(784.44468 140.558642) rotate(-270) scale(0.15 -0.15)">
     <defs>
      <path id="DejaVuSans-38" d="M 2034 2216 
Q 1584 2216 1326 1975 
Q 1069 1734 1069 1313 
Q 1069 891 1326 650 
Q 1584 409 2034 409 
Q 2484 409 2743 651 
Q 3003 894 3003 1313 
Q 3003 1734 2745 1975 
Q 2488 2216 2034 2216 
z
M 1403 2484 
Q 997 2584 770 2862 
Q 544 3141 544 3541 
Q 544 4100 942 4425 
Q 1341 4750 2034 4750 
Q 2731 4750 3128 4425 
Q 3525 4100 3525 3541 
Q 3525 3141 3298 2862 
Q 3072 2584 2669 2484 
Q 3125 2378 3379 2068 
Q 3634 1759 3634 1313 
Q 3634 634 3220 271 
Q 2806 -91 2034 -91 
Q 1263 -91 848 271 
Q 434 634 434 1313 
Q 434 1759 690 2068 
Q 947 2378 1403 2484 
z
M 1172 3481 
Q 1172 3119 1398 2916 
Q 1625 2713 2034 2713 
Q 2441 2713 2670 2916 
Q 2900 3119 2900 3481 
Q 2900 3844 2670 4047 
Q 2441 4250 2034 4250 
Q 1625 4250 1398 4047 
Q 1172 3844 1172 3481 
z
" transform="scale(0.015625)"/>
      <path id="DejaVuSans-39" d="M 703 97 
L 703 672 
Q 941 559 1184 500 
Q 1428 441 1663 441 
Q 2288 441 2617 861 
Q 2947 1281 2994 2138 
Q 2813 1869 2534 1725 
Q 2256 1581 1919 1581 
Q 1219 1581 811 2004 
Q 403 2428 403 3163 
Q 403 3881 828 4315 
Q 1253 4750 1959 4750 
Q 2769 4750 3195 4129 
Q 3622 3509 3622 2328 
Q 3622 1225 3098 567 
Q 2575 -91 1691 -91 
Q 1453 -91 1209 -44 
Q 966 3 703 97 
z
M 1959 2075 
Q 2384 2075 2632 2365 
Q 2881 2656 2881 3163 
Q 2881 3666 2632 3958 
Q 2384 4250 1959 4250 
Q 1534 4250 1286 3958 
Q 1038 3666 1038 3163 
Q 1038 2656 1286 2365 
Q 1534 2075 1959 2075 
z
" transform="scale(0.015625)"/>
     </defs>
     <use xlink:href="#DejaVuSans-32"/>
     <use xlink:href="#DejaVuSans-2e" transform="translate(63.623047 0)"/>
     <use xlink:href="#DejaVuSans-38" transform="translate(95.410156 0)"/>
     <use xlink:href="#DejaVuSans-39" transform="translate(159.033203 0)"/>
     <use xlink:href="#DejaVuSans-20" transform="translate(222.65625 0)"/>
     <use xlink:href="#DejaVuSans-65" transform="translate(254.443359 0)"/>
     <use xlink:href="#DejaVuSans-56" transform="translate(315.966797 0)"/>
    </g>
   </g>
   <g id="legend_1">
    <g id="line2d_17">
     <path d="M 80.3 34.377188 
L 98.3 34.377188 
L 116.3 34.377188 
" style="fill: none; stroke: #ab750b; stroke-width: 2; stroke-linecap: square"/>
    </g>
    <g id="text_20">
     <!-- 1 $^3$A' -->
     <g transform="translate(130.7 40.677188) scale(0.18 -0.18)">
      <defs>
       <path id="DejaVuSans-41" d="M 2188 4044 
L 1331 1722 
L 3047 1722 
L 2188 4044 
z
M 1831 4666 
L 2547 4666 
L 4325 0 
L 3669 0 
L 3244 1197 
L 1141 1197 
L 716 0 
L 50 0 
L 1831 4666 
z
" transform="scale(0.015625)"/>
       <path id="DejaVuSans-27" d="M 1147 4666 
L 1147 2931 
L 616 2931 
L 616 4666 
L 1147 4666 
z
" transform="scale(0.015625)"/>
      </defs>
      <use xlink:href="#DejaVuSans-31" transform="translate(0 0.765625)"/>
      <use xlink:href="#DejaVuSans-20" transform="translate(63.623047 0.765625)"/>
      <use xlink:href="#DejaVuSans-33" transform="translate(96.367188 39.046875) scale(0.7)"/>
      <use xlink:href="#DejaVuSans-41" transform="translate(143.637695 0.765625)"/>
      <use xlink:href="#DejaVuSans-27" transform="translate(212.045898 0.765625)"/>
     </g>
    </g>
    <g id="line2d_18">
     <path d="M 80.3 60.797813 
L 98.3 60.797813 
L 116.3 60.797813 
" style="fill: none; stroke: #06ac18; stroke-width: 2; stroke-linecap: square"/>
    </g>
    <g id="text_21">
     <!-- 1 $^3$A'' -->
     <g transform="translate(130.7 67.097813) scale(0.18 -0.18)">
      <use xlink:href="#DejaVuSans-31" transform="translate(0 0.765625)"/>
      <use xlink:href="#DejaVuSans-20" transform="translate(63.623047 0.765625)"/>
      <use xlink:href="#DejaVuSans-33" transform="translate(96.367188 39.046875) scale(0.7)"/>
      <use xlink:href="#DejaVuSans-41" transform="translate(143.637695 0.765625)"/>
      <use xlink:href="#DejaVuSans-27" transform="translate(212.045898 0.765625)"/>
      <use xlink:href="#DejaVuSans-27" transform="translate(239.536133 0.765625)"/>
     </g>
    </g>
    <g id="line2d_19">
     <path d="M 80.3 87.218438 
L 98.3 87.218438 
L 116.3 87.218438 
" style="fill: none; stroke: #58cfca; stroke-width: 2; stroke-linecap: square"/>
    </g>
    <g id="text_22">
     <!-- 2 $^3$A'' -->
     <g transform="translate(130.7 93.518438) scale(0.18 -0.18)">
      <use xlink:href="#DejaVuSans-32" transform="translate(0 0.765625)"/>
      <use xlink:href="#DejaVuSans-20" transform="translate(63.623047 0.765625)"/>
      <use xlink:href="#DejaVuSans-33" transform="translate(96.367188 39.046875) scale(0.7)"/>
      <use xlink:href="#DejaVuSans-41" transform="translate(143.637695 0.765625)"/>
      <use xlink:href="#DejaVuSans-27" transform="translate(212.045898 0.765625)"/>
      <use xlink:href="#DejaVuSans-27" transform="translate(239.536133 0.765625)"/>
     </g>
    </g>
   </g>
  </g>
 </g>
 <defs>
  <clipPath id="p246024b13c">
   <rect x="64.1" y="10.8" width="789.1" height="506.824"/>
  </clipPath>
 </defs>
</svg>
